<?xml version="1.0" encoding="UTF-8" standalone="no"?>
<svg xmlns="http://www.w3.org/2000/svg" xmlns:xlink="http://www.w3.org/1999/xlink" baseProfile="tiny" height="398.45" width="1282.5" version="1.1" viewBox="-20 -20 1282.5 398.454">
  <defs>
    <path id="arrow" stroke-width="0" d="m0 0v12l16-6z"/>
  </defs>
  <rect y="-20" width="1282.5" fill="transparent" x="-20" height="398.45"/>
  <a id="a0" xlink:href="1.html">
    <path id="a0" stroke="blue" stroke-width="2" fill="none" d="m0 111.8h348.5"/>
    <use xlink:href="#arrow" transform="translate(332.5 105.8)"/>
    <text y="126.802" x="68.875" font-size="15" text-anchor="middle" fill="black">S01</text>
  </a>
  <a id="a1" xlink:href="2.html">
    <path id="a1" stroke="blue" stroke-width="2" fill="none" d="m0 142.66h137.75"/>
    <use xlink:href="#arrow" transform="translate(121.75 136.66)"/>
    <text y="157.661" x="68.875" font-size="15" text-anchor="middle" fill="black">S02</text>
  </a>
  <a id="a2" xlink:href="3.html">
    <path id="a2" stroke="blue" stroke-width="2" fill="none" d="m0 255.24h560.25v-110.1h26"/>
    <use xlink:href="#arrow" transform="translate(570.25 139.14)"/>
    <text y="270.24" x="68.875" font-size="15" text-anchor="middle" fill="black">S09</text>
  </a>
  <a id="a3" xlink:href="4.html">
    <path id="a3" stroke="blue" stroke-width="2" fill="none" d="m428.5 91.802h157.75"/>
    <use xlink:href="#arrow" transform="translate(592.25 107.8) rotate(-90)"/>
    <text y="106.802" x="497.375" font-size="15" text-anchor="middle" fill="black">S05</text>
  </a>
  <a id="a4" xlink:href="5.html">
    <path id="a4" stroke="blue" stroke-width="2" fill="none" d="m666.25 88.469h26v-46.735h121.75"/>
    <use xlink:href="#arrow" transform="translate(798 35.734)"/>
    <text y="56.7344" x="745.125" font-size="15" text-anchor="middle" fill="black">S06</text>
  </a>
  <a id="a5" xlink:href="6.html">
    <path id="a5" stroke="blue" stroke-width="2" fill="none" d="m666.25 108.47h342.55v159.99h36"/>
    <use xlink:href="#arrow" transform="translate(1028.8 262.46)"/>
    <text y="123.469" x="745.125" font-size="15" text-anchor="middle" fill="black">S11</text>
  </a>
  <a id="a6" xlink:href="6.html">
    <path id="a6" stroke="blue" stroke-width="2" fill="none" d="m666.25 128.47h26v214.98h550.25"/>
    <use xlink:href="#arrow" transform="translate(1226.5 337.45)"/>
    <text y="358.454" x="1173.62" font-size="15" text-anchor="middle" fill="black">S12</text>
  </a>
  <a id="a7" xlink:href="5.html">
    <path id="a7" stroke="blue" stroke-width="2" fill="none" d="m586.25 118.47h-36v65h580.55v84.99h-26"/>
    <use xlink:href="#arrow" transform="translate(570.25 112.47)"/>
    <text y="198.469" x="745.125" font-size="15" text-anchor="middle" fill="black">S03</text>
  </a>
  <a id="a8" xlink:href="3.html">
    <path id="a8" stroke="blue" stroke-width="2" fill="none" d="m887 20.867h131.8v197.59h26"/>
    <use xlink:href="#arrow" transform="translate(1028.8 212.46)"/>
    <text y="35.8672" x="955.875" font-size="15" text-anchor="middle" fill="black">S07</text>
  </a>
  <a id="a9" xlink:href="1.html">
    <path id="a9" stroke="blue" stroke-width="2" fill="none" d="m887 62.602h26v-16.735h85.75v272.58h243.75"/>
    <use xlink:href="#arrow" transform="translate(1226.5 312.45)"/>
    <text y="333.454" x="1173.62" font-size="15" text-anchor="middle" fill="black">S08</text>
  </a>
  <a id="a10" xlink:href="1.html">
    <path id="a10" stroke="blue" stroke-width="2" fill="none" d="m210.75 163.52h111.75v-91.718h26"/>
    <use xlink:href="#arrow" transform="translate(332.5 65.802)"/>
    <text y="178.521" x="279.625" font-size="15" text-anchor="middle" fill="black">S04</text>
  </a>
  <a id="a11" xlink:href="2.html">
    <path id="a11" stroke="blue" stroke-width="2" fill="none" d="m137.75 184.38h-26v45.86h428.5v-161.77l162-0.001v80.001h-36"/>
    <use xlink:href="#arrow" transform="translate(121.75 178.38)"/>
    <text y="245.24" x="279.625" font-size="15" text-anchor="middle" fill="black">S10</text>
  </a>
  <a id="a12" xlink:href="3.html">
    <path id="a12" stroke="blue" stroke-width="2" fill="none" d="m1104.8 218.46h137.7"/>
    <use xlink:href="#arrow" transform="translate(1226.5 212.46)"/>
    <text y="233.465" x="1173.62" font-size="15" text-anchor="middle" fill="black">S13</text>
  </a>
  <a id="a13" xlink:href="4.html">
    <rect id="a13" height="80" width="80" stroke="#000" y="51.802" x="348.5" stroke-width=".5" fill="none"/>
    <image y="51.802" x="348.5" xlink:href="b14d48e0-1285-11e4-9191-0800200c9a66/FlowSheet.svg" width="80" height="80"/>
    <text y="146.802" x="388.5" font-size="15" text-anchor="middle" fill="black">OC</text>
  </a>
  <a id="a14" xlink:href="5.html">
    <rect id="a14" height="80" width="80" stroke="#000" y="78.469" x="586.25" stroke-width=".5" fill="none"/>
    <image y="78.469" x="586.25" xlink:href="b14d48e0-1285-11e4-9191-0800200c9a66/FlowSheet.svg" width="80" height="80"/>
    <text y="173.469" x="626.25" font-size="15" text-anchor="middle" fill="black">FC</text>
  </a>
  <a id="a15" xlink:href="6.html">
    <rect id="a15" height="83.469" width="73" stroke="#000" y="0" x="814" stroke-width=".5" fill="none"/>
    <image y="0" x="814" xlink:href="b14d48e0-1285-11e4-9191-0800200c9a66/Divider.svg" width="73" height="83.469"/>
    <text y="98.4688" x="850.5" font-size="15" text-anchor="middle" fill="black">SPLIT</text>
  </a>
  <a id="a16" xlink:href="6.html">
    <rect id="a16" height="83.438" width="73" stroke="#000" y="121.8" x="137.75" stroke-width=".5" fill="none"/>
    <image y="121.8" x="137.75" xlink:href="b14d48e0-1285-11e4-9191-0800200c9a66/Mixer.svg" width="73" height="83.438"/>
    <text y="220.24" x="174.25" font-size="15" text-anchor="middle" fill="black">MIX</text>
  </a>
  <a id="a17" xlink:href="5.html">
    <rect id="a17" height="99.986" width="60" stroke="#000" y="193.47" x="1044.8" stroke-width=".5" fill="none"/>
    <image y="193.47" x="1044.8" xlink:href="b14d48e0-1285-11e4-9191-0800200c9a66/Separator.svg" width="60" height="99.986"/>
    <text y="308.454" x="1074.75" font-size="15" text-anchor="middle" fill="black">SC</text>
  </a>
</svg>
