<?xml version="1.0" encoding="UTF-8"?>
<!DOCTYPE svg PUBLIC "-//W3C//DTD SVG 1.1 Tiny//EN" "http://www.w3.org/Graphics/SVG/1.1/DTD/svg11-tiny.dtd">
<svg version="1.1" baseProfile="tiny" xmlns="http://www.w3.org/2000/svg" xmlns:xlink="http://www.w3.org/1999/xlink" width="1282.5" height="398.454" viewBox="-20 -20 1282.5 398.454" >
  <defs>
    <path id="arrow" stroke-width="0" d="M 0 0 L 0 12 L 16 6 Z" />
  </defs>
  <rect fill="transparent" stroke="none" x="-20" y="-20" width="1282.5" height="398.454" />
  <a xlink:href="1.html" id="a0">
    <path id="a0" fill="none" stroke="blue" stroke-width="2" d="M 0 111.802 L 348.5 111.802 " />
    <use xlink:href="#arrow" transform="translate(332.5 105.802)" />
    <text text-anchor="middle" fill="black" font-size="15" x="68.875" y="126.802">S01</text>
  </a>
  <a xlink:href="2.html" id="a1">
    <path id="a1" fill="none" stroke="blue" stroke-width="2" d="M 0 142.661 L 137.75 142.661 " />
    <use xlink:href="#arrow" transform="translate(121.75 136.661)" />
    <text text-anchor="middle" fill="black" font-size="15" x="68.875" y="157.661">S02</text>
  </a>
  <a xlink:href="3.html" id="a2">
    <path id="a2" fill="none" stroke="blue" stroke-width="2" d="M 0 255.24 L 560.25 255.24 L 560.25 145.135 L 586.25 145.135 " />
    <use xlink:href="#arrow" transform="translate(570.25 139.135)" />
    <text text-anchor="middle" fill="black" font-size="15" x="68.875" y="270.24">S09</text>
  </a>
  <a xlink:href="4.html" id="a3">
    <path id="a3" fill="none" stroke="blue" stroke-width="2" d="M 428.5 91.8021 L 586.25 91.8021 " />
    <use xlink:href="#arrow" transform="translate(592.25 107.802) rotate(270 0.0 0.0)" />
    <text text-anchor="middle" fill="black" font-size="15" x="497.375" y="106.802">S05</text>
  </a>
  <a xlink:href="5.html" id="a4">
    <path id="a4" fill="none" stroke="blue" stroke-width="2" d="M 666.25 88.4688 L 692.25 88.4688 L 692.25 41.7344 L 814 41.7344 " />
    <use xlink:href="#arrow" transform="translate(798 35.7344)" />
    <text text-anchor="middle" fill="black" font-size="15" x="745.125" y="56.7344">S06</text>
  </a>
  <a xlink:href="6.html" id="a5">
    <path id="a5" fill="none" stroke="blue" stroke-width="2" d="M 666.25 108.469 L 1008.75 108.469 L 1008.75 268.458 L 1044.75 268.458 " />
    <use xlink:href="#arrow" transform="translate(1028.75 262.458)" />
    <text text-anchor="middle" fill="black" font-size="15" x="745.125" y="123.469">S11</text>
  </a>
  <a xlink:href="7.html" id="a6">
    <path id="a6" fill="none" stroke="blue" stroke-width="2" d="M 666.25 128.469 L 692.25 128.469 L 692.25 343.454 L 1242.5 343.454 " />
    <use xlink:href="#arrow" transform="translate(1226.5 337.454)" />
    <text text-anchor="middle" fill="black" font-size="15" x="1173.62" y="358.454">S12</text>
  </a>
  <a xlink:href="8.html" id="a7">
    <path id="a7" fill="none" stroke="blue" stroke-width="2" d="M 586.25 118.469 L 550.25 118.469 L 550.25 183.469 L 1130.75 183.469 L 1130.75 268.458 L 1104.75 268.458 " />
    <use xlink:href="#arrow" transform="translate(570.25 112.469)" />
    <text text-anchor="middle" fill="black" font-size="15" x="745.125" y="198.469">S03</text>
  </a>
  <a xlink:href="9.html" id="a8">
    <path id="a8" fill="none" stroke="blue" stroke-width="2" d="M 887 20.8672 L 1018.75 20.8672 L 1018.75 218.465 L 1044.75 218.465 " />
    <use xlink:href="#arrow" transform="translate(1028.75 212.465)" />
    <text text-anchor="middle" fill="black" font-size="15" x="955.875" y="35.8672">S07</text>
  </a>
  <a xlink:href="10.html" id="a9">
    <path id="a9" fill="none" stroke="blue" stroke-width="2" d="M 887 62.6016 L 913 62.6016 L 913 45.8672 L 998.75 45.8672 L 998.75 318.454 L 1242.5 318.454 " />
    <use xlink:href="#arrow" transform="translate(1226.5 312.454)" />
    <text text-anchor="middle" fill="black" font-size="15" x="1173.62" y="333.454">S08</text>
  </a>
  <a xlink:href="11.html" id="a10">
    <path id="a10" fill="none" stroke="blue" stroke-width="2" d="M 210.75 163.521 L 322.5 163.521 L 322.5 71.8021 L 348.5 71.8021 " />
    <use xlink:href="#arrow" transform="translate(332.5 65.8021)" />
    <text text-anchor="middle" fill="black" font-size="15" x="279.625" y="178.521">S04</text>
  </a>
  <a xlink:href="12.html" id="a11">
    <path id="a11" fill="none" stroke="blue" stroke-width="2" d="M 137.75 184.38 L 111.75 184.38 L 111.75 230.24 L 540.25 230.24 L 540.25 68.4688 L 702.25 68.4688 L 702.25 148.469 L 666.25 148.469 " />
    <use xlink:href="#arrow" transform="translate(121.75 178.38)" />
    <text text-anchor="middle" fill="black" font-size="15" x="279.625" y="245.24">S10</text>
  </a>
  <a xlink:href="13.html" id="a12">
    <path id="a12" fill="none" stroke="blue" stroke-width="2" d="M 1104.75 218.465 L 1242.5 218.465 " />
    <use xlink:href="#arrow" transform="translate(1226.5 212.465)" />
    <text text-anchor="middle" fill="black" font-size="15" x="1173.62" y="233.465">S13</text>
  </a>
  <a xlink:href="14.html" id="a13">
    <rect id="a13" stroke="black" stroke-width="0.5" fill="none" x="348.5" y="51.8021" width="80" height="80" />
    <image x="348.5" y="51.8021" width="80" height="80" xlink:href="b14d48e0-1285-11e4-9191-0800200c9a66/FlowSheet.svg" />
    <text text-anchor="middle" fill="black" font-size="15" x="388.5" y="146.802">OC</text>
  </a>
  <a xlink:href="15.html" id="a14">
    <rect id="a14" stroke="black" stroke-width="0.5" fill="none" x="586.25" y="78.4688" width="80" height="80" />
    <image x="586.25" y="78.4688" width="80" height="80" xlink:href="b14d48e0-1285-11e4-9191-0800200c9a66/FlowSheet.svg" />
    <text text-anchor="middle" fill="black" font-size="15" x="626.25" y="173.469">FC</text>
  </a>
  <a xlink:href="16.html" id="a15">
    <rect id="a15" stroke="black" stroke-width="0.5" fill="none" x="814" y="0" width="73" height="83.4688" />
    <image x="814" y="0" width="73" height="83.4688" xlink:href="b14d48e0-1285-11e4-9191-0800200c9a66/Divider.svg" />
    <text text-anchor="middle" fill="black" font-size="15" x="850.5" y="98.4688">SPLIT</text>
  </a>
  <a xlink:href="17.html" id="a16">
    <rect id="a16" stroke="black" stroke-width="0.5" fill="none" x="137.75" y="121.802" width="73" height="83.4375" />
    <image x="137.75" y="121.802" width="73" height="83.4375" xlink:href="b14d48e0-1285-11e4-9191-0800200c9a66/Mixer.svg" />
    <text text-anchor="middle" fill="black" font-size="15" x="174.25" y="220.24">MIX</text>
  </a>
  <a xlink:href="18.html" id="a17">
    <rect id="a17" stroke="black" stroke-width="0.5" fill="none" x="1044.75" y="193.469" width="60" height="99.9857" />
    <image x="1044.75" y="193.469" width="60" height="99.9857" xlink:href="b14d48e0-1285-11e4-9191-0800200c9a66/Separator.svg" />
    <text text-anchor="middle" fill="black" font-size="15" x="1074.75" y="308.454">SC</text>
  </a>
</svg>
