<?xml version="1.0" encoding="UTF-8"?>
<!DOCTYPE svg PUBLIC "-//W3C//DTD SVG 1.1 Tiny//EN" "http://www.w3.org/Graphics/SVG/1.1/DTD/svg11-tiny.dtd">
<svg version="1.1" baseProfile="tiny" xmlns="http://www.w3.org/2000/svg" xmlns:xlink="http://www.w3.org/1999/xlink" width="745.5" height="516" viewBox="-20 -20 745.5 516" >
  <defs>
    <path id="arrow" stroke-width="0" d="M 0 0 L 0 12 L 16 6 Z" />
  </defs>
  <rect fill="transparent" stroke="none" x="-20" y="-20" width="745.5" height="516" />
  <a xlink:href="58.html" id="a0">
    <path id="a0" fill="none" stroke="blue" stroke-width="2" d="M 0 0 L 179.5 0 L 179.5 35 " />
    <use xlink:href="#arrow" transform="translate(185.5 19) rotate(90 0.0 0.0)" />
    <text text-anchor="middle" fill="black" font-size="15" x="82" y="15">S01</text>
  </a>
  <a xlink:href="60.html" id="a1">
    <path id="a1" fill="none" stroke="blue" stroke-width="2" d="M 0 25 L 210.5 25 L 210.5 35 " />
    <use xlink:href="#arrow" transform="translate(216.5 19) rotate(90 0.0 0.0)" />
    <text text-anchor="middle" fill="black" font-size="15" x="82" y="40">S02</text>
  </a>
  <a xlink:href="62.html" id="a2">
    <path id="a2" fill="none" stroke="blue" stroke-width="2" d="M 112 187.5 L 309 187.5 L 309 197.5 " />
    <use xlink:href="#arrow" transform="translate(315 181.5) rotate(90 0.0 0.0)" />
    <text text-anchor="middle" fill="black" font-size="15" x="195" y="202.5">S05</text>
  </a>
  <a xlink:href="68.html" id="a3">
    <path id="a3" fill="none" stroke="blue" stroke-width="2" d="M 52 187.5 L 26 187.5 L 26 350 L 451.75 350 L 451.75 0 L 593.75 0 L 593.75 375 L 567.75 375 " />
    <use xlink:href="#arrow" transform="translate(36 181.5)" />
    <text text-anchor="middle" fill="black" font-size="15" x="195" y="365">S09</text>
  </a>
  <a xlink:href="66.html" id="a4">
    <path id="a4" fill="none" stroke="blue" stroke-width="2" d="M 195 116.5 L 195 162.5 L 461.75 162.5 L 461.75 375 L 487.75 375 " />
    <use xlink:href="#arrow" transform="translate(471.75 369)" />
    <text text-anchor="middle" fill="black" font-size="15" x="309" y="177.5">S07</text>
  </a>
  <a xlink:href="64.html" id="a5">
    <path id="a5" fill="none" stroke="blue" stroke-width="2" d="M 309 279 L 309 325 L 527.75 325 L 527.75 335 " />
    <use xlink:href="#arrow" transform="translate(533.75 319) rotate(90 0.0 0.0)" />
    <text text-anchor="middle" fill="black" font-size="15" x="408.875" y="340">S06</text>
  </a>
  <a xlink:href="70.html" id="a6">
    <path id="a6" fill="none" stroke="blue" stroke-width="2" d="M 527.75 415 L 527.75 461 L 705.5 461 " />
    <use xlink:href="#arrow" transform="translate(689.5 455)" />
    <text text-anchor="middle" fill="black" font-size="15" x="636.625" y="476">S11</text>
  </a>
  <a xlink:href="49.html" id="a7">
    <rect id="a7" stroke="black" stroke-width="0.5" fill="none" x="278" y="197.5" width="62" height="81.5" />
    <image x="278" y="197.5" width="62" height="81.5" xlink:href="b14d48e0-1285-11e4-9191-0800200c9a66/Compressor.svg" />
    <text text-anchor="middle" fill="black" font-size="15" x="309" y="315">T</text>
  </a>
  <a xlink:href="50.html" id="a8">
    <rect id="a8" stroke="black" stroke-width="0.5" fill="none" x="164" y="35" width="62" height="81.5" />
    <image x="164" y="35" width="62" height="81.5" xlink:href="b14d48e0-1285-11e4-9191-0800200c9a66/Compressor.svg" />
    <text text-anchor="middle" fill="black" font-size="15" x="195" y="152.5">C</text>
  </a>
  <a xlink:href="51.html" id="a9">
    <rect id="a9" stroke="black" stroke-width="0.5" fill="none" x="52" y="137.507" width="60" height="99.9857" />
    <image x="52" y="137.507" width="60" height="99.9857" xlink:href="b14d48e0-1285-11e4-9191-0800200c9a66/FlashDrum.svg" />
    <text text-anchor="middle" fill="black" font-size="15" x="82" y="252.493">RX</text>
  </a>
  <a xlink:href="57.html" id="a10">
    <rect id="a10" stroke="black" stroke-width="0.5" fill="none" x="487.75" y="335" width="80" height="80" />
    <image x="487.75" y="335" width="80" height="80" xlink:href="b14d48e0-1285-11e4-9191-0800200c9a66/Exchanger.svg" />
    <text text-anchor="middle" fill="black" font-size="15" x="527.75" y="451">HX</text>
  </a>
</svg>
