<?xml version="1.0" encoding="UTF-8" standalone="no"?>
<svg xmlns="http://www.w3.org/2000/svg" xmlns:xlink="http://www.w3.org/1999/xlink" baseProfile="tiny" height="516" width="745.5" version="1.1" viewBox="-20 -20 745.5 516">
  <defs>
    <path id="arrow" stroke-width="0" d="m0 0v12l16-6z"/>
  </defs>
  <rect y="-20" width="745.5" fill="transparent" x="-20" height="516"/>
  <a id="a0" xlink:href="0.html">
    <path id="a0" stroke="blue" stroke-width="2" fill="none" d="m0 0h179.5v35"/>
    <use xlink:href="#arrow" transform="translate(185.5 19) rotate(90)"/>
    <text y="15" x="82" font-size="15" text-anchor="middle" fill="black">S01</text>
  </a>
  <a id="a1" xlink:href="2.html">
    <path id="a1" stroke="blue" stroke-width="2" fill="none" d="m0 25h210.5v10"/>
    <use xlink:href="#arrow" transform="translate(216.5 19) rotate(90)"/>
    <text y="40" x="82" font-size="15" text-anchor="middle" fill="black">S02</text>
  </a>
  <a id="a2" xlink:href="4.html">
    <path id="a2" stroke="blue" stroke-width="2" fill="none" d="m112 187.5h197v10"/>
    <use xlink:href="#arrow" transform="translate(315 181.5) rotate(90)"/>
    <text y="202.5" x="195" font-size="15" text-anchor="middle" fill="black">S05</text>
  </a>
  <a id="a3" xlink:href="0.html">
    <path id="a3" stroke="blue" stroke-width="2" fill="none" d="m52 187.5h-26v162.5h425.75v-350h142v375h-26"/>
    <use xlink:href="#arrow" transform="translate(36 181.5)"/>
    <text y="365" x="195" font-size="15" text-anchor="middle" fill="black">S09</text>
  </a>
  <a id="a4" xlink:href="5.html">
    <path id="a4" stroke="blue" stroke-width="2" fill="none" d="m195 116.5v46h266.75v212.5h26"/>
    <use xlink:href="#arrow" transform="translate(471.75 369)"/>
    <text y="177.5" x="309" font-size="15" text-anchor="middle" fill="black">S07</text>
  </a>
  <a id="a5" xlink:href="6.html">
    <path id="a5" stroke="blue" stroke-width="2" fill="none" d="m309 279v46h218.75v10"/>
    <use xlink:href="#arrow" transform="translate(533.75 319) rotate(90)"/>
    <text y="340" x="408.875" font-size="15" text-anchor="middle" fill="black">S06</text>
  </a>
  <a id="a6" xlink:href="2.html">
    <path id="a6" stroke="blue" stroke-width="2" fill="none" d="m527.75 415v46h177.75"/>
    <use xlink:href="#arrow" transform="translate(689.5 455)"/>
    <text y="476" x="636.625" font-size="15" text-anchor="middle" fill="black">S11</text>
  </a>
  <a id="a7" xlink:href="1.html">
    <rect id="a7" height="81.5" width="62" stroke="#000" y="197.5" x="278" stroke-width=".5" fill="none"/>
    <image y="197.5" x="278" xlink:href="b14d48e0-1285-11e4-9191-0800200c9a66/Compressor.svg" width="62" height="81.5"/>
    <text y="315" x="309" font-size="15" text-anchor="middle" fill="black">T</text>
  </a>
  <a id="a8" xlink:href="2.html">
    <rect id="a8" height="81.5" width="62" stroke="#000" y="35" x="164" stroke-width=".5" fill="none"/>
    <image y="35" x="164" xlink:href="b14d48e0-1285-11e4-9191-0800200c9a66/Compressor.svg" width="62" height="81.5"/>
    <text y="152.5" x="195" font-size="15" text-anchor="middle" fill="black">C</text>
  </a>
  <a id="a9" xlink:href="3.html">
    <rect id="a9" height="99.986" width="60" stroke="#000" y="137.51" x="52" stroke-width=".5" fill="none"/>
    <image y="137.51" x="52" xlink:href="b14d48e0-1285-11e4-9191-0800200c9a66/FlashDrum.svg" width="60" height="99.986"/>
    <text y="252.493" x="82" font-size="15" text-anchor="middle" fill="black">RX</text>
  </a>
  <a id="a10" xlink:href="3.html">
    <rect id="a10" height="80" width="80" stroke="#000" y="335" x="487.75" stroke-width=".5" fill="none"/>
    <image y="335" x="487.75" xlink:href="b14d48e0-1285-11e4-9191-0800200c9a66/Exchanger.svg" width="80" height="80"/>
    <text y="451" x="527.75" font-size="15" text-anchor="middle" fill="black">HX</text>
  </a>
</svg>
