<?xml version="1.0" encoding="UTF-8" standalone="no"?>
<svg xmlns="http://www.w3.org/2000/svg" xmlns:xlink="http://www.w3.org/1999/xlink" baseProfile="tiny" height="675.38" width="1796" version="1.1" viewBox="-20 -20 1796 675.385">
  <defs>
    <path id="arrow" stroke-width="0" d="m0 0v12l16-6z"/>
  </defs>
  <rect y="-20" width="1796" fill="transparent" x="-20" height="675.38"/>
  <a id="a0" xlink:href="3.html">
    <path id="a0" stroke="blue" stroke-width="2" fill="none" d="m0 202.17h137.75"/>
    <use xlink:href="#arrow" transform="translate(121.75 196.17)"/>
    <text y="217.173" x="68.875" font-size="15" text-anchor="middle" fill="black">S01</text>
  </a>
  <a id="a1" xlink:href="1.html">
    <path id="a1" stroke="blue" stroke-width="2" fill="none" d="m0 227.17h111.75v2.82h26"/>
    <use xlink:href="#arrow" transform="translate(121.75 223.99)"/>
    <text y="242.173" x="68.875" font-size="15" text-anchor="middle" fill="black">S02</text>
  </a>
  <a id="a2" xlink:href="6.html">
    <path id="a2" stroke="blue" stroke-width="2" fill="none" d="m0 532.81h137.75"/>
    <use xlink:href="#arrow" transform="translate(121.75 526.81)"/>
    <text y="547.807" x="68.875" font-size="15" text-anchor="middle" fill="black">S09</text>
  </a>
  <a id="a3" xlink:href="3.html">
    <path id="a3" stroke="blue" stroke-width="2" fill="none" d="m210.75 229.99h149"/>
    <use xlink:href="#arrow" transform="translate(343.75 223.99)"/>
    <text y="244.986" x="285.25" font-size="15" text-anchor="middle" fill="black">S05</text>
  </a>
  <a id="a4" xlink:href="5.html">
    <path id="a4" stroke="blue" stroke-width="2" fill="none" d="m137.75 257.8h-26v244.15h927.75v-335.96h135v72.6h-26"/>
    <use xlink:href="#arrow" transform="translate(121.75 251.8)"/>
    <text y="516.947" x="285.25" font-size="15" text-anchor="middle" fill="black">S03</text>
  </a>
  <a id="a5" xlink:href="1.html">
    <path id="a5" stroke="blue" stroke-width="2" fill="none" d="m682.5 154.99h194v10"/>
    <use xlink:href="#arrow" transform="translate(882.5 148.99) rotate(90)"/>
    <text y="169.986" x="762" font-size="15" text-anchor="middle" fill="black">S10</text>
  </a>
  <a id="a6" xlink:href="3.html">
    <path id="a6" stroke="blue" stroke-width="2" fill="none" d="m682.5 194.99h31v170.32h126.5"/>
    <use xlink:href="#arrow" transform="translate(824 359.31)"/>
    <text y="380.314" x="762" font-size="15" text-anchor="middle" fill="black">S11A</text>
  </a>
  <a id="a7" xlink:href="1.html">
    <path id="a7" stroke="blue" stroke-width="2" fill="none" d="m439.75 229.99h26v-100h105.75v-69.997h41"/>
    <use xlink:href="#arrow" transform="translate(596.5 53.993)"/>
    <text y="144.986" x="518.625" font-size="15" text-anchor="middle" fill="black">S06</text>
  </a>
  <a id="a8" xlink:href="3.html">
    <path id="a8" stroke="blue" stroke-width="2" fill="none" d="m916.5 204.99h133v12.73h26"/>
    <use xlink:href="#arrow" transform="translate(1059.5 211.72)"/>
    <text y="219.986" x="991" font-size="15" text-anchor="middle" fill="black">S19</text>
  </a>
  <a id="a9" xlink:href="1.html">
    <path id="a9" stroke="blue" stroke-width="2" fill="none" d="m836.5 204.99h-26v96h239v-16.54h232v-284.45h152v76.667h-36"/>
    <use xlink:href="#arrow" transform="translate(820.5 198.99)"/>
    <text y="315.986" x="991" font-size="15" text-anchor="middle" fill="black">S15</text>
  </a>
  <a id="a10" xlink:href="5.html">
    <path id="a10" stroke="blue" stroke-width="2" fill="none" d="m1397.5 23.333h147.7"/>
    <use xlink:href="#arrow" transform="translate(1551.2 7.3333) rotate(90)"/>
    <text y="38.3333" x="1476.38" font-size="15" text-anchor="middle" fill="black">S17</text>
  </a>
  <a id="a11" xlink:href="3.html">
    <path id="a11" stroke="blue" stroke-width="2" fill="none" d="m1397.5 50h26v60.91h332.5"/>
    <use xlink:href="#arrow" transform="translate(1740 104.91)"/>
    <text y="125.911" x="1687.12" font-size="15" text-anchor="middle" fill="black">S16</text>
  </a>
  <a id="a12" xlink:href="6.html">
    <path id="a12" stroke="blue" stroke-width="2" fill="none" d="m1618.2 44.193h137.8"/>
    <use xlink:href="#arrow" transform="translate(1740 38.193)"/>
    <text y="59.1927" x="1687.12" font-size="15" text-anchor="middle" fill="black">S18</text>
  </a>
  <a id="a13" xlink:href="6.html">
    <path id="a13" stroke="blue" stroke-width="2" fill="none" d="m1148.5 196.85h607.5"/>
    <use xlink:href="#arrow" transform="translate(1740 190.85)"/>
    <text y="211.853" x="1687.12" font-size="15" text-anchor="middle" fill="black">S04</text>
  </a>
  <a id="a14" xlink:href="3.html">
    <path id="a14" stroke="blue" stroke-width="2" fill="none" d="m210.75 553.67h350.75v-358.68h41"/>
    <use xlink:href="#arrow" transform="translate(586.5 188.99)"/>
    <text y="568.666" x="285.25" font-size="15" text-anchor="middle" fill="black">S09A</text>
  </a>
  <a id="a15" xlink:href="3.html">
    <path id="a15" stroke="blue" stroke-width="2" fill="none" d="m137.75 574.52h-26v45.86h1159.8l-0.1-138.43h86v-46"/>
    <use xlink:href="#arrow" transform="translate(121.75 568.52)"/>
    <text y="635.385" x="285.25" font-size="15" text-anchor="middle" fill="black">S11D</text>
  </a>
  <a id="a16" xlink:href="5.html">
    <path id="a16" stroke="blue" stroke-width="2" fill="none" d="m913 344.45h169"/>
    <use xlink:href="#arrow" transform="translate(1066 338.45)"/>
    <text y="359.447" x="991" font-size="15" text-anchor="middle" fill="black">S11B</text>
  </a>
  <a id="a17" xlink:href="1.html">
    <path id="a17" stroke="blue" stroke-width="2" fill="none" d="m913 386.18h29.5v105.77h813.5"/>
    <use xlink:href="#arrow" transform="translate(1740 485.95)"/>
    <text y="506.947" x="1687.12" font-size="15" text-anchor="middle" fill="black">S11</text>
  </a>
  <a id="a18" xlink:href="6.html">
    <path id="a18" stroke="blue" stroke-width="2" fill="none" d="m1142 344.45h215.5v10"/>
    <use xlink:href="#arrow" transform="translate(1363.5 338.45) rotate(90)"/>
    <text y="359.447" x="1223" font-size="15" text-anchor="middle" fill="black">S11C</text>
  </a>
  <a id="a19" xlink:href="3.html">
    <path id="a19" stroke="blue" stroke-width="2" fill="none" d="m399.75 189.99v-10h161.75v-179.99l152 1.4211e-14v59.993h-41"/>
    <use xlink:href="#arrow" transform="translate(405.75 173.99) rotate(90)"/>
    <text y="194.986" x="518.625" font-size="15" text-anchor="middle" fill="black">S07</text>
  </a>
  <a id="a20" xlink:href="5.html">
    <path id="a20" stroke="blue" stroke-width="2" fill="none" d="m399.75 269.99v46h76v-161h126.75"/>
    <use xlink:href="#arrow" transform="translate(586.5 148.99)"/>
    <text y="169.986" x="518.625" font-size="15" text-anchor="middle" fill="black">S08</text>
  </a>
  <a id="a21" xlink:href="3.html">
    <path id="a21" stroke="blue" stroke-width="2" fill="none" d="m876.5 244.99v46h66v-231l139.5 0.003"/>
    <use xlink:href="#arrow" transform="translate(1066 53.993)"/>
    <text y="74.9928" x="991" font-size="15" text-anchor="middle" fill="black">S12</text>
  </a>
  <a id="a22" xlink:href="6.html">
    <path id="a22" stroke="blue" stroke-width="2" fill="none" d="m1112 10v-10h159.5v50h46"/>
    <use xlink:href="#arrow" transform="translate(1301.5 44)"/>
    <text y="15" x="1223" font-size="15" text-anchor="middle" fill="black">S13</text>
  </a>
  <a id="a23" xlink:href="3.html">
    <path id="a23" stroke="blue" stroke-width="2" fill="none" d="m1112 109.99v46h179.5v-35.08h227.7v-55.858h26"/>
    <use xlink:href="#arrow" transform="translate(1529.2 59.052)"/>
    <text y="170.986" x="1223" font-size="15" text-anchor="middle" fill="black">S14</text>
  </a>
  <a id="a24" xlink:href="3.html">
    <rect id="a24" height="83.438" width="73" stroke="#000" y="188.27" x="137.75" stroke-width=".5" fill="none"/>
    <image y="188.27" x="137.75" xlink:href="b14d48e0-1285-11e4-9191-0800200c9a66/Mixer.svg" width="73" height="83.438"/>
    <text y="286.704" x="174.25" font-size="15" text-anchor="middle" fill="black">MIX1</text>
  </a>
  <a id="a25" xlink:href="3.html">
    <rect id="a25" height="80" width="80" stroke="#000" y="134.99" x="602.5" stroke-width=".5" fill="none"/>
    <image y="134.99" x="602.5" xlink:href="b14d48e0-1285-11e4-9191-0800200c9a66/FuelCell.svg" width="80" height="80"/>
    <text y="229.986" x="642.5" font-size="15" text-anchor="middle" fill="black">STACKS</text>
  </a>
  <a id="a26" xlink:href="5.html">
    <rect id="a26" height="99.986" width="60" stroke="#000" y="10" x="612.5" stroke-width=".5" fill="none"/>
    <image y="10" x="612.5" xlink:href="b14d48e0-1285-11e4-9191-0800200c9a66/FlashDrum.svg" width="60" height="99.986"/>
    <text y="124.986" x="642.5" font-size="15" text-anchor="middle" fill="black">REFORMER</text>
  </a>
  <a id="a27" xlink:href="3.html">
    <rect id="a27" height="80" width="80" stroke="#000" y="189.99" x="359.75" stroke-width=".5" fill="none"/>
    <image y="189.99" x="359.75" xlink:href="b14d48e0-1285-11e4-9191-0800200c9a66/Exchanger.svg" width="80" height="80"/>
    <text y="305.986" x="399.75" font-size="15" text-anchor="middle" fill="black">REGHEX</text>
  </a>
  <a id="a28" xlink:href="4.html">
    <rect id="a28" height="80" width="80" stroke="#000" y="164.99" x="836.5" stroke-width=".5" fill="none"/>
    <image y="164.99" x="836.5" xlink:href="b14d48e0-1285-11e4-9191-0800200c9a66/Exchanger.svg" width="80" height="80"/>
    <text y="280.986" x="876.5" font-size="15" text-anchor="middle" fill="black">COND</text>
  </a>
  <a id="a29" xlink:href="5.html">
    <rect id="a29" height="99.986" width="60" stroke="#000" y="10" x="1082" stroke-width=".5" fill="none"/>
    <image y="10" x="1082" xlink:href="b14d48e0-1285-11e4-9191-0800200c9a66/FlashDrum.svg" width="60" height="99.986"/>
    <text y="145.986" x="1112" font-size="15" text-anchor="middle" fill="black">SEP</text>
  </a>
  <a id="a30" xlink:href="3.html">
    <rect id="a30" height="80" width="80" stroke="#000" y="10" x="1317.5" stroke-width=".5" fill="none"/>
    <image y="10" x="1317.5" xlink:href="b14d48e0-1285-11e4-9191-0800200c9a66/FlowSheet.svg" width="80" height="80"/>
    <text y="105" x="1357.5" font-size="15" text-anchor="middle" fill="black">MM</text>
  </a>
  <a id="a31" xlink:href="3.html">
    <rect id="a31" height="83.438" width="73" stroke="#000" y="2.474" x="1545.2" stroke-width=".5" fill="none"/>
    <image y="2.474" x="1545.2" xlink:href="b14d48e0-1285-11e4-9191-0800200c9a66/Mixer.svg" width="73" height="83.438"/>
    <text y="100.911" x="1581.75" font-size="15" text-anchor="middle" fill="black">MIX2</text>
  </a>
  <a id="a32" xlink:href="3.html">
    <rect id="a32" height="83.469" width="73" stroke="#000" y="175.99" x="1075.5" stroke-width=".5" fill="none"/>
    <image y="175.99" x="1075.5" xlink:href="b14d48e0-1285-11e4-9191-0800200c9a66/Divider.svg" width="73" height="83.469"/>
    <text y="274.454" x="1112" font-size="15" text-anchor="middle" fill="black">SPLIT1</text>
  </a>
  <a id="a33" xlink:href="4.html">
    <rect id="a33" height="83.438" width="73" stroke="#000" y="511.95" x="137.75" stroke-width=".5" fill="none"/>
    <image y="511.95" x="137.75" xlink:href="b14d48e0-1285-11e4-9191-0800200c9a66/Mixer.svg" width="73" height="83.438"/>
    <text y="610.385" x="174.25" font-size="15" text-anchor="middle" fill="black">MIX3</text>
  </a>
  <a id="a34" xlink:href="5.html">
    <rect id="a34" height="83.469" width="73" stroke="#000" y="323.58" x="840" stroke-width=".5" fill="none"/>
    <image y="323.58" x="840" xlink:href="b14d48e0-1285-11e4-9191-0800200c9a66/Divider.svg" width="73" height="83.469"/>
    <text y="422.049" x="876.5" font-size="15" text-anchor="middle" fill="black">SPLIT2</text>
  </a>
  <a id="a35" xlink:href="6.html">
    <rect id="a35" height="81.5" width="62" stroke="#000" y="354.45" x="1326.5" stroke-width=".5" fill="none"/>
    <image y="354.45" x="1326.5" xlink:href="b14d48e0-1285-11e4-9191-0800200c9a66/Compressor.svg" width="62" height="81.5"/>
    <text y="471.947" x="1357.5" font-size="15" text-anchor="middle" fill="black">BLOWER</text>
  </a>
  <a id="a36" xlink:href="6.html">
    <rect id="a36" height="99.986" width="60" stroke="#000" y="294.45" x="1082" stroke-width=".5" fill="none"/>
    <image y="294.45" x="1082" xlink:href="b14d48e0-1285-11e4-9191-0800200c9a66/FlashDrum.svg" width="60" height="99.986"/>
    <text y="409.44" x="1112" font-size="15" text-anchor="middle" fill="black">COOLER</text>
  </a>
</svg>
