<?xml version="1.0" encoding="UTF-8"?>
<!DOCTYPE svg PUBLIC "-//W3C//DTD SVG 1.1 Tiny//EN" "http://www.w3.org/Graphics/SVG/1.1/DTD/svg11-tiny.dtd">
<svg version="1.1" baseProfile="tiny" xmlns="http://www.w3.org/2000/svg" xmlns:xlink="http://www.w3.org/1999/xlink" width="1796" height="675.385" viewBox="-20 -20 1796 675.385" >
  <defs>
    <path id="arrow" stroke-width="0" d="M 0 0 L 0 12 L 16 6 Z" />
  </defs>
  <rect fill="transparent" stroke="none" x="-20" y="-20" width="1796" height="675.385" />
  <a xlink:href="349.html" id="a0">
    <path id="a0" fill="none" stroke="blue" stroke-width="2" d="M 0 202.173 L 137.75 202.173 " />
    <use xlink:href="#arrow" transform="translate(121.75 196.173)" />
    <text text-anchor="middle" fill="black" font-size="15" x="68.875" y="217.173">S01</text>
  </a>
  <a xlink:href="351.html" id="a1">
    <path id="a1" fill="none" stroke="blue" stroke-width="2" d="M 0 227.173 L 111.75 227.173 L 111.75 229.986 L 137.75 229.986 " />
    <use xlink:href="#arrow" transform="translate(121.75 223.986)" />
    <text text-anchor="middle" fill="black" font-size="15" x="68.875" y="242.173">S02</text>
  </a>
  <a xlink:href="367.html" id="a2">
    <path id="a2" fill="none" stroke="blue" stroke-width="2" d="M 0 532.807 L 137.75 532.807 " />
    <use xlink:href="#arrow" transform="translate(121.75 526.807)" />
    <text text-anchor="middle" fill="black" font-size="15" x="68.875" y="547.807">S09</text>
  </a>
  <a xlink:href="359.html" id="a3">
    <path id="a3" fill="none" stroke="blue" stroke-width="2" d="M 210.75 229.986 L 359.75 229.986 " />
    <use xlink:href="#arrow" transform="translate(343.75 223.986)" />
    <text text-anchor="middle" fill="black" font-size="15" x="285.25" y="244.986">S05</text>
  </a>
  <a xlink:href="355.html" id="a4">
    <path id="a4" fill="none" stroke="blue" stroke-width="2" d="M 137.75 257.798 L 111.75 257.798 L 111.75 501.947 L 1039.5 501.947 L 1039.5 165.986 L 1174.5 165.986 L 1174.5 238.587 L 1148.5 238.587 " />
    <use xlink:href="#arrow" transform="translate(121.75 251.798)" />
    <text text-anchor="middle" fill="black" font-size="15" x="285.25" y="516.947">S03</text>
  </a>
  <a xlink:href="371.html" id="a5">
    <path id="a5" fill="none" stroke="blue" stroke-width="2" d="M 682.5 154.986 L 876.5 154.986 L 876.5 164.986 " />
    <use xlink:href="#arrow" transform="translate(882.5 148.986) rotate(90 0.0 0.0)" />
    <text text-anchor="middle" fill="black" font-size="15" x="762" y="169.986">S10</text>
  </a>
  <a xlink:href="373.html" id="a6">
    <path id="a6" fill="none" stroke="blue" stroke-width="2" d="M 682.5 194.986 L 713.5 194.986 L 713.5 365.314 L 840 365.314 " />
    <use xlink:href="#arrow" transform="translate(824 359.314)" />
    <text text-anchor="middle" fill="black" font-size="15" x="762" y="380.314">S11A</text>
  </a>
  <a xlink:href="361.html" id="a7">
    <path id="a7" fill="none" stroke="blue" stroke-width="2" d="M 439.75 229.986 L 465.75 229.986 L 465.75 129.986 L 571.5 129.986 L 571.5 59.9928 L 612.5 59.9928 " />
    <use xlink:href="#arrow" transform="translate(596.5 53.9928)" />
    <text text-anchor="middle" fill="black" font-size="15" x="518.625" y="144.986">S06</text>
  </a>
  <a xlink:href="399.html" id="a8">
    <path id="a8" fill="none" stroke="blue" stroke-width="2" d="M 916.5 204.986 L 1049.5 204.986 L 1049.5 217.72 L 1075.5 217.72 " />
    <use xlink:href="#arrow" transform="translate(1059.5 211.72)" />
    <text text-anchor="middle" fill="black" font-size="15" x="991" y="219.986">S19</text>
  </a>
  <a xlink:href="391.html" id="a9">
    <path id="a9" fill="none" stroke="blue" stroke-width="2" d="M 836.5 204.986 L 810.5 204.986 L 810.5 300.986 L 1049.5 300.986 L 1049.5 284.454 L 1281.5 284.454 L 1281.5 0 L 1433.5 0 L 1433.5 76.6667 L 1397.5 76.6667 " />
    <use xlink:href="#arrow" transform="translate(820.5 198.986)" />
    <text text-anchor="middle" fill="black" font-size="15" x="991" y="315.986">S15</text>
  </a>
  <a xlink:href="395.html" id="a10">
    <path id="a10" fill="none" stroke="blue" stroke-width="2" d="M 1397.5 23.3333 L 1545.25 23.3333 " />
    <use xlink:href="#arrow" transform="translate(1551.25 7.33333) rotate(90 0.0 0.0)" />
    <text text-anchor="middle" fill="black" font-size="15" x="1476.38" y="38.3333">S17</text>
  </a>
  <a xlink:href="393.html" id="a11">
    <path id="a11" fill="none" stroke="blue" stroke-width="2" d="M 1397.5 50 L 1423.5 50 L 1423.5 110.911 L 1756 110.911 " />
    <use xlink:href="#arrow" transform="translate(1740 104.911)" />
    <text text-anchor="middle" fill="black" font-size="15" x="1687.12" y="125.911">S16</text>
  </a>
  <a xlink:href="397.html" id="a12">
    <path id="a12" fill="none" stroke="blue" stroke-width="2" d="M 1618.25 44.1927 L 1756 44.1927 " />
    <use xlink:href="#arrow" transform="translate(1740 38.1927)" />
    <text text-anchor="middle" fill="black" font-size="15" x="1687.12" y="59.1927">S18</text>
  </a>
  <a xlink:href="357.html" id="a13">
    <path id="a13" fill="none" stroke="blue" stroke-width="2" d="M 1148.5 196.853 L 1756 196.853 " />
    <use xlink:href="#arrow" transform="translate(1740 190.853)" />
    <text text-anchor="middle" fill="black" font-size="15" x="1687.12" y="211.853">S04</text>
  </a>
  <a xlink:href="369.html" id="a14">
    <path id="a14" fill="none" stroke="blue" stroke-width="2" d="M 210.75 553.666 L 561.5 553.666 L 561.5 194.986 L 602.5 194.986 " />
    <use xlink:href="#arrow" transform="translate(586.5 188.986)" />
    <text text-anchor="middle" fill="black" font-size="15" x="285.25" y="568.666">S09A</text>
  </a>
  <a xlink:href="379.html" id="a15">
    <path id="a15" fill="none" stroke="blue" stroke-width="2" d="M 137.75 574.525 L 111.75 574.525 L 111.75 620.385 L 1271.5 620.385 L 1271.5 481.947 L 1357.5 481.947 L 1357.5 435.947 " />
    <use xlink:href="#arrow" transform="translate(121.75 568.525)" />
    <text text-anchor="middle" fill="black" font-size="15" x="285.25" y="635.385">S11D</text>
  </a>
  <a xlink:href="375.html" id="a16">
    <path id="a16" fill="none" stroke="blue" stroke-width="2" d="M 913 344.447 L 1082 344.447 " />
    <use xlink:href="#arrow" transform="translate(1066 338.447)" />
    <text text-anchor="middle" fill="black" font-size="15" x="991" y="359.447">S11B</text>
  </a>
  <a xlink:href="381.html" id="a17">
    <path id="a17" fill="none" stroke="blue" stroke-width="2" d="M 913 386.182 L 942.5 386.182 L 942.5 491.947 L 1756 491.947 " />
    <use xlink:href="#arrow" transform="translate(1740 485.947)" />
    <text text-anchor="middle" fill="black" font-size="15" x="1687.12" y="506.947">S11</text>
  </a>
  <a xlink:href="377.html" id="a18">
    <path id="a18" fill="none" stroke="blue" stroke-width="2" d="M 1142 344.447 L 1357.5 344.447 L 1357.5 354.447 " />
    <use xlink:href="#arrow" transform="translate(1363.5 338.447) rotate(90 0.0 0.0)" />
    <text text-anchor="middle" fill="black" font-size="15" x="1223" y="359.447">S11C</text>
  </a>
  <a xlink:href="363.html" id="a19">
    <path id="a19" fill="none" stroke="blue" stroke-width="2" d="M 399.75 189.986 L 399.75 179.986 L 561.5 179.986 L 561.5 1.42109e-14 L 713.5 1.42109e-14 L 713.5 59.9928 L 672.5 59.9928 " />
    <use xlink:href="#arrow" transform="translate(405.75 173.986) rotate(90 0.0 0.0)" />
    <text text-anchor="middle" fill="black" font-size="15" x="518.625" y="194.986">S07</text>
  </a>
  <a xlink:href="365.html" id="a20">
    <path id="a20" fill="none" stroke="blue" stroke-width="2" d="M 399.75 269.986 L 399.75 315.986 L 475.75 315.986 L 475.75 154.986 L 602.5 154.986 " />
    <use xlink:href="#arrow" transform="translate(586.5 148.986)" />
    <text text-anchor="middle" fill="black" font-size="15" x="518.625" y="169.986">S08</text>
  </a>
  <a xlink:href="383.html" id="a21">
    <path id="a21" fill="none" stroke="blue" stroke-width="2" d="M 876.5 244.986 L 876.5 290.986 L 942.5 290.986 L 942.5 59.9928 L 1082 59.9928 " />
    <use xlink:href="#arrow" transform="translate(1066 53.9928)" />
    <text text-anchor="middle" fill="black" font-size="15" x="991" y="74.9928">S12</text>
  </a>
  <a xlink:href="387.html" id="a22">
    <path id="a22" fill="none" stroke="blue" stroke-width="2" d="M 1112 10 L 1112 0 L 1271.5 0 L 1271.5 50 L 1317.5 50 " />
    <use xlink:href="#arrow" transform="translate(1301.5 44)" />
    <text text-anchor="middle" fill="black" font-size="15" x="1223" y="15">S13</text>
  </a>
  <a xlink:href="389.html" id="a23">
    <path id="a23" fill="none" stroke="blue" stroke-width="2" d="M 1112 109.986 L 1112 155.986 L 1291.5 155.986 L 1291.5 120.911 L 1519.25 120.911 L 1519.25 65.0521 L 1545.25 65.0521 " />
    <use xlink:href="#arrow" transform="translate(1529.25 59.0521)" />
    <text text-anchor="middle" fill="black" font-size="15" x="1223" y="170.986">S14</text>
  </a>
  <a xlink:href="72.html" id="a24">
    <rect id="a24" stroke="black" stroke-width="0.5" fill="none" x="137.75" y="188.267" width="73" height="83.4375" />
    <image x="137.75" y="188.267" width="73" height="83.4375" xlink:href="b14d48e0-1285-11e4-9191-0800200c9a66/Mixer.svg" />
    <text text-anchor="middle" fill="black" font-size="15" x="174.25" y="286.704">MIX1</text>
  </a>
  <a xlink:href="73.html" id="a25">
    <rect id="a25" stroke="black" stroke-width="0.5" fill="none" x="602.5" y="134.986" width="80" height="80" />
    <image x="602.5" y="134.986" width="80" height="80" xlink:href="b14d48e0-1285-11e4-9191-0800200c9a66/FuelCell.svg" />
    <text text-anchor="middle" fill="black" font-size="15" x="642.5" y="229.986">STACKS</text>
  </a>
  <a xlink:href="158.html" id="a26">
    <rect id="a26" stroke="black" stroke-width="0.5" fill="none" x="612.5" y="10" width="60" height="99.9857" />
    <image x="612.5" y="10" width="60" height="99.9857" xlink:href="b14d48e0-1285-11e4-9191-0800200c9a66/FlashDrum.svg" />
    <text text-anchor="middle" fill="black" font-size="15" x="642.5" y="124.986">REFORMER</text>
  </a>
  <a xlink:href="163.html" id="a27">
    <rect id="a27" stroke="black" stroke-width="0.5" fill="none" x="359.75" y="189.986" width="80" height="80" />
    <image x="359.75" y="189.986" width="80" height="80" xlink:href="b14d48e0-1285-11e4-9191-0800200c9a66/Exchanger.svg" />
    <text text-anchor="middle" fill="black" font-size="15" x="399.75" y="305.986">REGHEX</text>
  </a>
  <a xlink:href="164.html" id="a28">
    <rect id="a28" stroke="black" stroke-width="0.5" fill="none" x="836.5" y="164.986" width="80" height="80" />
    <image x="836.5" y="164.986" width="80" height="80" xlink:href="b14d48e0-1285-11e4-9191-0800200c9a66/Exchanger.svg" />
    <text text-anchor="middle" fill="black" font-size="15" x="876.5" y="280.986">COND</text>
  </a>
  <a xlink:href="165.html" id="a29">
    <rect id="a29" stroke="black" stroke-width="0.5" fill="none" x="1082" y="10" width="60" height="99.9857" />
    <image x="1082" y="10" width="60" height="99.9857" xlink:href="b14d48e0-1285-11e4-9191-0800200c9a66/FlashDrum.svg" />
    <text text-anchor="middle" fill="black" font-size="15" x="1112" y="145.986">SEP</text>
  </a>
  <a xlink:href="172.html" id="a30">
    <rect id="a30" stroke="black" stroke-width="0.5" fill="none" x="1317.5" y="10" width="80" height="80" />
    <image x="1317.5" y="10" width="80" height="80" xlink:href="b14d48e0-1285-11e4-9191-0800200c9a66/FlowSheet.svg" />
    <text text-anchor="middle" fill="black" font-size="15" x="1357.5" y="105">MM</text>
  </a>
  <a xlink:href="342.html" id="a31">
    <rect id="a31" stroke="black" stroke-width="0.5" fill="none" x="1545.25" y="2.47396" width="73" height="83.4375" />
    <image x="1545.25" y="2.47396" width="73" height="83.4375" xlink:href="b14d48e0-1285-11e4-9191-0800200c9a66/Mixer.svg" />
    <text text-anchor="middle" fill="black" font-size="15" x="1581.75" y="100.911">MIX2</text>
  </a>
  <a xlink:href="343.html" id="a32">
    <rect id="a32" stroke="black" stroke-width="0.5" fill="none" x="1075.5" y="175.986" width="73" height="83.4688" />
    <image x="1075.5" y="175.986" width="73" height="83.4688" xlink:href="b14d48e0-1285-11e4-9191-0800200c9a66/Divider.svg" />
    <text text-anchor="middle" fill="black" font-size="15" x="1112" y="274.454">SPLIT1</text>
  </a>
  <a xlink:href="344.html" id="a33">
    <rect id="a33" stroke="black" stroke-width="0.5" fill="none" x="137.75" y="511.947" width="73" height="83.4375" />
    <image x="137.75" y="511.947" width="73" height="83.4375" xlink:href="b14d48e0-1285-11e4-9191-0800200c9a66/Mixer.svg" />
    <text text-anchor="middle" fill="black" font-size="15" x="174.25" y="610.385">MIX3</text>
  </a>
  <a xlink:href="345.html" id="a34">
    <rect id="a34" stroke="black" stroke-width="0.5" fill="none" x="840" y="323.58" width="73" height="83.4688" />
    <image x="840" y="323.58" width="73" height="83.4688" xlink:href="b14d48e0-1285-11e4-9191-0800200c9a66/Divider.svg" />
    <text text-anchor="middle" fill="black" font-size="15" x="876.5" y="422.049">SPLIT2</text>
  </a>
  <a xlink:href="346.html" id="a35">
    <rect id="a35" stroke="black" stroke-width="0.5" fill="none" x="1326.5" y="354.447" width="62" height="81.5" />
    <image x="1326.5" y="354.447" width="62" height="81.5" xlink:href="b14d48e0-1285-11e4-9191-0800200c9a66/Compressor.svg" />
    <text text-anchor="middle" fill="black" font-size="15" x="1357.5" y="471.947">BLOWER</text>
  </a>
  <a xlink:href="347.html" id="a36">
    <rect id="a36" stroke="black" stroke-width="0.5" fill="none" x="1082" y="294.454" width="60" height="99.9857" />
    <image x="1082" y="294.454" width="60" height="99.9857" xlink:href="b14d48e0-1285-11e4-9191-0800200c9a66/FlashDrum.svg" />
    <text text-anchor="middle" fill="black" font-size="15" x="1112" y="409.44">COOLER</text>
  </a>
</svg>
