<?xml version="1.0" encoding="UTF-8" standalone="no"?>
<svg xmlns="http://www.w3.org/2000/svg" xmlns:xlink="http://www.w3.org/1999/xlink" baseProfile="tiny" height="183.47" width="1012.2" version="1.1" viewBox="-20 -20 1012.25 183.469">
  <defs>
    <path id="arrow" stroke-width="0" d="m0 0v12l16-6z"/>
  </defs>
  <rect y="-20" width="1012.2" fill="transparent" x="-20" height="183.47"/>
  <a id="a0" xlink:href="5.html">
    <path id="a0" stroke="blue" stroke-width="2" fill="none" d="m0 32.616h137.75"/>
    <use xlink:href="#arrow" transform="translate(121.75 26.616)"/>
    <text y="47.6165" x="68.875" font-size="15" text-anchor="middle" fill="black">S01</text>
  </a>
  <a id="a1" xlink:href="5.html">
    <path id="a1" stroke="blue" stroke-width="2" fill="none" d="m210.75 53.476h137.75"/>
    <use xlink:href="#arrow" transform="translate(332.5 47.476)"/>
    <text y="68.4759" x="279.625" font-size="15" text-anchor="middle" fill="black">S02</text>
  </a>
  <a id="a2" xlink:href="0.html">
    <path id="a2" stroke="blue" stroke-width="2" fill="none" d="m137.75 74.335h-26v54.135h613.75v-128.47h135v72.602h-26"/>
    <use xlink:href="#arrow" transform="translate(121.75 68.335)"/>
    <text y="143.469" x="279.625" font-size="15" text-anchor="middle" fill="black">S06</text>
  </a>
  <a id="a3" xlink:href="1.html">
    <path id="a3" stroke="blue" stroke-width="2" fill="none" d="m408.5 53.476h141.5"/>
    <use xlink:href="#arrow" transform="translate(534 47.476)"/>
    <text y="68.4759" x="477.375" font-size="15" text-anchor="middle" fill="black">S03</text>
  </a>
  <a id="a4" xlink:href="6.html">
    <path id="a4" stroke="blue" stroke-width="2" fill="none" d="m610 28.48h125.5v23.254h26"/>
    <use xlink:href="#arrow" transform="translate(745.5 45.734)"/>
    <text y="43.4795" x="682.625" font-size="15" text-anchor="middle" fill="black">S05</text>
  </a>
  <a id="a5" xlink:href="5.html">
    <path id="a5" stroke="blue" stroke-width="2" fill="none" d="m610 78.472h29.75v39.998h332.5"/>
    <use xlink:href="#arrow" transform="translate(956.25 112.47)"/>
    <text y="133.469" x="903.375" font-size="15" text-anchor="middle" fill="black">S04</text>
  </a>
  <a id="a6" xlink:href="3.html">
    <path id="a6" stroke="blue" stroke-width="2" fill="none" d="m834.5 30.867h137.75"/>
    <use xlink:href="#arrow" transform="translate(956.25 24.867)"/>
    <text y="45.8672" x="903.375" font-size="15" text-anchor="middle" fill="black">S07</text>
  </a>
  <a id="a7" xlink:href="3.html">
    <rect id="a7" height="83.438" width="73" stroke="#000" y="11.757" x="137.75" stroke-width=".5" fill="none"/>
    <image y="11.757" x="137.75" xlink:href="b14d48e0-1285-11e4-9191-0800200c9a66/Mixer.svg" width="73" height="83.438"/>
    <text y="110.195" x="174.25" font-size="15" text-anchor="middle" fill="black">MIX</text>
  </a>
  <a id="a8" xlink:href="0.html">
    <rect id="a8" height="99.986" width="60" stroke="#000" y="3.483" x="348.5" stroke-width=".5" fill="none"/>
    <image y="3.483" x="348.5" xlink:href="b14d48e0-1285-11e4-9191-0800200c9a66/FlashDrum.svg" width="60" height="99.986"/>
    <text y="118.469" x="378.5" font-size="15" text-anchor="middle" fill="black">RX</text>
  </a>
  <a id="a9" xlink:href="3.html">
    <rect id="a9" height="99.986" width="60" stroke="#000" y="3.483" x="550" stroke-width=".5" fill="none"/>
    <image y="3.483" x="550" xlink:href="b14d48e0-1285-11e4-9191-0800200c9a66/Separator.svg" width="60" height="99.986"/>
    <text y="118.469" x="580" font-size="15" text-anchor="middle" fill="black">FILTER</text>
  </a>
  <a id="a10" xlink:href="5.html">
    <rect id="a10" height="83.469" width="73" stroke="#000" y="10" x="761.5" stroke-width=".5" fill="none"/>
    <image y="10" x="761.5" xlink:href="b14d48e0-1285-11e4-9191-0800200c9a66/Divider.svg" width="73" height="83.469"/>
    <text y="108.469" x="798" font-size="15" text-anchor="middle" fill="black">SPL</text>
  </a>
</svg>
