<?xml version="1.0" encoding="UTF-8"?>
<!DOCTYPE svg PUBLIC "-//W3C//DTD SVG 1.1 Tiny//EN" "http://www.w3.org/Graphics/SVG/1.1/DTD/svg11-tiny.dtd">
<svg version="1.1" baseProfile="tiny" xmlns="http://www.w3.org/2000/svg" xmlns:xlink="http://www.w3.org/1999/xlink" width="817" height="276.203" viewBox="-20 -20 817 276.203" >
  <defs>
    <path id="arrow" stroke-width="0" d="M 0 0 L 0 12 L 16 6 Z" />
  </defs>
  <rect fill="transparent" stroke="none" x="-20" y="-20" width="817" height="276.203" />
  <a xlink:href="76.html" id="a0">
    <path id="a0" fill="none" stroke="blue" stroke-width="2" d="M 0 41.7344 L 126.5 41.7344 " />
    <use xlink:href="#arrow" transform="translate(110.5 35.7344)" />
    <text text-anchor="middle" fill="black" font-size="15" x="63.25" y="56.7344">FA</text>
  </a>
  <a xlink:href="80.html" id="a1">
    <path id="a1" fill="none" stroke="blue" stroke-width="2" d="M 0 150.203 L 126.5 150.203 " />
    <use xlink:href="#arrow" transform="translate(110.5 144.203)" />
    <text text-anchor="middle" fill="black" font-size="15" x="63.25" y="165.203">FB</text>
  </a>
  <a xlink:href="72.html" id="a2">
    <path id="a2" fill="none" stroke="blue" stroke-width="2" d="M 439.75 150.203 L 588.75 150.203 " />
    <use xlink:href="#arrow" transform="translate(572.75 144.203)" />
    <text text-anchor="middle" fill="black" font-size="15" x="514.25" y="165.203">B[0]</text>
  </a>
  <a xlink:href="70.html" id="a3">
    <path id="a3" fill="none" stroke="blue" stroke-width="2" d="M 199.5 41.7344 L 399.75 41.7344 L 399.75 110.203 " />
    <use xlink:href="#arrow" transform="translate(405.75 94.2031) rotate(90 0.0 0.0)" />
    <text text-anchor="middle" fill="black" font-size="15" x="279.625" y="56.7344">FA[0]</text>
  </a>
  <a xlink:href="78.html" id="a4">
    <path id="a4" fill="none" stroke="blue" stroke-width="2" d="M 661.75 41.7188 L 777 41.7188 " />
    <use xlink:href="#arrow" transform="translate(761 35.7188)" />
    <text text-anchor="middle" fill="black" font-size="15" x="719.375" y="56.7188">A</text>
  </a>
  <a xlink:href="74.html" id="a5">
    <path id="a5" fill="none" stroke="blue" stroke-width="2" d="M 199.5 150.203 L 359.75 150.203 " />
    <use xlink:href="#arrow" transform="translate(343.75 144.203)" />
    <text text-anchor="middle" fill="black" font-size="15" x="279.625" y="165.203">FB[0]</text>
  </a>
  <a xlink:href="82.html" id="a6">
    <path id="a6" fill="none" stroke="blue" stroke-width="2" d="M 661.75 150.203 L 777 150.203 " />
    <use xlink:href="#arrow" transform="translate(761 144.203)" />
    <text text-anchor="middle" fill="black" font-size="15" x="719.375" y="165.203">B</text>
  </a>
  <a xlink:href="68.html" id="a7">
    <path id="a7" fill="none" stroke="blue" stroke-width="2" d="M 399.75 190.203 L 399.75 236.203 L 465.75 236.203 L 465.75 41.7188 L 588.75 41.7188 " />
    <use xlink:href="#arrow" transform="translate(572.75 35.7188)" />
    <text text-anchor="middle" fill="black" font-size="15" x="514.25" y="56.7188">A[0]</text>
  </a>
  <a xlink:href="58.html" id="a8">
    <rect id="a8" stroke="black" stroke-width="0.5" fill="none" x="359.75" y="110.203" width="80" height="80" />
    <image x="359.75" y="110.203" width="80" height="80" xlink:href="b14d48e0-1285-11e4-9191-0800200c9a66/Exchanger.svg" />
    <text text-anchor="middle" fill="black" font-size="15" x="399.75" y="226.203">S[0][0]</text>
  </a>
  <a xlink:href="64.html" id="a9">
    <rect id="a9" stroke="black" stroke-width="0.5" fill="none" x="126.5" y="0" width="73" height="83.4688" />
    <image x="126.5" y="0" width="73" height="83.4688" xlink:href="b14d48e0-1285-11e4-9191-0800200c9a66/Divider.svg" />
    <text text-anchor="middle" fill="black" font-size="15" x="163" y="98.4688">SPLITA</text>
  </a>
  <a xlink:href="65.html" id="a10">
    <rect id="a10" stroke="black" stroke-width="0.5" fill="none" x="588.75" y="0" width="73" height="83.4375" />
    <image x="588.75" y="0" width="73" height="83.4375" xlink:href="b14d48e0-1285-11e4-9191-0800200c9a66/Mixer.svg" />
    <text text-anchor="middle" fill="black" font-size="15" x="625.25" y="98.4375">MIXA</text>
  </a>
  <a xlink:href="66.html" id="a11">
    <rect id="a11" stroke="black" stroke-width="0.5" fill="none" x="126.5" y="108.469" width="73" height="83.4688" />
    <image x="126.5" y="108.469" width="73" height="83.4688" xlink:href="b14d48e0-1285-11e4-9191-0800200c9a66/Divider.svg" />
    <text text-anchor="middle" fill="black" font-size="15" x="163" y="206.938">SPLITB</text>
  </a>
  <a xlink:href="67.html" id="a12">
    <rect id="a12" stroke="black" stroke-width="0.5" fill="none" x="588.75" y="108.484" width="73" height="83.4375" />
    <image x="588.75" y="108.484" width="73" height="83.4375" xlink:href="b14d48e0-1285-11e4-9191-0800200c9a66/Mixer.svg" />
    <text text-anchor="middle" fill="black" font-size="15" x="625.25" y="206.922">MIXB</text>
  </a>
</svg>
