<?xml version="1.0" encoding="UTF-8" standalone="no"?>
<svg xmlns="http://www.w3.org/2000/svg" xmlns:xlink="http://www.w3.org/1999/xlink" baseProfile="tiny" height="276.2" width="817" version="1.1" viewBox="-20 -20 817 276.203">
  <defs>
    <path id="arrow" stroke-width="0" d="m0 0v12l16-6z"/>
  </defs>
  <rect y="-20" width="817" fill="transparent" x="-20" height="276.2"/>
  <a id="a0" xlink:href="2.html">
    <path id="a0" stroke="blue" stroke-width="2" fill="none" d="m0 41.734h126.5"/>
    <use xlink:href="#arrow" transform="translate(110.5 35.734)"/>
    <text y="56.7344" x="63.25" font-size="15" text-anchor="middle" fill="black">FA</text>
  </a>
  <a id="a1" xlink:href="0.html">
    <path id="a1" stroke="blue" stroke-width="2" fill="none" d="m0 150.2h126.5"/>
    <use xlink:href="#arrow" transform="translate(110.5 144.2)"/>
    <text y="165.203" x="63.25" font-size="15" text-anchor="middle" fill="black">FB</text>
  </a>
  <a id="a2" xlink:href="2.html">
    <path id="a2" stroke="blue" stroke-width="2" fill="none" d="m439.75 150.2h149"/>
    <use xlink:href="#arrow" transform="translate(572.75 144.2)"/>
    <text y="165.203" x="514.25" font-size="15" text-anchor="middle" fill="black">B[0]</text>
  </a>
  <a id="a3" xlink:href="0.html">
    <path id="a3" stroke="blue" stroke-width="2" fill="none" d="m199.5 41.734h200.25v68.466"/>
    <use xlink:href="#arrow" transform="translate(405.75 94.203) rotate(90)"/>
    <text y="56.7344" x="279.625" font-size="15" text-anchor="middle" fill="black">FA[0]</text>
  </a>
  <a id="a4" xlink:href="5.html">
    <path id="a4" stroke="blue" stroke-width="2" fill="none" d="m661.75 41.719h115.25"/>
    <use xlink:href="#arrow" transform="translate(761 35.719)"/>
    <text y="56.7188" x="719.375" font-size="15" text-anchor="middle" fill="black">A</text>
  </a>
  <a id="a5" xlink:href="4.html">
    <path id="a5" stroke="blue" stroke-width="2" fill="none" d="m199.5 150.2h160.25"/>
    <use xlink:href="#arrow" transform="translate(343.75 144.2)"/>
    <text y="165.203" x="279.625" font-size="15" text-anchor="middle" fill="black">FB[0]</text>
  </a>
  <a id="a6" xlink:href="2.html">
    <path id="a6" stroke="blue" stroke-width="2" fill="none" d="m661.75 150.2h115.25"/>
    <use xlink:href="#arrow" transform="translate(761 144.2)"/>
    <text y="165.203" x="719.375" font-size="15" text-anchor="middle" fill="black">B</text>
  </a>
  <a id="a7" xlink:href="5.html">
    <path id="a7" stroke="blue" stroke-width="2" fill="none" d="m399.75 190.2v46h66v-194.48l123-0.001"/>
    <use xlink:href="#arrow" transform="translate(572.75 35.719)"/>
    <text y="56.7188" x="514.25" font-size="15" text-anchor="middle" fill="black">A[0]</text>
  </a>
  <a id="a8" xlink:href="5.html">
    <rect id="a8" height="80" width="80" stroke="#000" y="110.2" x="359.75" stroke-width=".5" fill="none"/>
    <image y="110.2" x="359.75" xlink:href="b14d48e0-1285-11e4-9191-0800200c9a66/Exchanger.svg" width="80" height="80"/>
    <text y="226.203" x="399.75" font-size="15" text-anchor="middle" fill="black">S[0][0]</text>
  </a>
  <a id="a9" xlink:href="4.html">
    <rect id="a9" height="83.469" width="73" stroke="#000" y="0" x="126.5" stroke-width=".5" fill="none"/>
    <image y="0" x="126.5" xlink:href="b14d48e0-1285-11e4-9191-0800200c9a66/Divider.svg" width="73" height="83.469"/>
    <text y="98.4688" x="163" font-size="15" text-anchor="middle" fill="black">SPLITA</text>
  </a>
  <a id="a10" xlink:href="5.html">
    <rect id="a10" height="83.438" width="73" stroke="#000" y="0" x="588.75" stroke-width=".5" fill="none"/>
    <image y="0" x="588.75" xlink:href="b14d48e0-1285-11e4-9191-0800200c9a66/Mixer.svg" width="73" height="83.438"/>
    <text y="98.4375" x="625.25" font-size="15" text-anchor="middle" fill="black">MIXA</text>
  </a>
  <a id="a11" xlink:href="2.html">
    <rect id="a11" height="83.469" width="73" stroke="#000" y="108.47" x="126.5" stroke-width=".5" fill="none"/>
    <image y="108.47" x="126.5" xlink:href="b14d48e0-1285-11e4-9191-0800200c9a66/Divider.svg" width="73" height="83.469"/>
    <text y="206.938" x="163" font-size="15" text-anchor="middle" fill="black">SPLITB</text>
  </a>
  <a id="a12" xlink:href="2.html">
    <rect id="a12" height="83.438" width="73" stroke="#000" y="108.48" x="588.75" stroke-width=".5" fill="none"/>
    <image y="108.48" x="588.75" xlink:href="b14d48e0-1285-11e4-9191-0800200c9a66/Mixer.svg" width="73" height="83.438"/>
    <text y="206.922" x="625.25" font-size="15" text-anchor="middle" fill="black">MIXB</text>
  </a>
</svg>
