<?xml version="1.0" encoding="UTF-8"?>
<!DOCTYPE svg PUBLIC "-//W3C//DTD SVG 1.1 Tiny//EN" "http://www.w3.org/Graphics/SVG/1.1/DTD/svg11-tiny.dtd">
<svg version="1.1" baseProfile="tiny" xmlns="http://www.w3.org/2000/svg" xmlns:xlink="http://www.w3.org/1999/xlink" width="3029" height="1499" viewBox="-20 -20 3029 1499" >
  <defs>
    <path id="arrow" stroke-width="0" d="M 0 0 L 0 12 L 16 6 Z" />
  </defs>
  <rect fill="transparent" stroke="none" x="-20" y="-20" width="3029" height="1499" />
  <a xlink:href="315.html" id="a0">
    <path id="a0" fill="none" stroke="blue" stroke-width="2" d="M 0 811.699 L 126.5 811.699 " />
    <use xlink:href="#arrow" transform="translate(110.5 805.699)" />
    <text text-anchor="middle" fill="black" font-size="15" x="63.25" y="826.699">FA</text>
  </a>
  <a xlink:href="319.html" id="a1">
    <path id="a1" fill="none" stroke="blue" stroke-width="2" d="M 0 1338.22 L 126.5 1338.22 " />
    <use xlink:href="#arrow" transform="translate(110.5 1332.22)" />
    <text text-anchor="middle" fill="black" font-size="15" x="63.25" y="1353.22">FB</text>
  </a>
  <a xlink:href="255.html" id="a2">
    <path id="a2" fill="none" stroke="blue" stroke-width="2" d="M 1268 530 L 2764.75 530 L 2764.75 310.188 L 2800.75 310.188 " />
    <use xlink:href="#arrow" transform="translate(2784.75 304.188)" />
    <text text-anchor="middle" fill="black" font-size="15" x="1359.38" y="545">B[0]</text>
  </a>
  <a xlink:href="257.html" id="a3">
    <path id="a3" fill="none" stroke="blue" stroke-width="2" d="M 1005.25 651 L 1162 651 L 1162 530 L 1188 530 " />
    <use xlink:href="#arrow" transform="translate(1172 524)" />
    <text text-anchor="middle" fill="black" font-size="15" x="1096.62" y="666">B[0][1]</text>
  </a>
  <a xlink:href="259.html" id="a4">
    <path id="a4" fill="none" stroke="blue" stroke-width="2" d="M 742.5 772 L 899.25 772 L 899.25 651 L 925.25 651 " />
    <use xlink:href="#arrow" transform="translate(909.25 645)" />
    <text text-anchor="middle" fill="black" font-size="15" x="833.875" y="787">B[0][2]</text>
  </a>
  <a xlink:href="261.html" id="a5">
    <path id="a5" fill="none" stroke="blue" stroke-width="2" d="M 479.75 893 L 636.5 893 L 636.5 772 L 662.5 772 " />
    <use xlink:href="#arrow" transform="translate(646.5 766)" />
    <text text-anchor="middle" fill="black" font-size="15" x="571.125" y="908">B[0][3]</text>
  </a>
  <a xlink:href="265.html" id="a6">
    <path id="a6" fill="none" stroke="blue" stroke-width="2" d="M 1530.75 434 L 2774.75 434 L 2774.75 324.094 L 2800.75 324.094 " />
    <use xlink:href="#arrow" transform="translate(2784.75 318.094)" />
    <text text-anchor="middle" fill="black" font-size="15" x="1622.12" y="449">B[1]</text>
  </a>
  <a xlink:href="267.html" id="a7">
    <path id="a7" fill="none" stroke="blue" stroke-width="2" d="M 1268 747 L 1424.75 747 L 1424.75 434 L 1450.75 434 " />
    <use xlink:href="#arrow" transform="translate(1434.75 428)" />
    <text text-anchor="middle" fill="black" font-size="15" x="1359.38" y="762">B[1][1]</text>
  </a>
  <a xlink:href="269.html" id="a8">
    <path id="a8" fill="none" stroke="blue" stroke-width="2" d="M 1005.25 868 L 1162 868 L 1162 747 L 1188 747 " />
    <use xlink:href="#arrow" transform="translate(1172 741)" />
    <text text-anchor="middle" fill="black" font-size="15" x="1096.62" y="883">B[1][2]</text>
  </a>
  <a xlink:href="271.html" id="a9">
    <path id="a9" fill="none" stroke="blue" stroke-width="2" d="M 742.5 989 L 899.25 989 L 899.25 868 L 925.25 868 " />
    <use xlink:href="#arrow" transform="translate(909.25 862)" />
    <text text-anchor="middle" fill="black" font-size="15" x="833.875" y="1004">B[1][3]</text>
  </a>
  <a xlink:href="275.html" id="a10">
    <path id="a10" fill="none" stroke="blue" stroke-width="2" d="M 1793.5 338 L 2800.75 338 " />
    <use xlink:href="#arrow" transform="translate(2784.75 332)" />
    <text text-anchor="middle" fill="black" font-size="15" x="1884.88" y="353">B[2]</text>
  </a>
  <a xlink:href="277.html" id="a11">
    <path id="a11" fill="none" stroke="blue" stroke-width="2" d="M 1530.75 843 L 1687.5 843 L 1687.5 338 L 1713.5 338 " />
    <use xlink:href="#arrow" transform="translate(1697.5 332)" />
    <text text-anchor="middle" fill="black" font-size="15" x="1622.12" y="858">B[2][1]</text>
  </a>
  <a xlink:href="279.html" id="a12">
    <path id="a12" fill="none" stroke="blue" stroke-width="2" d="M 1268 964 L 1424.75 964 L 1424.75 843 L 1450.75 843 " />
    <use xlink:href="#arrow" transform="translate(1434.75 837)" />
    <text text-anchor="middle" fill="black" font-size="15" x="1359.38" y="979">B[2][2]</text>
  </a>
  <a xlink:href="281.html" id="a13">
    <path id="a13" fill="none" stroke="blue" stroke-width="2" d="M 1005.25 1085 L 1162 1085 L 1162 964 L 1188 964 " />
    <use xlink:href="#arrow" transform="translate(1172 958)" />
    <text text-anchor="middle" fill="black" font-size="15" x="1096.62" y="1100">B[2][3]</text>
  </a>
  <a xlink:href="285.html" id="a14">
    <path id="a14" fill="none" stroke="blue" stroke-width="2" d="M 2056.25 242 L 2714.75 242 L 2714.75 351.906 L 2800.75 351.906 " />
    <use xlink:href="#arrow" transform="translate(2784.75 345.906)" />
    <text text-anchor="middle" fill="black" font-size="15" x="2147.62" y="257">B[3]</text>
  </a>
  <a xlink:href="287.html" id="a15">
    <path id="a15" fill="none" stroke="blue" stroke-width="2" d="M 1793.5 939 L 1950.25 939 L 1950.25 242 L 1976.25 242 " />
    <use xlink:href="#arrow" transform="translate(1960.25 236)" />
    <text text-anchor="middle" fill="black" font-size="15" x="1884.88" y="954">B[3][1]</text>
  </a>
  <a xlink:href="289.html" id="a16">
    <path id="a16" fill="none" stroke="blue" stroke-width="2" d="M 1530.75 1060 L 1687.5 1060 L 1687.5 939 L 1713.5 939 " />
    <use xlink:href="#arrow" transform="translate(1697.5 933)" />
    <text text-anchor="middle" fill="black" font-size="15" x="1622.12" y="1075">B[3][2]</text>
  </a>
  <a xlink:href="291.html" id="a17">
    <path id="a17" fill="none" stroke="blue" stroke-width="2" d="M 1268 1181 L 1424.75 1181 L 1424.75 1060 L 1450.75 1060 " />
    <use xlink:href="#arrow" transform="translate(1434.75 1054)" />
    <text text-anchor="middle" fill="black" font-size="15" x="1359.38" y="1196">B[3][3]</text>
  </a>
  <a xlink:href="295.html" id="a18">
    <path id="a18" fill="none" stroke="blue" stroke-width="2" d="M 2319 146 L 2704.75 146 L 2704.75 365.812 L 2800.75 365.812 " />
    <use xlink:href="#arrow" transform="translate(2784.75 359.812)" />
    <text text-anchor="middle" fill="black" font-size="15" x="2410.38" y="161">B[4]</text>
  </a>
  <a xlink:href="297.html" id="a19">
    <path id="a19" fill="none" stroke="blue" stroke-width="2" d="M 2056.25 1035 L 2213 1035 L 2213 146 L 2239 146 " />
    <use xlink:href="#arrow" transform="translate(2223 140)" />
    <text text-anchor="middle" fill="black" font-size="15" x="2147.62" y="1050">B[4][1]</text>
  </a>
  <a xlink:href="299.html" id="a20">
    <path id="a20" fill="none" stroke="blue" stroke-width="2" d="M 1793.5 1156 L 1950.25 1156 L 1950.25 1035 L 1976.25 1035 " />
    <use xlink:href="#arrow" transform="translate(1960.25 1029)" />
    <text text-anchor="middle" fill="black" font-size="15" x="1884.88" y="1171">B[4][2]</text>
  </a>
  <a xlink:href="301.html" id="a21">
    <path id="a21" fill="none" stroke="blue" stroke-width="2" d="M 1530.75 1277 L 1687.5 1277 L 1687.5 1156 L 1713.5 1156 " />
    <use xlink:href="#arrow" transform="translate(1697.5 1150)" />
    <text text-anchor="middle" fill="black" font-size="15" x="1622.12" y="1292">B[4][3]</text>
  </a>
  <a xlink:href="305.html" id="a22">
    <path id="a22" fill="none" stroke="blue" stroke-width="2" d="M 2581.75 50 L 2744.75 50 L 2744.75 296.281 L 2800.75 296.281 " />
    <use xlink:href="#arrow" transform="translate(2784.75 290.281)" />
    <text text-anchor="middle" fill="black" font-size="15" x="2656.25" y="65">B[5]</text>
  </a>
  <a xlink:href="307.html" id="a23">
    <path id="a23" fill="none" stroke="blue" stroke-width="2" d="M 2319 1131 L 2475.75 1131 L 2475.75 50 L 2501.75 50 " />
    <use xlink:href="#arrow" transform="translate(2485.75 44)" />
    <text text-anchor="middle" fill="black" font-size="15" x="2410.38" y="1146">B[5][1]</text>
  </a>
  <a xlink:href="309.html" id="a24">
    <path id="a24" fill="none" stroke="blue" stroke-width="2" d="M 2056.25 1252 L 2213 1252 L 2213 1131 L 2239 1131 " />
    <use xlink:href="#arrow" transform="translate(2223 1125)" />
    <text text-anchor="middle" fill="black" font-size="15" x="2147.62" y="1267">B[5][2]</text>
  </a>
  <a xlink:href="311.html" id="a25">
    <path id="a25" fill="none" stroke="blue" stroke-width="2" d="M 1793.5 1373 L 1950.25 1373 L 1950.25 1252 L 1976.25 1252 " />
    <use xlink:href="#arrow" transform="translate(1960.25 1246)" />
    <text text-anchor="middle" fill="black" font-size="15" x="1884.88" y="1388">B[5][3]</text>
  </a>
  <a xlink:href="201.html" id="a26">
    <path id="a26" fill="none" stroke="blue" stroke-width="2" d="M 199.5 780.398 L 225.5 780.398 L 225.5 480 L 1228 480 L 1228 490 " />
    <use xlink:href="#arrow" transform="translate(1234 474) rotate(90 0.0 0.0)" />
    <text text-anchor="middle" fill="black" font-size="15" x="319.625" y="495">FA[0]</text>
  </a>
  <a xlink:href="205.html" id="a27">
    <path id="a27" fill="none" stroke="blue" stroke-width="2" d="M 199.5 801.266 L 235.5 801.266 L 235.5 601 L 965.25 601 L 965.25 611 " />
    <use xlink:href="#arrow" transform="translate(971.25 595) rotate(90 0.0 0.0)" />
    <text text-anchor="middle" fill="black" font-size="15" x="319.625" y="616">FA[1]</text>
  </a>
  <a xlink:href="209.html" id="a28">
    <path id="a28" fill="none" stroke="blue" stroke-width="2" d="M 199.5 822.133 L 245.5 822.133 L 245.5 722 L 702.5 722 L 702.5 732 " />
    <use xlink:href="#arrow" transform="translate(708.5 716) rotate(90 0.0 0.0)" />
    <text text-anchor="middle" fill="black" font-size="15" x="319.625" y="737">FA[2]</text>
  </a>
  <a xlink:href="213.html" id="a29">
    <path id="a29" fill="none" stroke="blue" stroke-width="2" d="M 199.5 843 L 439.75 843 L 439.75 853 " />
    <use xlink:href="#arrow" transform="translate(445.75 837) rotate(90 0.0 0.0)" />
    <text text-anchor="middle" fill="black" font-size="15" x="319.625" y="858">FA[3]</text>
  </a>
  <a xlink:href="317.html" id="a30">
    <path id="a30" fill="none" stroke="blue" stroke-width="2" d="M 2873.75 222.609 L 2989 222.609 " />
    <use xlink:href="#arrow" transform="translate(2973 216.609)" />
    <text text-anchor="middle" fill="black" font-size="15" x="2931.38" y="237.609">A</text>
  </a>
  <a xlink:href="263.html" id="a31">
    <path id="a31" fill="none" stroke="blue" stroke-width="2" d="M 199.5 1303.44 L 225.5 1303.44 L 225.5 893 L 399.75 893 " />
    <use xlink:href="#arrow" transform="translate(383.75 887)" />
    <text text-anchor="middle" fill="black" font-size="15" x="319.625" y="908">FB[0]</text>
  </a>
  <a xlink:href="273.html" id="a32">
    <path id="a32" fill="none" stroke="blue" stroke-width="2" d="M 199.5 1317.35 L 235.5 1317.35 L 235.5 989 L 662.5 989 " />
    <use xlink:href="#arrow" transform="translate(646.5 983)" />
    <text text-anchor="middle" fill="black" font-size="15" x="319.625" y="1004">FB[1]</text>
  </a>
  <a xlink:href="283.html" id="a33">
    <path id="a33" fill="none" stroke="blue" stroke-width="2" d="M 199.5 1331.27 L 245.5 1331.27 L 245.5 1085 L 925.25 1085 " />
    <use xlink:href="#arrow" transform="translate(909.25 1079)" />
    <text text-anchor="middle" fill="black" font-size="15" x="319.625" y="1100">FB[2]</text>
  </a>
  <a xlink:href="293.html" id="a34">
    <path id="a34" fill="none" stroke="blue" stroke-width="2" d="M 199.5 1345.18 L 255.5 1345.18 L 255.5 1181 L 1188 1181 " />
    <use xlink:href="#arrow" transform="translate(1172 1175)" />
    <text text-anchor="middle" fill="black" font-size="15" x="319.625" y="1196">FB[3]</text>
  </a>
  <a xlink:href="303.html" id="a35">
    <path id="a35" fill="none" stroke="blue" stroke-width="2" d="M 199.5 1359.09 L 265.5 1359.09 L 265.5 1277 L 1450.75 1277 " />
    <use xlink:href="#arrow" transform="translate(1434.75 1271)" />
    <text text-anchor="middle" fill="black" font-size="15" x="319.625" y="1292">FB[4]</text>
  </a>
  <a xlink:href="313.html" id="a36">
    <path id="a36" fill="none" stroke="blue" stroke-width="2" d="M 199.5 1373 L 1713.5 1373 " />
    <use xlink:href="#arrow" transform="translate(1697.5 1367)" />
    <text text-anchor="middle" fill="black" font-size="15" x="319.625" y="1388">FB[5]</text>
  </a>
  <a xlink:href="321.html" id="a37">
    <path id="a37" fill="none" stroke="blue" stroke-width="2" d="M 2873.75 331.047 L 2989 331.047 " />
    <use xlink:href="#arrow" transform="translate(2973 325.047)" />
    <text text-anchor="middle" fill="black" font-size="15" x="2931.38" y="346.047">B</text>
  </a>
  <a xlink:href="211.html" id="a38">
    <path id="a38" fill="none" stroke="blue" stroke-width="2" d="M 439.75 933 L 439.75 979 L 505.75 979 L 505.75 868 L 702.5 868 L 702.5 949 " />
    <use xlink:href="#arrow" transform="translate(708.5 933) rotate(90 0.0 0.0)" />
    <text text-anchor="middle" fill="black" font-size="15" x="571.125" y="883">A[0][3]</text>
  </a>
  <a xlink:href="207.html" id="a39">
    <path id="a39" fill="none" stroke="blue" stroke-width="2" d="M 702.5 812 L 702.5 858 L 768.5 858 L 768.5 747 L 965.25 747 L 965.25 828 " />
    <use xlink:href="#arrow" transform="translate(971.25 812) rotate(90 0.0 0.0)" />
    <text text-anchor="middle" fill="black" font-size="15" x="833.875" y="762">A[0][2]</text>
  </a>
  <a xlink:href="221.html" id="a40">
    <path id="a40" fill="none" stroke="blue" stroke-width="2" d="M 702.5 1029 L 702.5 1075 L 768.5 1075 L 768.5 964 L 965.25 964 L 965.25 1045 " />
    <use xlink:href="#arrow" transform="translate(971.25 1029) rotate(90 0.0 0.0)" />
    <text text-anchor="middle" fill="black" font-size="15" x="833.875" y="979">A[1][3]</text>
  </a>
  <a xlink:href="203.html" id="a41">
    <path id="a41" fill="none" stroke="blue" stroke-width="2" d="M 965.25 691 L 965.25 737 L 1031.25 737 L 1031.25 626 L 1228 626 L 1228 707 " />
    <use xlink:href="#arrow" transform="translate(1234 691) rotate(90 0.0 0.0)" />
    <text text-anchor="middle" fill="black" font-size="15" x="1096.62" y="641">A[0][1]</text>
  </a>
  <a xlink:href="219.html" id="a42">
    <path id="a42" fill="none" stroke="blue" stroke-width="2" d="M 965.25 908 L 965.25 954 L 1031.25 954 L 1031.25 843 L 1228 843 L 1228 924 " />
    <use xlink:href="#arrow" transform="translate(1234 908) rotate(90 0.0 0.0)" />
    <text text-anchor="middle" fill="black" font-size="15" x="1096.62" y="858">A[1][2]</text>
  </a>
  <a xlink:href="229.html" id="a43">
    <path id="a43" fill="none" stroke="blue" stroke-width="2" d="M 965.25 1125 L 965.25 1171 L 1031.25 1171 L 1031.25 1060 L 1228 1060 L 1228 1141 " />
    <use xlink:href="#arrow" transform="translate(1234 1125) rotate(90 0.0 0.0)" />
    <text text-anchor="middle" fill="black" font-size="15" x="1096.62" y="1075">A[2][3]</text>
  </a>
  <a xlink:href="199.html" id="a44">
    <path id="a44" fill="none" stroke="blue" stroke-width="2" d="M 1228 570 L 1228 616 L 1294 616 L 1294 384 L 1490.75 384 L 1490.75 394 " />
    <use xlink:href="#arrow" transform="translate(1496.75 378) rotate(90 0.0 0.0)" />
    <text text-anchor="middle" fill="black" font-size="15" x="1359.38" y="399">A[0][0]</text>
  </a>
  <a xlink:href="217.html" id="a45">
    <path id="a45" fill="none" stroke="blue" stroke-width="2" d="M 1228 787 L 1228 833 L 1294 833 L 1294 722 L 1490.75 722 L 1490.75 803 " />
    <use xlink:href="#arrow" transform="translate(1496.75 787) rotate(90 0.0 0.0)" />
    <text text-anchor="middle" fill="black" font-size="15" x="1359.38" y="737">A[1][1]</text>
  </a>
  <a xlink:href="227.html" id="a46">
    <path id="a46" fill="none" stroke="blue" stroke-width="2" d="M 1228 1004 L 1228 1050 L 1294 1050 L 1294 939 L 1490.75 939 L 1490.75 1020 " />
    <use xlink:href="#arrow" transform="translate(1496.75 1004) rotate(90 0.0 0.0)" />
    <text text-anchor="middle" fill="black" font-size="15" x="1359.38" y="954">A[2][2]</text>
  </a>
  <a xlink:href="237.html" id="a47">
    <path id="a47" fill="none" stroke="blue" stroke-width="2" d="M 1228 1221 L 1228 1267 L 1294 1267 L 1294 1156 L 1490.75 1156 L 1490.75 1237 " />
    <use xlink:href="#arrow" transform="translate(1496.75 1221) rotate(90 0.0 0.0)" />
    <text text-anchor="middle" fill="black" font-size="15" x="1359.38" y="1171">A[3][3]</text>
  </a>
  <a xlink:href="215.html" id="a48">
    <path id="a48" fill="none" stroke="blue" stroke-width="2" d="M 1490.75 474 L 1490.75 520 L 1556.75 520 L 1556.75 288 L 1753.5 288 L 1753.5 298 " />
    <use xlink:href="#arrow" transform="translate(1759.5 282) rotate(90 0.0 0.0)" />
    <text text-anchor="middle" fill="black" font-size="15" x="1622.12" y="303">A[1][0]</text>
  </a>
  <a xlink:href="225.html" id="a49">
    <path id="a49" fill="none" stroke="blue" stroke-width="2" d="M 1490.75 883 L 1490.75 929 L 1556.75 929 L 1556.75 818 L 1753.5 818 L 1753.5 899 " />
    <use xlink:href="#arrow" transform="translate(1759.5 883) rotate(90 0.0 0.0)" />
    <text text-anchor="middle" fill="black" font-size="15" x="1622.12" y="833">A[2][1]</text>
  </a>
  <a xlink:href="235.html" id="a50">
    <path id="a50" fill="none" stroke="blue" stroke-width="2" d="M 1490.75 1100 L 1490.75 1146 L 1556.75 1146 L 1556.75 1035 L 1753.5 1035 L 1753.5 1116 " />
    <use xlink:href="#arrow" transform="translate(1759.5 1100) rotate(90 0.0 0.0)" />
    <text text-anchor="middle" fill="black" font-size="15" x="1622.12" y="1050">A[3][2]</text>
  </a>
  <a xlink:href="245.html" id="a51">
    <path id="a51" fill="none" stroke="blue" stroke-width="2" d="M 1490.75 1317 L 1490.75 1363 L 1556.75 1363 L 1556.75 1252 L 1753.5 1252 L 1753.5 1333 " />
    <use xlink:href="#arrow" transform="translate(1759.5 1317) rotate(90 0.0 0.0)" />
    <text text-anchor="middle" fill="black" font-size="15" x="1622.12" y="1267">A[4][3]</text>
  </a>
  <a xlink:href="223.html" id="a52">
    <path id="a52" fill="none" stroke="blue" stroke-width="2" d="M 1753.5 378 L 1753.5 424 L 1819.5 424 L 1819.5 192 L 2016.25 192 L 2016.25 202 " />
    <use xlink:href="#arrow" transform="translate(2022.25 186) rotate(90 0.0 0.0)" />
    <text text-anchor="middle" fill="black" font-size="15" x="1884.88" y="207">A[2][0]</text>
  </a>
  <a xlink:href="233.html" id="a53">
    <path id="a53" fill="none" stroke="blue" stroke-width="2" d="M 1753.5 979 L 1753.5 1025 L 1819.5 1025 L 1819.5 914 L 2016.25 914 L 2016.25 995 " />
    <use xlink:href="#arrow" transform="translate(2022.25 979) rotate(90 0.0 0.0)" />
    <text text-anchor="middle" fill="black" font-size="15" x="1884.88" y="929">A[3][1]</text>
  </a>
  <a xlink:href="243.html" id="a54">
    <path id="a54" fill="none" stroke="blue" stroke-width="2" d="M 1753.5 1196 L 1753.5 1242 L 1819.5 1242 L 1819.5 1131 L 2016.25 1131 L 2016.25 1212 " />
    <use xlink:href="#arrow" transform="translate(2022.25 1196) rotate(90 0.0 0.0)" />
    <text text-anchor="middle" fill="black" font-size="15" x="1884.88" y="1146">A[4][2]</text>
  </a>
  <a xlink:href="253.html" id="a55">
    <path id="a55" fill="none" stroke="blue" stroke-width="2" d="M 1753.5 1413 L 1753.5 1459 L 1819.5 1459 L 1819.5 1348 L 2754.75 1348 L 2754.75 253.898 L 2800.75 253.898 " />
    <use xlink:href="#arrow" transform="translate(2784.75 247.898)" />
    <text text-anchor="middle" fill="black" font-size="15" x="1884.88" y="1363">A[3]</text>
  </a>
  <a xlink:href="231.html" id="a56">
    <path id="a56" fill="none" stroke="blue" stroke-width="2" d="M 2016.25 282 L 2016.25 328 L 2082.25 328 L 2082.25 96 L 2279 96 L 2279 106 " />
    <use xlink:href="#arrow" transform="translate(2285 90) rotate(90 0.0 0.0)" />
    <text text-anchor="middle" fill="black" font-size="15" x="2147.62" y="111">A[3][0]</text>
  </a>
  <a xlink:href="241.html" id="a57">
    <path id="a57" fill="none" stroke="blue" stroke-width="2" d="M 2016.25 1075 L 2016.25 1121 L 2082.25 1121 L 2082.25 1010 L 2279 1010 L 2279 1091 " />
    <use xlink:href="#arrow" transform="translate(2285 1075) rotate(90 0.0 0.0)" />
    <text text-anchor="middle" fill="black" font-size="15" x="2147.62" y="1025">A[4][1]</text>
  </a>
  <a xlink:href="251.html" id="a58">
    <path id="a58" fill="none" stroke="blue" stroke-width="2" d="M 2016.25 1292 L 2016.25 1338 L 2082.25 1338 L 2082.25 1227 L 2734.75 1227 L 2734.75 233.039 L 2800.75 233.039 " />
    <use xlink:href="#arrow" transform="translate(2784.75 227.039)" />
    <text text-anchor="middle" fill="black" font-size="15" x="2147.62" y="1242">A[2]</text>
  </a>
  <a xlink:href="239.html" id="a59">
    <path id="a59" fill="none" stroke="blue" stroke-width="2" d="M 2279 186 L 2279 232 L 2345 232 L 2345 0 L 2541.75 0 L 2541.75 10 " />
    <use xlink:href="#arrow" transform="translate(2547.75 -6) rotate(90 0.0 0.0)" />
    <text text-anchor="middle" fill="black" font-size="15" x="2410.38" y="15">A[4][0]</text>
  </a>
  <a xlink:href="249.html" id="a60">
    <path id="a60" fill="none" stroke="blue" stroke-width="2" d="M 2279 1171 L 2279 1217 L 2345 1217 L 2345 1106 L 2724.75 1106 L 2724.75 212.18 L 2800.75 212.18 " />
    <use xlink:href="#arrow" transform="translate(2784.75 206.18)" />
    <text text-anchor="middle" fill="black" font-size="15" x="2410.38" y="1121">A[1]</text>
  </a>
  <a xlink:href="247.html" id="a61">
    <path id="a61" fill="none" stroke="blue" stroke-width="2" d="M 2541.75 90 L 2541.75 136 L 2607.75 136 L 2607.75 25 L 2754.75 25 L 2754.75 191.32 L 2800.75 191.32 " />
    <use xlink:href="#arrow" transform="translate(2784.75 185.32)" />
    <text text-anchor="middle" fill="black" font-size="15" x="2656.25" y="40">A[0]</text>
  </a>
  <a xlink:href="51.html" id="a62">
    <rect id="a62" stroke="black" stroke-width="0.5" fill="none" x="1188" y="490" width="80" height="80" />
    <image x="1188" y="490" width="80" height="80" xlink:href="b14d48e0-1285-11e4-9191-0800200c9a66/Exchanger.svg" />
    <text text-anchor="middle" fill="black" font-size="15" x="1228" y="606">S[0][0]</text>
  </a>
  <a xlink:href="57.html" id="a63">
    <rect id="a63" stroke="black" stroke-width="0.5" fill="none" x="925.25" y="611" width="80" height="80" />
    <image x="925.25" y="611" width="80" height="80" xlink:href="b14d48e0-1285-11e4-9191-0800200c9a66/Exchanger.svg" />
    <text text-anchor="middle" fill="black" font-size="15" x="965.25" y="727">S[0][1]</text>
  </a>
  <a xlink:href="63.html" id="a64">
    <rect id="a64" stroke="black" stroke-width="0.5" fill="none" x="662.5" y="732" width="80" height="80" />
    <image x="662.5" y="732" width="80" height="80" xlink:href="b14d48e0-1285-11e4-9191-0800200c9a66/Exchanger.svg" />
    <text text-anchor="middle" fill="black" font-size="15" x="702.5" y="848">S[0][2]</text>
  </a>
  <a xlink:href="69.html" id="a65">
    <rect id="a65" stroke="black" stroke-width="0.5" fill="none" x="399.75" y="853" width="80" height="80" />
    <image x="399.75" y="853" width="80" height="80" xlink:href="b14d48e0-1285-11e4-9191-0800200c9a66/Exchanger.svg" />
    <text text-anchor="middle" fill="black" font-size="15" x="439.75" y="969">S[0][3]</text>
  </a>
  <a xlink:href="75.html" id="a66">
    <rect id="a66" stroke="black" stroke-width="0.5" fill="none" x="1450.75" y="394" width="80" height="80" />
    <image x="1450.75" y="394" width="80" height="80" xlink:href="b14d48e0-1285-11e4-9191-0800200c9a66/Exchanger.svg" />
    <text text-anchor="middle" fill="black" font-size="15" x="1490.75" y="510">S[1][0]</text>
  </a>
  <a xlink:href="81.html" id="a67">
    <rect id="a67" stroke="black" stroke-width="0.5" fill="none" x="1188" y="707" width="80" height="80" />
    <image x="1188" y="707" width="80" height="80" xlink:href="b14d48e0-1285-11e4-9191-0800200c9a66/Exchanger.svg" />
    <text text-anchor="middle" fill="black" font-size="15" x="1228" y="823">S[1][1]</text>
  </a>
  <a xlink:href="87.html" id="a68">
    <rect id="a68" stroke="black" stroke-width="0.5" fill="none" x="925.25" y="828" width="80" height="80" />
    <image x="925.25" y="828" width="80" height="80" xlink:href="b14d48e0-1285-11e4-9191-0800200c9a66/Exchanger.svg" />
    <text text-anchor="middle" fill="black" font-size="15" x="965.25" y="944">S[1][2]</text>
  </a>
  <a xlink:href="93.html" id="a69">
    <rect id="a69" stroke="black" stroke-width="0.5" fill="none" x="662.5" y="949" width="80" height="80" />
    <image x="662.5" y="949" width="80" height="80" xlink:href="b14d48e0-1285-11e4-9191-0800200c9a66/Exchanger.svg" />
    <text text-anchor="middle" fill="black" font-size="15" x="702.5" y="1065">S[1][3]</text>
  </a>
  <a xlink:href="99.html" id="a70">
    <rect id="a70" stroke="black" stroke-width="0.5" fill="none" x="1713.5" y="298" width="80" height="80" />
    <image x="1713.5" y="298" width="80" height="80" xlink:href="b14d48e0-1285-11e4-9191-0800200c9a66/Exchanger.svg" />
    <text text-anchor="middle" fill="black" font-size="15" x="1753.5" y="414">S[2][0]</text>
  </a>
  <a xlink:href="105.html" id="a71">
    <rect id="a71" stroke="black" stroke-width="0.5" fill="none" x="1450.75" y="803" width="80" height="80" />
    <image x="1450.75" y="803" width="80" height="80" xlink:href="b14d48e0-1285-11e4-9191-0800200c9a66/Exchanger.svg" />
    <text text-anchor="middle" fill="black" font-size="15" x="1490.75" y="919">S[2][1]</text>
  </a>
  <a xlink:href="111.html" id="a72">
    <rect id="a72" stroke="black" stroke-width="0.5" fill="none" x="1188" y="924" width="80" height="80" />
    <image x="1188" y="924" width="80" height="80" xlink:href="b14d48e0-1285-11e4-9191-0800200c9a66/Exchanger.svg" />
    <text text-anchor="middle" fill="black" font-size="15" x="1228" y="1040">S[2][2]</text>
  </a>
  <a xlink:href="117.html" id="a73">
    <rect id="a73" stroke="black" stroke-width="0.5" fill="none" x="925.25" y="1045" width="80" height="80" />
    <image x="925.25" y="1045" width="80" height="80" xlink:href="b14d48e0-1285-11e4-9191-0800200c9a66/Exchanger.svg" />
    <text text-anchor="middle" fill="black" font-size="15" x="965.25" y="1161">S[2][3]</text>
  </a>
  <a xlink:href="123.html" id="a74">
    <rect id="a74" stroke="black" stroke-width="0.5" fill="none" x="1976.25" y="202" width="80" height="80" />
    <image x="1976.25" y="202" width="80" height="80" xlink:href="b14d48e0-1285-11e4-9191-0800200c9a66/Exchanger.svg" />
    <text text-anchor="middle" fill="black" font-size="15" x="2016.25" y="318">S[3][0]</text>
  </a>
  <a xlink:href="129.html" id="a75">
    <rect id="a75" stroke="black" stroke-width="0.5" fill="none" x="1713.5" y="899" width="80" height="80" />
    <image x="1713.5" y="899" width="80" height="80" xlink:href="b14d48e0-1285-11e4-9191-0800200c9a66/Exchanger.svg" />
    <text text-anchor="middle" fill="black" font-size="15" x="1753.5" y="1015">S[3][1]</text>
  </a>
  <a xlink:href="135.html" id="a76">
    <rect id="a76" stroke="black" stroke-width="0.5" fill="none" x="1450.75" y="1020" width="80" height="80" />
    <image x="1450.75" y="1020" width="80" height="80" xlink:href="b14d48e0-1285-11e4-9191-0800200c9a66/Exchanger.svg" />
    <text text-anchor="middle" fill="black" font-size="15" x="1490.75" y="1136">S[3][2]</text>
  </a>
  <a xlink:href="141.html" id="a77">
    <rect id="a77" stroke="black" stroke-width="0.5" fill="none" x="1188" y="1141" width="80" height="80" />
    <image x="1188" y="1141" width="80" height="80" xlink:href="b14d48e0-1285-11e4-9191-0800200c9a66/Exchanger.svg" />
    <text text-anchor="middle" fill="black" font-size="15" x="1228" y="1257">S[3][3]</text>
  </a>
  <a xlink:href="147.html" id="a78">
    <rect id="a78" stroke="black" stroke-width="0.5" fill="none" x="2239" y="106" width="80" height="80" />
    <image x="2239" y="106" width="80" height="80" xlink:href="b14d48e0-1285-11e4-9191-0800200c9a66/Exchanger.svg" />
    <text text-anchor="middle" fill="black" font-size="15" x="2279" y="222">S[4][0]</text>
  </a>
  <a xlink:href="153.html" id="a79">
    <rect id="a79" stroke="black" stroke-width="0.5" fill="none" x="1976.25" y="995" width="80" height="80" />
    <image x="1976.25" y="995" width="80" height="80" xlink:href="b14d48e0-1285-11e4-9191-0800200c9a66/Exchanger.svg" />
    <text text-anchor="middle" fill="black" font-size="15" x="2016.25" y="1111">S[4][1]</text>
  </a>
  <a xlink:href="159.html" id="a80">
    <rect id="a80" stroke="black" stroke-width="0.5" fill="none" x="1713.5" y="1116" width="80" height="80" />
    <image x="1713.5" y="1116" width="80" height="80" xlink:href="b14d48e0-1285-11e4-9191-0800200c9a66/Exchanger.svg" />
    <text text-anchor="middle" fill="black" font-size="15" x="1753.5" y="1232">S[4][2]</text>
  </a>
  <a xlink:href="165.html" id="a81">
    <rect id="a81" stroke="black" stroke-width="0.5" fill="none" x="1450.75" y="1237" width="80" height="80" />
    <image x="1450.75" y="1237" width="80" height="80" xlink:href="b14d48e0-1285-11e4-9191-0800200c9a66/Exchanger.svg" />
    <text text-anchor="middle" fill="black" font-size="15" x="1490.75" y="1353">S[4][3]</text>
  </a>
  <a xlink:href="171.html" id="a82">
    <rect id="a82" stroke="black" stroke-width="0.5" fill="none" x="2501.75" y="10" width="80" height="80" />
    <image x="2501.75" y="10" width="80" height="80" xlink:href="b14d48e0-1285-11e4-9191-0800200c9a66/Exchanger.svg" />
    <text text-anchor="middle" fill="black" font-size="15" x="2541.75" y="126">S[5][0]</text>
  </a>
  <a xlink:href="177.html" id="a83">
    <rect id="a83" stroke="black" stroke-width="0.5" fill="none" x="2239" y="1091" width="80" height="80" />
    <image x="2239" y="1091" width="80" height="80" xlink:href="b14d48e0-1285-11e4-9191-0800200c9a66/Exchanger.svg" />
    <text text-anchor="middle" fill="black" font-size="15" x="2279" y="1207">S[5][1]</text>
  </a>
  <a xlink:href="183.html" id="a84">
    <rect id="a84" stroke="black" stroke-width="0.5" fill="none" x="1976.25" y="1212" width="80" height="80" />
    <image x="1976.25" y="1212" width="80" height="80" xlink:href="b14d48e0-1285-11e4-9191-0800200c9a66/Exchanger.svg" />
    <text text-anchor="middle" fill="black" font-size="15" x="2016.25" y="1328">S[5][2]</text>
  </a>
  <a xlink:href="189.html" id="a85">
    <rect id="a85" stroke="black" stroke-width="0.5" fill="none" x="1713.5" y="1333" width="80" height="80" />
    <image x="1713.5" y="1333" width="80" height="80" xlink:href="b14d48e0-1285-11e4-9191-0800200c9a66/Exchanger.svg" />
    <text text-anchor="middle" fill="black" font-size="15" x="1753.5" y="1449">S[5][3]</text>
  </a>
  <a xlink:href="195.html" id="a86">
    <rect id="a86" stroke="black" stroke-width="0.5" fill="none" x="126.5" y="769.965" width="73" height="83.4688" />
    <image x="126.5" y="769.965" width="73" height="83.4688" xlink:href="b14d48e0-1285-11e4-9191-0800200c9a66/Divider.svg" />
    <text text-anchor="middle" fill="black" font-size="15" x="163" y="868.434">SPLITA</text>
  </a>
  <a xlink:href="196.html" id="a87">
    <rect id="a87" stroke="black" stroke-width="0.5" fill="none" x="2800.75" y="180.891" width="73" height="83.4375" />
    <image x="2800.75" y="180.891" width="73" height="83.4375" xlink:href="b14d48e0-1285-11e4-9191-0800200c9a66/Mixer.svg" />
    <text text-anchor="middle" fill="black" font-size="15" x="2837.25" y="279.328">MIXA</text>
  </a>
  <a xlink:href="197.html" id="a88">
    <rect id="a88" stroke="black" stroke-width="0.5" fill="none" x="126.5" y="1296.49" width="73" height="83.4688" />
    <image x="126.5" y="1296.49" width="73" height="83.4688" xlink:href="b14d48e0-1285-11e4-9191-0800200c9a66/Divider.svg" />
    <text text-anchor="middle" fill="black" font-size="15" x="163" y="1394.96">SPLITB</text>
  </a>
  <a xlink:href="198.html" id="a89">
    <rect id="a89" stroke="black" stroke-width="0.5" fill="none" x="2800.75" y="289.328" width="73" height="83.4375" />
    <image x="2800.75" y="289.328" width="73" height="83.4375" xlink:href="b14d48e0-1285-11e4-9191-0800200c9a66/Mixer.svg" />
    <text text-anchor="middle" fill="black" font-size="15" x="2837.25" y="387.766">MIXB</text>
  </a>
</svg>
