<?xml version="1.0" encoding="UTF-8" standalone="no"?>
<svg xmlns="http://www.w3.org/2000/svg" xmlns:xlink="http://www.w3.org/1999/xlink" baseProfile="tiny" height="1499" width="3029" version="1.1" viewBox="-20 -20 3029 1499">
  <defs>
    <path id="arrow" stroke-width="0" d="m0 0v12l16-6z"/>
  </defs>
  <rect y="-20" width="3029" fill="transparent" x="-20" height="1499"/>
  <a id="a0" xlink:href="5.html">
    <path id="a0" stroke="blue" stroke-width="2" fill="none" d="m0 811.7h126.5"/>
    <use xlink:href="#arrow" transform="translate(110.5 805.7)"/>
    <text y="826.699" x="63.25" font-size="15" text-anchor="middle" fill="black">FA</text>
  </a>
  <a id="a1" xlink:href="3.html">
    <path id="a1" stroke="blue" stroke-width="2" fill="none" d="m0 1338.2h126.5"/>
    <use xlink:href="#arrow" transform="translate(110.5 1332.2)"/>
    <text y="1353.22" x="63.25" font-size="15" text-anchor="middle" fill="black">FB</text>
  </a>
  <a id="a2" xlink:href="5.html">
    <path id="a2" stroke="blue" stroke-width="2" fill="none" d="m1268 530h1496.8v-219.81h36"/>
    <use xlink:href="#arrow" transform="translate(2784.8 304.19)"/>
    <text y="545" x="1359.38" font-size="15" text-anchor="middle" fill="black">B[0]</text>
  </a>
  <a id="a3" xlink:href="6.html">
    <path id="a3" stroke="blue" stroke-width="2" fill="none" d="m1005.2 651h156.8v-121h26"/>
    <use xlink:href="#arrow" transform="translate(1172 524)"/>
    <text y="666" x="1096.62" font-size="15" text-anchor="middle" fill="black">B[0][1]</text>
  </a>
  <a id="a4" xlink:href="3.html">
    <path id="a4" stroke="blue" stroke-width="2" fill="none" d="m742.5 772h156.75v-121h26"/>
    <use xlink:href="#arrow" transform="translate(909.25 645)"/>
    <text y="787" x="833.875" font-size="15" text-anchor="middle" fill="black">B[0][2]</text>
  </a>
  <a id="a5" xlink:href="1.html">
    <path id="a5" stroke="blue" stroke-width="2" fill="none" d="m479.75 893h156.75v-121h26"/>
    <use xlink:href="#arrow" transform="translate(646.5 766)"/>
    <text y="908" x="571.125" font-size="15" text-anchor="middle" fill="black">B[0][3]</text>
  </a>
  <a id="a6" xlink:href="5.html">
    <path id="a6" stroke="blue" stroke-width="2" fill="none" d="m1530.8 434h1244v-109.91h26"/>
    <use xlink:href="#arrow" transform="translate(2784.8 318.09)"/>
    <text y="449" x="1622.12" font-size="15" text-anchor="middle" fill="black">B[1]</text>
  </a>
  <a id="a7" xlink:href="6.html">
    <path id="a7" stroke="blue" stroke-width="2" fill="none" d="m1268 747h156.8v-313h26"/>
    <use xlink:href="#arrow" transform="translate(1434.8 428)"/>
    <text y="762" x="1359.38" font-size="15" text-anchor="middle" fill="black">B[1][1]</text>
  </a>
  <a id="a8" xlink:href="3.html">
    <path id="a8" stroke="blue" stroke-width="2" fill="none" d="m1005.2 868h156.8v-121h26"/>
    <use xlink:href="#arrow" transform="translate(1172 741)"/>
    <text y="883" x="1096.62" font-size="15" text-anchor="middle" fill="black">B[1][2]</text>
  </a>
  <a id="a9" xlink:href="1.html">
    <path id="a9" stroke="blue" stroke-width="2" fill="none" d="m742.5 989h156.75v-121h26"/>
    <use xlink:href="#arrow" transform="translate(909.25 862)"/>
    <text y="1004" x="833.875" font-size="15" text-anchor="middle" fill="black">B[1][3]</text>
  </a>
  <a id="a10" xlink:href="5.html">
    <path id="a10" stroke="blue" stroke-width="2" fill="none" d="m1793.5 338h1007.3"/>
    <use xlink:href="#arrow" transform="translate(2784.8 332)"/>
    <text y="353" x="1884.88" font-size="15" text-anchor="middle" fill="black">B[2]</text>
  </a>
  <a id="a11" xlink:href="6.html">
    <path id="a11" stroke="blue" stroke-width="2" fill="none" d="m1530.8 843h156.7v-505h26"/>
    <use xlink:href="#arrow" transform="translate(1697.5 332)"/>
    <text y="858" x="1622.12" font-size="15" text-anchor="middle" fill="black">B[2][1]</text>
  </a>
  <a id="a12" xlink:href="3.html">
    <path id="a12" stroke="blue" stroke-width="2" fill="none" d="m1268 964h156.8v-121h26"/>
    <use xlink:href="#arrow" transform="translate(1434.8 837)"/>
    <text y="979" x="1359.38" font-size="15" text-anchor="middle" fill="black">B[2][2]</text>
  </a>
  <a id="a13" xlink:href="1.html">
    <path id="a13" stroke="blue" stroke-width="2" fill="none" d="m1005.2 1085h156.8v-121h26"/>
    <use xlink:href="#arrow" transform="translate(1172 958)"/>
    <text y="1100" x="1096.62" font-size="15" text-anchor="middle" fill="black">B[2][3]</text>
  </a>
  <a id="a14" xlink:href="5.html">
    <path id="a14" stroke="blue" stroke-width="2" fill="none" d="m2056.2 242h658.6v109.91h86"/>
    <use xlink:href="#arrow" transform="translate(2784.8 345.91)"/>
    <text y="257" x="2147.62" font-size="15" text-anchor="middle" fill="black">B[3]</text>
  </a>
  <a id="a15" xlink:href="6.html">
    <path id="a15" stroke="blue" stroke-width="2" fill="none" d="m1793.5 939h156.7v-697h26"/>
    <use xlink:href="#arrow" transform="translate(1960.2 236)"/>
    <text y="954" x="1884.88" font-size="15" text-anchor="middle" fill="black">B[3][1]</text>
  </a>
  <a id="a16" xlink:href="3.html">
    <path id="a16" stroke="blue" stroke-width="2" fill="none" d="m1530.8 1060h156.7v-121h26"/>
    <use xlink:href="#arrow" transform="translate(1697.5 933)"/>
    <text y="1075" x="1622.12" font-size="15" text-anchor="middle" fill="black">B[3][2]</text>
  </a>
  <a id="a17" xlink:href="1.html">
    <path id="a17" stroke="blue" stroke-width="2" fill="none" d="m1268 1181h156.8v-121h26"/>
    <use xlink:href="#arrow" transform="translate(1434.8 1054)"/>
    <text y="1196" x="1359.38" font-size="15" text-anchor="middle" fill="black">B[3][3]</text>
  </a>
  <a id="a18" xlink:href="5.html">
    <path id="a18" stroke="blue" stroke-width="2" fill="none" d="m2319 146h385.8v219.81h96"/>
    <use xlink:href="#arrow" transform="translate(2784.8 359.81)"/>
    <text y="161" x="2410.38" font-size="15" text-anchor="middle" fill="black">B[4]</text>
  </a>
  <a id="a19" xlink:href="6.html">
    <path id="a19" stroke="blue" stroke-width="2" fill="none" d="m2056.2 1035h156.8v-889h26"/>
    <use xlink:href="#arrow" transform="translate(2223 140)"/>
    <text y="1050" x="2147.62" font-size="15" text-anchor="middle" fill="black">B[4][1]</text>
  </a>
  <a id="a20" xlink:href="3.html">
    <path id="a20" stroke="blue" stroke-width="2" fill="none" d="m1793.5 1156h156.7v-121h26"/>
    <use xlink:href="#arrow" transform="translate(1960.2 1029)"/>
    <text y="1171" x="1884.88" font-size="15" text-anchor="middle" fill="black">B[4][2]</text>
  </a>
  <a id="a21" xlink:href="1.html">
    <path id="a21" stroke="blue" stroke-width="2" fill="none" d="m1530.8 1277h156.7v-121h26"/>
    <use xlink:href="#arrow" transform="translate(1697.5 1150)"/>
    <text y="1292" x="1622.12" font-size="15" text-anchor="middle" fill="black">B[4][3]</text>
  </a>
  <a id="a22" xlink:href="5.html">
    <path id="a22" stroke="blue" stroke-width="2" fill="none" d="m2581.8 50h163v246.28h56"/>
    <use xlink:href="#arrow" transform="translate(2784.8 290.28)"/>
    <text y="65" x="2656.25" font-size="15" text-anchor="middle" fill="black">B[5]</text>
  </a>
  <a id="a23" xlink:href="6.html">
    <path id="a23" stroke="blue" stroke-width="2" fill="none" d="m2319 1131h156.8v-1081h26"/>
    <use xlink:href="#arrow" transform="translate(2485.8 44)"/>
    <text y="1146" x="2410.38" font-size="15" text-anchor="middle" fill="black">B[5][1]</text>
  </a>
  <a id="a24" xlink:href="3.html">
    <path id="a24" stroke="blue" stroke-width="2" fill="none" d="m2056.2 1252h156.8v-121h26"/>
    <use xlink:href="#arrow" transform="translate(2223 1125)"/>
    <text y="1267" x="2147.62" font-size="15" text-anchor="middle" fill="black">B[5][2]</text>
  </a>
  <a id="a25" xlink:href="1.html">
    <path id="a25" stroke="blue" stroke-width="2" fill="none" d="m1793.5 1373h156.7v-121h26"/>
    <use xlink:href="#arrow" transform="translate(1960.2 1246)"/>
    <text y="1388" x="1884.88" font-size="15" text-anchor="middle" fill="black">B[5][3]</text>
  </a>
  <a id="a26" xlink:href="1.html">
    <path id="a26" stroke="blue" stroke-width="2" fill="none" d="m199.5 780.4h26v-300.4h1002.5v10"/>
    <use xlink:href="#arrow" transform="translate(1234 474) rotate(90)"/>
    <text y="495" x="319.625" font-size="15" text-anchor="middle" fill="black">FA[0]</text>
  </a>
  <a id="a27" xlink:href="5.html">
    <path id="a27" stroke="blue" stroke-width="2" fill="none" d="m199.5 801.27h36v-200.27h729.75v10"/>
    <use xlink:href="#arrow" transform="translate(971.25 595) rotate(90)"/>
    <text y="616" x="319.625" font-size="15" text-anchor="middle" fill="black">FA[1]</text>
  </a>
  <a id="a28" xlink:href="3.html">
    <path id="a28" stroke="blue" stroke-width="2" fill="none" d="m199.5 822.13h46v-100.13h457v10"/>
    <use xlink:href="#arrow" transform="translate(708.5 716) rotate(90)"/>
    <text y="737" x="319.625" font-size="15" text-anchor="middle" fill="black">FA[2]</text>
  </a>
  <a id="a29" xlink:href="3.html">
    <path id="a29" stroke="blue" stroke-width="2" fill="none" d="m199.5 843h240.25v10"/>
    <use xlink:href="#arrow" transform="translate(445.75 837) rotate(90)"/>
    <text y="858" x="319.625" font-size="15" text-anchor="middle" fill="black">FA[3]</text>
  </a>
  <a id="a30" xlink:href="6.html">
    <path id="a30" stroke="blue" stroke-width="2" fill="none" d="m2873.8 222.61h115.2"/>
    <use xlink:href="#arrow" transform="translate(2973 216.61)"/>
    <text y="237.609" x="2931.38" font-size="15" text-anchor="middle" fill="black">A</text>
  </a>
  <a id="a31" xlink:href="3.html">
    <path id="a31" stroke="blue" stroke-width="2" fill="none" d="m199.5 1303.4h26v-410.4h174.25"/>
    <use xlink:href="#arrow" transform="translate(383.75 887)"/>
    <text y="908" x="319.625" font-size="15" text-anchor="middle" fill="black">FB[0]</text>
  </a>
  <a id="a32" xlink:href="3.html">
    <path id="a32" stroke="blue" stroke-width="2" fill="none" d="m199.5 1317.4h36v-328.4h427"/>
    <use xlink:href="#arrow" transform="translate(646.5 983)"/>
    <text y="1004" x="319.625" font-size="15" text-anchor="middle" fill="black">FB[1]</text>
  </a>
  <a id="a33" xlink:href="3.html">
    <path id="a33" stroke="blue" stroke-width="2" fill="none" d="m199.5 1331.3h46v-246.3h679.75"/>
    <use xlink:href="#arrow" transform="translate(909.25 1079)"/>
    <text y="1100" x="319.625" font-size="15" text-anchor="middle" fill="black">FB[2]</text>
  </a>
  <a id="a34" xlink:href="3.html">
    <path id="a34" stroke="blue" stroke-width="2" fill="none" d="m199.5 1345.2h56v-164.2h932.5"/>
    <use xlink:href="#arrow" transform="translate(1172 1175)"/>
    <text y="1196" x="319.625" font-size="15" text-anchor="middle" fill="black">FB[3]</text>
  </a>
  <a id="a35" xlink:href="3.html">
    <path id="a35" stroke="blue" stroke-width="2" fill="none" d="m199.5 1359.1h66v-82.1h1185.3"/>
    <use xlink:href="#arrow" transform="translate(1434.8 1271)"/>
    <text y="1292" x="319.625" font-size="15" text-anchor="middle" fill="black">FB[4]</text>
  </a>
  <a id="a36" xlink:href="3.html">
    <path id="a36" stroke="blue" stroke-width="2" fill="none" d="m199.5 1373h1514"/>
    <use xlink:href="#arrow" transform="translate(1697.5 1367)"/>
    <text y="1388" x="319.625" font-size="15" text-anchor="middle" fill="black">FB[5]</text>
  </a>
  <a id="a37" xlink:href="1.html">
    <path id="a37" stroke="blue" stroke-width="2" fill="none" d="m2873.8 331.05h115.2"/>
    <use xlink:href="#arrow" transform="translate(2973 325.05)"/>
    <text y="346.047" x="2931.38" font-size="15" text-anchor="middle" fill="black">B</text>
  </a>
  <a id="a38" xlink:href="1.html">
    <path id="a38" stroke="blue" stroke-width="2" fill="none" d="m439.75 933v46h66v-111h196.75v81"/>
    <use xlink:href="#arrow" transform="translate(708.5 933) rotate(90)"/>
    <text y="883" x="571.125" font-size="15" text-anchor="middle" fill="black">A[0][3]</text>
  </a>
  <a id="a39" xlink:href="6.html">
    <path id="a39" stroke="blue" stroke-width="2" fill="none" d="m702.5 812v46h66v-111h196.75v81"/>
    <use xlink:href="#arrow" transform="translate(971.25 812) rotate(90)"/>
    <text y="762" x="833.875" font-size="15" text-anchor="middle" fill="black">A[0][2]</text>
  </a>
  <a id="a40" xlink:href="1.html">
    <path id="a40" stroke="blue" stroke-width="2" fill="none" d="m702.5 1029v46h66v-111h196.75v81"/>
    <use xlink:href="#arrow" transform="translate(971.25 1029) rotate(90)"/>
    <text y="979" x="833.875" font-size="15" text-anchor="middle" fill="black">A[1][3]</text>
  </a>
  <a id="a41" xlink:href="3.html">
    <path id="a41" stroke="blue" stroke-width="2" fill="none" d="m965.25 691v46h65.95v-111h196.8v81"/>
    <use xlink:href="#arrow" transform="translate(1234 691) rotate(90)"/>
    <text y="641" x="1096.62" font-size="15" text-anchor="middle" fill="black">A[0][1]</text>
  </a>
  <a id="a42" xlink:href="3.html">
    <path id="a42" stroke="blue" stroke-width="2" fill="none" d="m965.25 908v46h65.95v-111h196.8v81"/>
    <use xlink:href="#arrow" transform="translate(1234 908) rotate(90)"/>
    <text y="858" x="1096.62" font-size="15" text-anchor="middle" fill="black">A[1][2]</text>
  </a>
  <a id="a43" xlink:href="3.html">
    <path id="a43" stroke="blue" stroke-width="2" fill="none" d="m965.25 1125v46h65.95v-111h196.8v81"/>
    <use xlink:href="#arrow" transform="translate(1234 1125) rotate(90)"/>
    <text y="1075" x="1096.62" font-size="15" text-anchor="middle" fill="black">A[2][3]</text>
  </a>
  <a id="a44" xlink:href="3.html">
    <path id="a44" stroke="blue" stroke-width="2" fill="none" d="m1228 570v46h66v-232h196.8v10"/>
    <use xlink:href="#arrow" transform="translate(1496.8 378) rotate(90)"/>
    <text y="399" x="1359.38" font-size="15" text-anchor="middle" fill="black">A[0][0]</text>
  </a>
  <a id="a45" xlink:href="6.html">
    <path id="a45" stroke="blue" stroke-width="2" fill="none" d="m1228 787v46h66v-111h196.8v81"/>
    <use xlink:href="#arrow" transform="translate(1496.8 787) rotate(90)"/>
    <text y="737" x="1359.38" font-size="15" text-anchor="middle" fill="black">A[1][1]</text>
  </a>
  <a id="a46" xlink:href="6.html">
    <path id="a46" stroke="blue" stroke-width="2" fill="none" d="m1228 1004v46h66v-111h196.8v81"/>
    <use xlink:href="#arrow" transform="translate(1496.8 1004) rotate(90)"/>
    <text y="954" x="1359.38" font-size="15" text-anchor="middle" fill="black">A[2][2]</text>
  </a>
  <a id="a47" xlink:href="6.html">
    <path id="a47" stroke="blue" stroke-width="2" fill="none" d="m1228 1221v46h66v-111h196.8v81"/>
    <use xlink:href="#arrow" transform="translate(1496.8 1221) rotate(90)"/>
    <text y="1171" x="1359.38" font-size="15" text-anchor="middle" fill="black">A[3][3]</text>
  </a>
  <a id="a48" xlink:href="5.html">
    <path id="a48" stroke="blue" stroke-width="2" fill="none" d="m1490.8 474v46h66v-232h196.7v10"/>
    <use xlink:href="#arrow" transform="translate(1759.5 282) rotate(90)"/>
    <text y="303" x="1622.12" font-size="15" text-anchor="middle" fill="black">A[1][0]</text>
  </a>
  <a id="a49" xlink:href="5.html">
    <path id="a49" stroke="blue" stroke-width="2" fill="none" d="m1490.8 883v46h66v-111h196.7v81"/>
    <use xlink:href="#arrow" transform="translate(1759.5 883) rotate(90)"/>
    <text y="833" x="1622.12" font-size="15" text-anchor="middle" fill="black">A[2][1]</text>
  </a>
  <a id="a50" xlink:href="5.html">
    <path id="a50" stroke="blue" stroke-width="2" fill="none" d="m1490.8 1100v46h66v-111h196.7v81"/>
    <use xlink:href="#arrow" transform="translate(1759.5 1100) rotate(90)"/>
    <text y="1050" x="1622.12" font-size="15" text-anchor="middle" fill="black">A[3][2]</text>
  </a>
  <a id="a51" xlink:href="5.html">
    <path id="a51" stroke="blue" stroke-width="2" fill="none" d="m1490.8 1317v46h66v-111h196.7v81"/>
    <use xlink:href="#arrow" transform="translate(1759.5 1317) rotate(90)"/>
    <text y="1267" x="1622.12" font-size="15" text-anchor="middle" fill="black">A[4][3]</text>
  </a>
  <a id="a52" xlink:href="3.html">
    <path id="a52" stroke="blue" stroke-width="2" fill="none" d="m1753.5 378v46h66v-232h196.7v10"/>
    <use xlink:href="#arrow" transform="translate(2022.2 186) rotate(90)"/>
    <text y="207" x="1884.88" font-size="15" text-anchor="middle" fill="black">A[2][0]</text>
  </a>
  <a id="a53" xlink:href="3.html">
    <path id="a53" stroke="blue" stroke-width="2" fill="none" d="m1753.5 979v46h66v-111h196.7v81"/>
    <use xlink:href="#arrow" transform="translate(2022.2 979) rotate(90)"/>
    <text y="929" x="1884.88" font-size="15" text-anchor="middle" fill="black">A[3][1]</text>
  </a>
  <a id="a54" xlink:href="3.html">
    <path id="a54" stroke="blue" stroke-width="2" fill="none" d="m1753.5 1196v46h66v-111h196.7v81"/>
    <use xlink:href="#arrow" transform="translate(2022.2 1196) rotate(90)"/>
    <text y="1146" x="1884.88" font-size="15" text-anchor="middle" fill="black">A[4][2]</text>
  </a>
  <a id="a55" xlink:href="3.html">
    <path id="a55" stroke="blue" stroke-width="2" fill="none" d="m1753.5 1413v46h66v-111h935.3v-1094.1h46"/>
    <use xlink:href="#arrow" transform="translate(2784.8 247.9)"/>
    <text y="1363" x="1884.88" font-size="15" text-anchor="middle" fill="black">A[3]</text>
  </a>
  <a id="a56" xlink:href="1.html">
    <path id="a56" stroke="blue" stroke-width="2" fill="none" d="m2016.2 282v46h66v-232h196.8v10"/>
    <use xlink:href="#arrow" transform="translate(2285 90) rotate(90)"/>
    <text y="111" x="2147.62" font-size="15" text-anchor="middle" fill="black">A[3][0]</text>
  </a>
  <a id="a57" xlink:href="1.html">
    <path id="a57" stroke="blue" stroke-width="2" fill="none" d="m2016.2 1075v46h66v-111h196.8v81"/>
    <use xlink:href="#arrow" transform="translate(2285 1075) rotate(90)"/>
    <text y="1025" x="2147.62" font-size="15" text-anchor="middle" fill="black">A[4][1]</text>
  </a>
  <a id="a58" xlink:href="1.html">
    <path id="a58" stroke="blue" stroke-width="2" fill="none" d="m2016.2 1292v46h66v-111h652.6v-993.96h66"/>
    <use xlink:href="#arrow" transform="translate(2784.8 227.04)"/>
    <text y="1242" x="2147.62" font-size="15" text-anchor="middle" fill="black">A[2]</text>
  </a>
  <a id="a59" xlink:href="3.html">
    <path id="a59" stroke="blue" stroke-width="2" fill="none" d="m2279 186v46h66v-232h196.8v10"/>
    <use xlink:href="#arrow" transform="translate(2547.8 -6) rotate(90)"/>
    <text y="15" x="2410.38" font-size="15" text-anchor="middle" fill="black">A[4][0]</text>
  </a>
  <a id="a60" xlink:href="3.html">
    <path id="a60" stroke="blue" stroke-width="2" fill="none" d="m2279 1171v46h66v-111h379.8v-893.82h76"/>
    <use xlink:href="#arrow" transform="translate(2784.8 206.18)"/>
    <text y="1121" x="2410.38" font-size="15" text-anchor="middle" fill="black">A[1]</text>
  </a>
  <a id="a61" xlink:href="6.html">
    <path id="a61" stroke="blue" stroke-width="2" fill="none" d="m2541.8 90v46h66v-111h147v166.32h46"/>
    <use xlink:href="#arrow" transform="translate(2784.8 185.32)"/>
    <text y="40" x="2656.25" font-size="15" text-anchor="middle" fill="black">A[0]</text>
  </a>
  <a id="a62" xlink:href="1.html">
    <rect id="a62" height="80" width="80" stroke="#000" y="490" x="1188" stroke-width=".5" fill="none"/>
    <image y="490" x="1188" xlink:href="b14d48e0-1285-11e4-9191-0800200c9a66/Exchanger.svg" width="80" height="80"/>
    <text y="606" x="1228" font-size="15" text-anchor="middle" fill="black">S[0][0]</text>
  </a>
  <a id="a63" xlink:href="6.html">
    <rect id="a63" height="80" width="80" stroke="#000" y="611" x="925.25" stroke-width=".5" fill="none"/>
    <image y="611" x="925.25" xlink:href="b14d48e0-1285-11e4-9191-0800200c9a66/Exchanger.svg" width="80" height="80"/>
    <text y="727" x="965.25" font-size="15" text-anchor="middle" fill="black">S[0][1]</text>
  </a>
  <a id="a64" xlink:href="3.html">
    <rect id="a64" height="80" width="80" stroke="#000" y="732" x="662.5" stroke-width=".5" fill="none"/>
    <image y="732" x="662.5" xlink:href="b14d48e0-1285-11e4-9191-0800200c9a66/Exchanger.svg" width="80" height="80"/>
    <text y="848" x="702.5" font-size="15" text-anchor="middle" fill="black">S[0][2]</text>
  </a>
  <a id="a65" xlink:href="3.html">
    <rect id="a65" height="80" width="80" stroke="#000" y="853" x="399.75" stroke-width=".5" fill="none"/>
    <image y="853" x="399.75" xlink:href="b14d48e0-1285-11e4-9191-0800200c9a66/Exchanger.svg" width="80" height="80"/>
    <text y="969" x="439.75" font-size="15" text-anchor="middle" fill="black">S[0][3]</text>
  </a>
  <a id="a66" xlink:href="5.html">
    <rect id="a66" height="80" width="80" stroke="#000" y="394" x="1450.8" stroke-width=".5" fill="none"/>
    <image y="394" x="1450.8" xlink:href="b14d48e0-1285-11e4-9191-0800200c9a66/Exchanger.svg" width="80" height="80"/>
    <text y="510" x="1490.75" font-size="15" text-anchor="middle" fill="black">S[1][0]</text>
  </a>
  <a id="a67" xlink:href="1.html">
    <rect id="a67" height="80" width="80" stroke="#000" y="707" x="1188" stroke-width=".5" fill="none"/>
    <image y="707" x="1188" xlink:href="b14d48e0-1285-11e4-9191-0800200c9a66/Exchanger.svg" width="80" height="80"/>
    <text y="823" x="1228" font-size="15" text-anchor="middle" fill="black">S[1][1]</text>
  </a>
  <a id="a68" xlink:href="6.html">
    <rect id="a68" height="80" width="80" stroke="#000" y="828" x="925.25" stroke-width=".5" fill="none"/>
    <image y="828" x="925.25" xlink:href="b14d48e0-1285-11e4-9191-0800200c9a66/Exchanger.svg" width="80" height="80"/>
    <text y="944" x="965.25" font-size="15" text-anchor="middle" fill="black">S[1][2]</text>
  </a>
  <a id="a69" xlink:href="3.html">
    <rect id="a69" height="80" width="80" stroke="#000" y="949" x="662.5" stroke-width=".5" fill="none"/>
    <image y="949" x="662.5" xlink:href="b14d48e0-1285-11e4-9191-0800200c9a66/Exchanger.svg" width="80" height="80"/>
    <text y="1065" x="702.5" font-size="15" text-anchor="middle" fill="black">S[1][3]</text>
  </a>
  <a id="a70" xlink:href="3.html">
    <rect id="a70" height="80" width="80" stroke="#000" y="298" x="1713.5" stroke-width=".5" fill="none"/>
    <image y="298" x="1713.5" xlink:href="b14d48e0-1285-11e4-9191-0800200c9a66/Exchanger.svg" width="80" height="80"/>
    <text y="414" x="1753.5" font-size="15" text-anchor="middle" fill="black">S[2][0]</text>
  </a>
  <a id="a71" xlink:href="5.html">
    <rect id="a71" height="80" width="80" stroke="#000" y="803" x="1450.8" stroke-width=".5" fill="none"/>
    <image y="803" x="1450.8" xlink:href="b14d48e0-1285-11e4-9191-0800200c9a66/Exchanger.svg" width="80" height="80"/>
    <text y="919" x="1490.75" font-size="15" text-anchor="middle" fill="black">S[2][1]</text>
  </a>
  <a id="a72" xlink:href="1.html">
    <rect id="a72" height="80" width="80" stroke="#000" y="924" x="1188" stroke-width=".5" fill="none"/>
    <image y="924" x="1188" xlink:href="b14d48e0-1285-11e4-9191-0800200c9a66/Exchanger.svg" width="80" height="80"/>
    <text y="1040" x="1228" font-size="15" text-anchor="middle" fill="black">S[2][2]</text>
  </a>
  <a id="a73" xlink:href="6.html">
    <rect id="a73" height="80" width="80" stroke="#000" y="1045" x="925.25" stroke-width=".5" fill="none"/>
    <image y="1045" x="925.25" xlink:href="b14d48e0-1285-11e4-9191-0800200c9a66/Exchanger.svg" width="80" height="80"/>
    <text y="1161" x="965.25" font-size="15" text-anchor="middle" fill="black">S[2][3]</text>
  </a>
  <a id="a74" xlink:href="3.html">
    <rect id="a74" height="80" width="80" stroke="#000" y="202" x="1976.2" stroke-width=".5" fill="none"/>
    <image y="202" x="1976.2" xlink:href="b14d48e0-1285-11e4-9191-0800200c9a66/Exchanger.svg" width="80" height="80"/>
    <text y="318" x="2016.25" font-size="15" text-anchor="middle" fill="black">S[3][0]</text>
  </a>
  <a id="a75" xlink:href="3.html">
    <rect id="a75" height="80" width="80" stroke="#000" y="899" x="1713.5" stroke-width=".5" fill="none"/>
    <image y="899" x="1713.5" xlink:href="b14d48e0-1285-11e4-9191-0800200c9a66/Exchanger.svg" width="80" height="80"/>
    <text y="1015" x="1753.5" font-size="15" text-anchor="middle" fill="black">S[3][1]</text>
  </a>
  <a id="a76" xlink:href="5.html">
    <rect id="a76" height="80" width="80" stroke="#000" y="1020" x="1450.8" stroke-width=".5" fill="none"/>
    <image y="1020" x="1450.8" xlink:href="b14d48e0-1285-11e4-9191-0800200c9a66/Exchanger.svg" width="80" height="80"/>
    <text y="1136" x="1490.75" font-size="15" text-anchor="middle" fill="black">S[3][2]</text>
  </a>
  <a id="a77" xlink:href="1.html">
    <rect id="a77" height="80" width="80" stroke="#000" y="1141" x="1188" stroke-width=".5" fill="none"/>
    <image y="1141" x="1188" xlink:href="b14d48e0-1285-11e4-9191-0800200c9a66/Exchanger.svg" width="80" height="80"/>
    <text y="1257" x="1228" font-size="15" text-anchor="middle" fill="black">S[3][3]</text>
  </a>
  <a id="a78" xlink:href="6.html">
    <rect id="a78" height="80" width="80" stroke="#000" y="106" x="2239" stroke-width=".5" fill="none"/>
    <image y="106" x="2239" xlink:href="b14d48e0-1285-11e4-9191-0800200c9a66/Exchanger.svg" width="80" height="80"/>
    <text y="222" x="2279" font-size="15" text-anchor="middle" fill="black">S[4][0]</text>
  </a>
  <a id="a79" xlink:href="3.html">
    <rect id="a79" height="80" width="80" stroke="#000" y="995" x="1976.2" stroke-width=".5" fill="none"/>
    <image y="995" x="1976.2" xlink:href="b14d48e0-1285-11e4-9191-0800200c9a66/Exchanger.svg" width="80" height="80"/>
    <text y="1111" x="2016.25" font-size="15" text-anchor="middle" fill="black">S[4][1]</text>
  </a>
  <a id="a80" xlink:href="3.html">
    <rect id="a80" height="80" width="80" stroke="#000" y="1116" x="1713.5" stroke-width=".5" fill="none"/>
    <image y="1116" x="1713.5" xlink:href="b14d48e0-1285-11e4-9191-0800200c9a66/Exchanger.svg" width="80" height="80"/>
    <text y="1232" x="1753.5" font-size="15" text-anchor="middle" fill="black">S[4][2]</text>
  </a>
  <a id="a81" xlink:href="5.html">
    <rect id="a81" height="80" width="80" stroke="#000" y="1237" x="1450.8" stroke-width=".5" fill="none"/>
    <image y="1237" x="1450.8" xlink:href="b14d48e0-1285-11e4-9191-0800200c9a66/Exchanger.svg" width="80" height="80"/>
    <text y="1353" x="1490.75" font-size="15" text-anchor="middle" fill="black">S[4][3]</text>
  </a>
  <a id="a82" xlink:href="1.html">
    <rect id="a82" height="80" width="80" stroke="#000" y="10" x="2501.8" stroke-width=".5" fill="none"/>
    <image y="10" x="2501.8" xlink:href="b14d48e0-1285-11e4-9191-0800200c9a66/Exchanger.svg" width="80" height="80"/>
    <text y="126" x="2541.75" font-size="15" text-anchor="middle" fill="black">S[5][0]</text>
  </a>
  <a id="a83" xlink:href="6.html">
    <rect id="a83" height="80" width="80" stroke="#000" y="1091" x="2239" stroke-width=".5" fill="none"/>
    <image y="1091" x="2239" xlink:href="b14d48e0-1285-11e4-9191-0800200c9a66/Exchanger.svg" width="80" height="80"/>
    <text y="1207" x="2279" font-size="15" text-anchor="middle" fill="black">S[5][1]</text>
  </a>
  <a id="a84" xlink:href="3.html">
    <rect id="a84" height="80" width="80" stroke="#000" y="1212" x="1976.2" stroke-width=".5" fill="none"/>
    <image y="1212" x="1976.2" xlink:href="b14d48e0-1285-11e4-9191-0800200c9a66/Exchanger.svg" width="80" height="80"/>
    <text y="1328" x="2016.25" font-size="15" text-anchor="middle" fill="black">S[5][2]</text>
  </a>
  <a id="a85" xlink:href="3.html">
    <rect id="a85" height="80" width="80" stroke="#000" y="1333" x="1713.5" stroke-width=".5" fill="none"/>
    <image y="1333" x="1713.5" xlink:href="b14d48e0-1285-11e4-9191-0800200c9a66/Exchanger.svg" width="80" height="80"/>
    <text y="1449" x="1753.5" font-size="15" text-anchor="middle" fill="black">S[5][3]</text>
  </a>
  <a id="a86" xlink:href="5.html">
    <rect id="a86" height="83.469" width="73" stroke="#000" y="769.96" x="126.5" stroke-width=".5" fill="none"/>
    <image y="769.96" x="126.5" xlink:href="b14d48e0-1285-11e4-9191-0800200c9a66/Divider.svg" width="73" height="83.469"/>
    <text y="868.434" x="163" font-size="15" text-anchor="middle" fill="black">SPLITA</text>
  </a>
  <a id="a87" xlink:href="6.html">
    <rect id="a87" height="83.438" width="73" stroke="#000" y="180.89" x="2800.8" stroke-width=".5" fill="none"/>
    <image y="180.89" x="2800.8" xlink:href="b14d48e0-1285-11e4-9191-0800200c9a66/Mixer.svg" width="73" height="83.438"/>
    <text y="279.328" x="2837.25" font-size="15" text-anchor="middle" fill="black">MIXA</text>
  </a>
  <a id="a88" xlink:href="6.html">
    <rect id="a88" height="83.469" width="73" stroke="#000" y="1296.5" x="126.5" stroke-width=".5" fill="none"/>
    <image y="1296.5" x="126.5" xlink:href="b14d48e0-1285-11e4-9191-0800200c9a66/Divider.svg" width="73" height="83.469"/>
    <text y="1394.96" x="163" font-size="15" text-anchor="middle" fill="black">SPLITB</text>
  </a>
  <a id="a89" xlink:href="5.html">
    <rect id="a89" height="83.438" width="73" stroke="#000" y="289.33" x="2800.8" stroke-width=".5" fill="none"/>
    <image y="289.33" x="2800.8" xlink:href="b14d48e0-1285-11e4-9191-0800200c9a66/Mixer.svg" width="73" height="83.438"/>
    <text y="387.766" x="2837.25" font-size="15" text-anchor="middle" fill="black">MIXB</text>
  </a>
</svg>
