<?xml version="1.0" encoding="UTF-8" standalone="no"?>
<svg xmlns:rdf="http://www.w3.org/1999/02/22-rdf-syntax-ns#" xmlns="http://www.w3.org/2000/svg" xmlns:cc="http://creativecommons.org/ns#" xmlns:xlink="http://www.w3.org/1999/xlink" xmlns:dc="http://purl.org/dc/elements/1.1/" id="svg2" height="60" width="99.986" version="1.1">
  <defs id="defs4">
    <radialGradient id="radialGradient5916" gradientUnits="userSpaceOnUse" cy="1025.1" cx="28" gradientTransform="matrix(0 1.0345 -1.7239 0 1796.2 995.11)" r="29">
      <stop id="stop3757" stop-color="#fff" offset="0"/>
      <stop id="stop3759" stop-color="#afafaf" offset="1"/>
    </radialGradient>
  </defs>
  <g id="layer1" transform="translate(20.993 -994.07)">
    <path id="path3811-4" fill-rule="evenodd" fill="url(#radialGradient5916)" d="m78.993 1024.1c0-16.555-8.6662-29.968-19.366-29.968-0.25893 0-0.50922 0.0167-0.76569 0.0323v-0.0647h-59.756v0.0647c-0.2453-0.015-0.4856-0.0323-0.7337-0.0323-10.699 0-19.366 13.413-19.366 29.968s8.6662 29.968 19.366 29.968c0.2268-0.073 0.6435 0.028 0.7337 0.032h59.756v-0.065c0.25647 0.016 0.50676 0.032 0.76569 0.032 10.699 0 19.366-13.413 19.366-29.968z"/>
    <rect id="rect3801" transform="rotate(90)" height="58.512" width="58.008" stroke="#000" y="-58.256" x="995.07" stroke-width="1.9917" fill="none"/>
    <path id="path3811" stroke="#000" stroke-width="2.0482" fill="none" d="m77.969 1024.1c0-16.003-8.4886-28.969-18.969-28.969-0.25363 0-0.49879 0.0162-0.75 0.0313v57.875c0.25121 0.015 0.49637 0.031 0.75 0.031 10.48 0 18.969-12.966 18.969-28.969z"/>
    <path id="path3811-8" stroke="#000" stroke-width="2.0482" fill="none" d="m-0.25 995.14c-0.2512-0.0151-0.4963-0.0313-0.75-0.0313-10.48 0-18.969 12.966-18.969 28.969s8.4886 28.969 18.969 28.969c0.2537 0 0.4988-0.016 0.75-0.031v-57.875z"/>
  </g>
</svg>
