<?xml version="1.0" encoding="UTF-8" standalone="no"?>
<svg xmlns:rdf="http://www.w3.org/1999/02/22-rdf-syntax-ns#" xmlns="http://www.w3.org/2000/svg" xmlns:cc="http://creativecommons.org/ns#" xmlns:xlink="http://www.w3.org/1999/xlink" xmlns:dc="http://purl.org/dc/elements/1.1/" id="svg2" height="80" width="80" version="1.1">
  <g id="layer1" transform="translate(19 -977.06)">
    <rect id="rect6109-7" height="78" width="78" y="978.07" x="-17.993" fill="#fff"/>
    <rect id="rect6109" height="78" width="78" stroke="#000" y="978.07" x="-17.993" stroke-width="2" fill="none"/>
    <text id="text6113" style="word-spacing:0px;letter-spacing:0px" font-family="Sans" xml:space="preserve" font-size="16px" line-height="125%" y="994.76959" x="19.118967" font-weight="bold" fill="#000000">
      <tspan id="tspan6131" y="994.76959" x="19.118967" style="text-anchor:middle;text-align:center">+</tspan>
      <tspan id="tspan6125" y="1014.7696" x="19.118967" style="text-anchor:middle;text-align:center"/>
      <tspan id="tspan6119" y="1034.7695" x="19.118967" style="text-anchor:middle;text-align:center"/>
      <tspan id="tspan6327" y="1055.3665" x="19.118967" style="text-anchor:middle;text-align:center">‒</tspan>
    </text>
    <rect id="rect6133" y="999.07" width="4" x="1" height="4"/>
    <rect id="rect6135" y="999.07" width="4" x="6" height="4"/>
    <rect id="rect6137" y="999.07" width="4" x="11" height="4"/>
    <rect id="rect6139" y="999.07" width="4" x="16" height="4"/>
    <rect id="rect6141" y="999.07" width="4" x="21" height="4"/>
    <rect id="rect6143" y="999.07" width="4" x="26" height="4"/>
    <rect id="rect6145" y="999.07" width="4" x="31" height="4"/>
    <rect id="rect6147" y="999.07" width="4" x="36" height="4"/>
    <rect id="rect6149" y="1004.1" width="4" x="1" height="4"/>
    <rect id="rect6151" y="1004.1" width="4" x="6" height="4"/>
    <rect id="rect6153" y="1004.1" width="4" x="11" height="4"/>
    <rect id="rect6155" y="1004.1" width="4" x="16" height="4"/>
    <rect id="rect6157" y="1004.1" width="4" x="21" height="4"/>
    <rect id="rect6159" y="1004.1" width="4" x="26" height="4"/>
    <rect id="rect6161" y="1004.1" width="4" x="31" height="4"/>
    <rect id="rect6163" y="1004.1" width="4" x="36" height="4"/>
    <rect id="rect6165" y="1009.1" width="4" x="1" height="4"/>
    <rect id="rect6167" y="1009.1" width="4" x="6" height="4"/>
    <rect id="rect6169" y="1009.1" width="4" x="11" height="4"/>
    <rect id="rect6171" y="1009.1" width="4" x="16" height="4"/>
    <rect id="rect6173" y="1009.1" width="4" x="21" height="4"/>
    <rect id="rect6175" y="1009.1" width="4" x="26" height="4"/>
    <rect id="rect6177" y="1009.1" width="4" x="31" height="4"/>
    <rect id="rect6179" y="1009.1" width="4" x="36" height="4"/>
    <rect id="rect6181" y="1014.1" width="4" x="1" height="4"/>
    <rect id="rect6183" y="1014.1" width="4" x="6" height="4"/>
    <rect id="rect6185" y="1014.1" width="4" x="11" height="4"/>
    <rect id="rect6187" y="1014.1" width="4" x="16" height="4"/>
    <rect id="rect6189" y="1014.1" width="4" x="21" height="4"/>
    <rect id="rect6191" y="1014.1" width="4" x="26" height="4"/>
    <rect id="rect6193" y="1014.1" width="4" x="31" height="4"/>
    <rect id="rect6195" y="1014.1" width="4" x="36" height="4"/>
    <rect id="rect6197" y="1019.1" width="4" x="1" height="4"/>
    <rect id="rect6199" y="1019.1" width="4" x="6" height="4"/>
    <rect id="rect6201" y="1019.1" width="4" x="11" height="4"/>
    <rect id="rect6203" y="1019.1" width="4" x="16" height="4"/>
    <rect id="rect6205" y="1019.1" width="4" x="21" height="4"/>
    <rect id="rect6207" y="1019.1" width="4" x="26" height="4"/>
    <rect id="rect6209" y="1019.1" width="4" x="31" height="4"/>
    <rect id="rect6211" y="1019.1" width="4" x="36" height="4"/>
    <rect id="rect6213" y="1024.1" width="4" x="1" height="4"/>
    <rect id="rect6215" y="1024.1" width="4" x="6" height="4"/>
    <rect id="rect6217" y="1024.1" width="4" x="11" height="4"/>
    <rect id="rect6219" y="1024.1" width="4" x="16" height="4"/>
    <rect id="rect6221" y="1024.1" width="4" x="21" height="4"/>
    <rect id="rect6223" y="1024.1" width="4" x="26" height="4"/>
    <rect id="rect6225" y="1024.1" width="4" x="31" height="4"/>
    <rect id="rect6227" y="1024.1" width="4" x="36" height="4"/>
    <rect id="rect6229" y="1029.1" width="4" x="1" height="4"/>
    <rect id="rect6231" y="1029.1" width="4" x="6" height="4"/>
    <rect id="rect6233" y="1029.1" width="4" x="11" height="4"/>
    <rect id="rect6235" y="1029.1" width="4" x="16" height="4"/>
    <rect id="rect6237" y="1029.1" width="4" x="21" height="4"/>
    <rect id="rect6239" y="1029.1" width="4" x="26" height="4"/>
    <rect id="rect6241" y="1029.1" width="4" x="31" height="4"/>
    <rect id="rect6243" y="1029.1" width="4" x="36" height="4"/>
    <rect id="rect6245" y="1034.1" width="4" x="1" height="4"/>
    <rect id="rect6247" y="1034.1" width="4" x="6" height="4"/>
    <rect id="rect6249" y="1034.1" width="4" x="11" height="4"/>
    <rect id="rect6251" y="1034.1" width="4" x="16" height="4"/>
    <rect id="rect6253" y="1034.1" width="4" x="21" height="4"/>
    <rect id="rect6255" y="1034.1" width="4" x="26" height="4"/>
    <rect id="rect6257" y="1034.1" width="4" x="31" height="4"/>
    <rect id="rect6259" y="1034.1" width="4" x="36" height="4"/>
    <rect id="rect6263" y="999.07" width="4" x="41" height="4"/>
    <rect id="rect6265" y="999.07" width="4" x="46" height="4"/>
    <rect id="rect6267" y="1004.1" width="4" x="41" height="4"/>
    <rect id="rect6269" y="1004.1" width="4" x="46" height="4"/>
    <rect id="rect6271" y="1009.1" width="4" x="41" height="4"/>
    <rect id="rect6273" y="1009.1" width="4" x="46" height="4"/>
    <rect id="rect6275" y="1014.1" width="4" x="41" height="4"/>
    <rect id="rect6277" y="1014.1" width="4" x="46" height="4"/>
    <rect id="rect6279" y="1019.1" width="4" x="41" height="4"/>
    <rect id="rect6281" y="1019.1" width="4" x="46" height="4"/>
    <rect id="rect6283" y="1024.1" width="4" x="41" height="4"/>
    <rect id="rect6285" y="1024.1" width="4" x="46" height="4"/>
    <rect id="rect6287" y="1029.1" width="4" x="41" height="4"/>
    <rect id="rect6289" y="1029.1" width="4" x="46" height="4"/>
    <rect id="rect6291" y="1034.1" width="4" x="41" height="4"/>
    <rect id="rect6293" y="1034.1" width="4" x="46" height="4"/>
    <rect id="rect6295" y="999.07" width="4" x="-9" height="4"/>
    <rect id="rect6297" y="999.07" width="4" x="-4" height="4"/>
    <rect id="rect6299" y="1004.1" width="4" x="-9" height="4"/>
    <rect id="rect6301" y="1004.1" width="4" x="-4" height="4"/>
    <rect id="rect6303" y="1009.1" width="4" x="-9" height="4"/>
    <rect id="rect6305" y="1009.1" width="4" x="-4" height="4"/>
    <rect id="rect6307" y="1014.1" width="4" x="-9" height="4"/>
    <rect id="rect6309" y="1014.1" width="4" x="-4" height="4"/>
    <rect id="rect6311" y="1019.1" width="4" x="-9" height="4"/>
    <rect id="rect6313" y="1019.1" width="4" x="-4" height="4"/>
    <rect id="rect6315" y="1024.1" width="4" x="-9" height="4"/>
    <rect id="rect6317" y="1024.1" width="4" x="-4" height="4"/>
    <rect id="rect6319" y="1029.1" width="4" x="-9" height="4"/>
    <rect id="rect6321" y="1029.1" width="4" x="-4" height="4"/>
    <rect id="rect6323" y="1034.1" width="4" x="-9" height="4"/>
    <rect id="rect6325" y="1034.1" width="4" x="-4" height="4"/>
  </g>
</svg>
