<?xml version="1.0" encoding="UTF-8" standalone="no"?>
<svg xmlns:rdf="http://www.w3.org/1999/02/22-rdf-syntax-ns#" xmlns="http://www.w3.org/2000/svg" xmlns:cc="http://creativecommons.org/ns#" xmlns:xlink="http://www.w3.org/1999/xlink" xmlns:dc="http://purl.org/dc/elements/1.1/" id="svg2" height="232.5" width="200" version="1.1">
  <defs id="defs4">
    <marker id="Arrow1Mstart" refY="0.0" refX="0.0" overflow="visible" orient="auto">
      <path id="path7115" d="m0 0l5-5-17.5 5 17.5 5-5-5z" fill-rule="evenodd" transform="scale(.4) translate(10)" stroke="#000" stroke-width="1pt"/>
    </marker>
    <marker id="Arrow1Mend" refY="0" refX="0" overflow="visible" orient="auto">
      <path id="path7118" d="m0 0 5-5-17.5 5 17.5 5-5-5z" fill-rule="evenodd" transform="matrix(-.4 0 0 -.4 -4 0)" stroke="#000" stroke-width="1pt"/>
    </marker>
    <radialGradient id="radialGradient6526" xlink:href="#linearGradient3755-8" gradientUnits="userSpaceOnUse" cy="-13.75" cx="-57.75" gradientTransform="matrix(1 0 0 .66037 0 -4.67)" r="38.277"/>
    <radialGradient id="radialGradient5916" xlink:href="#linearGradient3755-8" gradientUnits="userSpaceOnUse" cy="1025.1" cx="28" gradientTransform="matrix(1.0345 0 0 1.7239 .034483 -743.09)" r="29"/>
    <linearGradient id="linearGradient3755-8">
      <stop id="stop3757-1" stop-color="#fff" offset="0"/>
      <stop id="stop3759-0" stop-color="#afafaf" offset="1"/>
    </linearGradient>
  </defs>
  <g id="layer1" transform="translate(140.99 -831.57)">
    <path id="path6546" d="m-20.25-13.75c0 13.531-16.789 24.5-37.5 24.5s-37.5-10.969-37.5-24.5 16.789-24.5 37.5-24.5 37.5 10.969 37.5 24.5z" transform="matrix(1.3 0 0 1.9898 -15.918 1041.4)" stroke="#000" stroke-width="1.5545" fill="url(#radialGradient6526)"/>
    <path id="path6550" d="m-20.25-13.75c0 13.531-16.789 24.5-37.5 24.5s-37.5-10.969-37.5-24.5 16.789-24.5 37.5-24.5 37.5 10.969 37.5 24.5z" transform="matrix(1.04 0 0 1.5918 -30.933 1046)" stroke="#000" stroke-width="1.5545" fill="none"/>
    <path id="path6514" d="m-20.25-13.75c0 13.531-16.789 24.5-37.5 24.5s-37.5-10.969-37.5-24.5 16.789-24.5 37.5-24.5 37.5 10.969 37.5 24.5z" transform="matrix(1.04 0 0 1.5918 79.067 1036)" stroke="#000" stroke-width="1.5545" fill="url(#radialGradient6526)"/>
    <path id="path6547" d="m1 40h19l10-20 20 40 10-20h19" transform="translate(-20.993 974.07)" stroke="#000" stroke-width="2" fill="none"/>
    <g id="layer1-7" transform="translate(-9.993 -117.2)">
      <path id="path3811-4" fill-rule="evenodd" fill="url(#radialGradient5916)" d="m29 974.08c-16.555 0-29.968 8.6662-29.968 19.366 0 0.25893 0.016748 0.50922 0.032328 0.76569h-0.064655v59.756h0.064655c-0.01499 0.2453-0.032328 0.4856-0.032328 0.7337 0 10.699 13.413 19.366 29.968 19.366s29.968-8.6662 29.968-19.366c-0.0734-0.2268 0.02835-0.6435 0.03233-0.7337v-59.756h-0.06466c0.01557-0.25647 0.03233-0.50676 0.03233-0.76569 0-10.699-13.413-19.366-29.968-19.366z"/>
      <rect id="rect3801" height="58.512" width="58.008" stroke="#000" y="994.82" x="-.0041721" stroke-width="1.9917" fill="none"/>
      <path id="path3811" stroke="#000" stroke-width="2.0482" fill="none" d="m29 975.11c-16.003 0-28.969 8.4886-28.969 18.969 0 0.25363 0.016195 0.49879 0.03125 0.75h57.875c0.01505-0.25121 0.03125-0.49637 0.03125-0.75 0-10.48-12.966-18.969-28.969-18.969z"/>
      <path id="path3811-8" stroke="#000" stroke-width="2.0482" fill="none" d="m0.0625 1053.3c-0.015055 0.2512-0.03125 0.4963-0.03125 0.75 0 10.48 12.966 18.969 28.969 18.969s28.969-8.4886 28.969-18.969c0-0.2537-0.0162-0.4988-0.03125-0.75h-57.875z"/>
    </g>
    <path id="rect7062" d="m-119-11v50h0.28125c0.54-26.459 22.133-47.75 48.72-47.75s48.182 21.291 48.719 47.75h0.281v-50h-98z" transform="translate(-20.993 974.07)" stroke="#000" stroke-width="2" fill="#afafaf"/>
    <path id="path7074" d="m-70 11v78" transform="translate(-20.993 974.07)" stroke="#000" stroke-width="1px" fill="none"/>
    <path id="path7076" stroke="#000" stroke-width="1px" fill="none" d="m-105.92 988.04 29.849 72.063"/>
    <path id="path7088" stroke="#000" stroke-width="1px" fill="none" d="m-118.57 996.5 55.154 55.154"/>
    <path id="path7090" stroke="#000" stroke-width="1px" fill="none" d="m-127.02 1009.1 72.063 29.849"/>
    <path id="path7092" stroke="#000" stroke-width="1px" fill="none" d="m-129.99 1024.1 78-0.0001"/>
    <path id="path7094" stroke="#000" stroke-width="1px" fill="none" d="m-127.02 1039 72.063-29.849"/>
    <path id="path7096" stroke="#000" stroke-width="1px" fill="none" d="m-118.57 1051.7 55.154-55.154"/>
    <path id="path7098" stroke="#000" stroke-width="1px" fill="none" d="m-105.92 1060.1 29.849-72.063"/>
    <path id="path7100" marker-end="url(#Arrow1Mend)" d="m0.625 40.25-18.087-0.25" transform="translate(-20.993 974.07)" stroke="#000" stroke-width="2" fill="none"/>
    <path id="path7102" d="m19.007 972.57v-16.824" marker-start="url(#Arrow1Mstart)" stroke="#000" stroke-width="2" fill="none"/>
    <path id="path8302" marker-end="url(#Arrow1Mend)" d="m-49.497-11.57v-58.336h59.397" transform="translate(-20.993 974.07)" stroke="#000" stroke-width="2" fill="none"/>
    <path id="path8304" d="m-89.5-14.2v-125.3" marker-start="url(#Arrow1Mstart)" transform="translate(-20.993 974.07)" stroke="#000" stroke-width="2" fill="none"/>
    <path id="path8306" marker-end="url(#Arrow1Mend)" d="m40-116v-24" transform="translate(-20.993 974.07)" stroke="#000" stroke-width="2" fill="none"/>
  </g>
</svg>
