<?xml version="1.0" encoding="UTF-8" standalone="no"?>
<svg xmlns:rdf="http://www.w3.org/1999/02/22-rdf-syntax-ns#" xmlns="http://www.w3.org/2000/svg" xmlns:cc="http://creativecommons.org/ns#" xmlns:xlink="http://www.w3.org/1999/xlink" xmlns:dc="http://purl.org/dc/elements/1.1/" id="svg2" height="30" width="99.995" version="1.1">
  <defs id="defs4">
    <linearGradient id="linearGradient6652" y2="1071.8" gradientUnits="userSpaceOnUse" y1="1033.3" x2="94.954" x1="94.6">
      <stop id="stop6638" stop-color="#505050" offset="0"/>
      <stop id="stop6640" stop-color="#fff" offset="1"/>
    </linearGradient>
  </defs>
  <g id="layer1" stroke="#000" transform="translate(-77.1 -1042.1)">
    <rect id="rect6489" ry="80" rx="80" transform="translate(-2 970.62)" height="0" width="0" y="10.969" x="-58.75" stroke-width="2" fill="none"/>
    <path id="rect3801" stroke-width="1.9907" fill="url(#linearGradient6652)" d="m87.095 1071.1c-5.24 0-9-6.4907-9-14.492 0-8.0015 3.76-13.512 9-13.512l80-0.0002c-5.1937 0.014-9 5.9985-9 14s3.8063 13.996 9 14z"/>
    <path id="path3811" stroke-width="2" transform="translate(77.1 1042.1)" fill="#fff" d="m90 1c-5.24 0-9 5.9986-9 14 0 8.001 3.76 14 9 14s9-5.999 9-14c0-8.0014-3.76-14-9-14z"/>
  </g>
</svg>
