<?xml version="1.0" encoding="UTF-8" standalone="no"?>
<svg xmlns:rdf="http://www.w3.org/1999/02/22-rdf-syntax-ns#" xmlns="http://www.w3.org/2000/svg" xmlns:cc="http://creativecommons.org/ns#" xmlns:xlink="http://www.w3.org/1999/xlink" xmlns:dc="http://purl.org/dc/elements/1.1/" id="svg2" height="85" width="80" version="1.1">
  <defs id="defs4">
    <radialGradient id="radialGradient6088" gradientUnits="userSpaceOnUse" cy="-13.75" cx="-57.75" gradientTransform="matrix(1 0 0 .66037 0 -4.67)" r="38.277">
      <stop id="stop3757" stop-color="#fff" offset="0"/>
      <stop id="stop3759" stop-color="#aaa" offset="1"/>
    </radialGradient>
  </defs>
  <g id="layer1" stroke="#000" transform="translate(20.993 -974.07)">
    <path id="path5491" stroke-width="2" transform="translate(-20.993 974.07)" fill="#a0a0a0" d="m12 68-11 16h78l-11-16h-0.875c-7.02 6.803-16.577 11-27.125 11s-20.105-4.197-27.125-11h-0.875z"/>
    <path id="path6514" stroke-width="1.5545" transform="matrix(1.04 0 0 1.5918 79.067 1036)" fill="url(#radialGradient6088)" d="m-20.25-13.75c0 13.531-16.789 24.5-37.5 24.5s-37.5-10.969-37.5-24.5 16.789-24.5 37.5-24.5 37.5 10.969 37.5 24.5z"/>
    <path id="path6083" stroke-width="2" transform="translate(-20.993 974.07)" fill="#a0a0a0" d="m40 1c10.77 0 20.505 4.3799 27.562 11.438l11.438-11.438h-39z"/>
  </g>
</svg>
