<?xml version="1.0" encoding="UTF-8" standalone="no"?>
<svg xmlns:rdf="http://www.w3.org/1999/02/22-rdf-syntax-ns#" xmlns="http://www.w3.org/2000/svg" xmlns:cc="http://creativecommons.org/ns#" xmlns:xlink="http://www.w3.org/1999/xlink" xmlns:dc="http://purl.org/dc/elements/1.1/" id="svg2" height="99.986" width="60" version="1.1">
  <defs id="defs4">
    <radialGradient id="radialGradient5916" gradientUnits="userSpaceOnUse" cy="1025.1" cx="28" gradientTransform="matrix(1.0345 0 0 1.7239 .034483 -743.09)" r="29">
      <stop id="stop3757" stop-color="#fff" offset="0"/>
      <stop id="stop3759" stop-color="#b4b4b4" offset="1"/>
    </radialGradient>
  </defs>
  <g id="layer1" transform="translate(1 -974.08)">
    <path id="path3811-4" fill-rule="evenodd" fill="url(#radialGradient5916)" d="m29 974.08c-16.555 0-29.968 8.6662-29.968 19.366 0 0.25893 0.016748 0.50922 0.032328 0.76569h-0.064655v59.756h0.064655c-0.01499 0.2453-0.032328 0.4856-0.032328 0.7337 0 10.699 13.413 19.366 29.968 19.366s29.968-8.6662 29.968-19.366c-0.0734-0.2268 0.02835-0.6435 0.03233-0.7337v-59.756h-0.06466c0.01557-0.25647 0.03233-0.50676 0.03233-0.76569 0-10.699-13.413-19.366-29.968-19.366z"/>
    <g id="g4398" stroke="#000" fill="none">
      <path id="path3854" stroke-width="1.9016" d="m0 1053.1 58-58.03"/>
      <rect id="rect3801" height="58.512" width="58.008" y="994.82" x="-.0041721" stroke-width="1.9917"/>
      <path id="path3811" stroke-width="2.0482" d="m29 975.11c-16.003 0-28.969 8.4886-28.969 18.969 0 0.25363 0.016195 0.49879 0.03125 0.75h57.875c0.01505-0.25121 0.03125-0.49637 0.03125-0.75 0-10.48-12.966-18.969-28.969-18.969z"/>
      <path id="path3811-8" stroke-width="2.0482" d="m0.0625 1053.3c-0.015055 0.2512-0.03125 0.4963-0.03125 0.75 0 10.48 12.966 18.969 28.969 18.969s28.969-8.4886 28.969-18.969c0-0.2537-0.0162-0.4988-0.03125-0.75h-57.875z"/>
      <path id="path3852" stroke-width="2" d="m0 995.07 58 58"/>
    </g>
  </g>
</svg>
