<?xml version="1.0" encoding="UTF-8" standalone="no"?>
<svg xmlns:rdf="http://www.w3.org/1999/02/22-rdf-syntax-ns#" xmlns="http://www.w3.org/2000/svg" xmlns:i="&#38;ns_ai;" xmlns:cc="http://creativecommons.org/ns#" xmlns:xlink="http://www.w3.org/1999/xlink" xmlns:dc="http://purl.org/dc/elements/1.1/" id="Слой_1" version="1.1" xml:space="preserve" height="217.74" viewBox="0 0 217.735 217.735" width="217.74" enable-background="new 0 0 217.735 217.735" y="0px" x="0px">
  <path id="path25" d="m161.12 145c-0.76 0.371-1.494 0.788-2.189 1.24-0.694 0.453-1.35 0.943-1.953 1.464-3.205 2.765-4.89 6.795-4.691 11.23 0.155 3.469 1.095 5.691 3.412 8.1 2.614 2.716 4.958 4.045 12.417 7.045 4.666 1.875 7.391 3.287 8.56 4.43 0.977 0.953 1.259 1.604 1.25 2.874-0.006 0.854-0.054 1.113-0.318 1.623-0.545 1.058-1.447 1.703-3.288 2.363-1.489 0.535-2.773 0.645-4.527 0.645-21.646 0.003-151.81 0.013-169.56 0v10.86c18.549 0.026 153.15-0.023 167.28-0.008 1.24 0.003 5.54-0.04 6.705-0.22 3.417-0.532 6.336-1.628 8.913-3.356 2.498-1.675 4.412-3.986 5.591-6.599 0.802-1.8 1.35-4.092 1.353-6.255-0.002-0.721-0.055-1.445-0.166-2.167-0.229-1.525-0.573-2.588-1.271-3.951-2.043-3.994-6.086-6.678-14.418-9.578-6.375-2.216-8.854-3.704-9.898-5.937-0.897-1.933 0.636-3.718 2.723-4.511 6.331-2.408 42.01-15.891 50.691-19.184v-11.609c-9.519 3.593-45.031 16.995-54.529 20.618-0.796 0.305-1.331 0.509-2.091 0.883z" fill="#fff"/>
  <g id="g27" fill="#fff">
    <path id="path29" d="m69.613 63.945s-4.333-1-4.333-9 12-19 64.333-16 6.666-0.333 7.333 3 3 10.666-2.667 13.333-35.667-3.666-50.667 3.334-13.999 5.333-13.999 5.333z"/>
    <path id="path31" d="m73.529 67.194 14.167 6s15.083-4.792 40.333-3.292-21.417-10.207-35.583-9.624c0 0-9.667 1.499-18.917 6.916z"/>
    <path id="path33" d="m69.613 101.03s-4.333-1-4.333-9 12-19 64.333-16 6.666-0.333 7.333 3 3 10.666-2.667 13.333-35.667-3.666-50.667 3.334-13.999 5.333-13.999 5.333z"/>
    <path id="path35" d="m73.529 105.28 14.167 6s15.083-4.792 40.333-3.292-21.417-10.207-35.583-9.624c0 0-9.667 1.499-18.917 6.916z"/>
    <path id="path37" d="m69.613 139.15s-4.333-1-4.333-9 12-19 64.333-16 6.666-0.333 7.333 3 3 10.666-2.667 13.333-35.667-3.666-50.667 3.334-13.999 5.333-13.999 5.333z"/>
    <path id="path39" d="m80.265 140.48s12.657-5.927 14.265-6.43c1.607-0.502 30.338-2.008 33.05-0.702s-3.315 4.923-12.155 6.53c-3.658 0.665-31.343 3.616-35.16 0.602z"/>
  </g>
  <g id="g41" fill="#fff">
    <path id="path43" d="m69.613 63.945s-4.333-1-4.333-9 12-19 64.333-16 6.666-0.333 7.333 3 3 10.666-2.667 13.333-35.667-3.666-50.667 3.334-13.999 5.333-13.999 5.333z"/>
    <path id="path45" d="m73.529 67.194 14.167 6s15.083-4.792 40.333-3.292-21.417-10.207-35.583-9.624c0 0-9.667 1.499-18.917 6.916z"/>
    <path id="path47" d="m69.613 101.03s-4.333-1-4.333-9 12-19 64.333-16 6.666-0.333 7.333 3 3 10.666-2.667 13.333-35.667-3.666-50.667 3.334-13.999 5.333-13.999 5.333z"/>
    <path id="path49" d="m73.529 105.28 14.167 6s15.083-4.792 40.333-3.292-21.417-10.207-35.583-9.624c0 0-9.667 1.499-18.917 6.916z"/>
    <path id="path51" d="m69.613 139.15s-4.333-1-4.333-9 12-19 64.333-16 6.666-0.333 7.333 3 3 10.666-2.667 13.333-35.667-3.666-50.667 3.334-13.999 5.333-13.999 5.333z"/>
    <path id="path53" d="m80.265 140.48s12.657-5.927 14.265-6.43c1.607-0.502 30.338-2.008 33.05-0.702s-3.315 4.923-12.155 6.53c-3.658 0.665-31.343 3.616-35.16 0.602z"/>
  </g>
</svg>
