<?xml version="1.0" encoding="UTF-8" standalone="no"?>
<svg xmlns:rdf="http://www.w3.org/1999/02/22-rdf-syntax-ns#" xmlns="http://www.w3.org/2000/svg" xmlns:i="&#38;ns_ai;" xmlns:cc="http://creativecommons.org/ns#" xmlns:xlink="http://www.w3.org/1999/xlink" xmlns:dc="http://purl.org/dc/elements/1.1/" id="Слой_1" version="1.1" xml:space="preserve" height="73.955px" viewBox="0 0 115.164 73.955" width="115.16px" enable-background="new 0 0 115.164 73.955" y="0px" x="0px">
  <rect id="rect11" height="73.888" width="79.543" y=".034" x="17.632" fill="#1d1d1b"/>
  <polygon id="polygon13" points="57.77 68.843 57.715 4.728 75.062 4.712 91.916 4.698 91.971 68.813" fill="#bbb"/>
  <rect id="rect15" height="64.115" width="35.194" y="4.742" x="22.548" fill="#e1e1e1"/>
  <polygon id="polygon17" stroke="#1d1d1b" points="37.072 15.098 54.408 15.083 54.442 55.058 60.173 55.054 60.139 15.078 77.046 15.064 77.08 55.039 83.099 55.033 83.065 15.059 105.85 15.039 105.87 37.966 114.02 37.959 114.02 43.69 100.14 43.702 100.12 20.49 89.088 20.499 89.123 60.762 71.5 60.777 71.465 20.802 65.59 20.808 65.625 60.782 48.431 60.797 48.396 20.965 42.951 20.97 42.985 60.801 25.792 60.816 25.759 21.128 14.152 21.138 14.171 43.775 1.134 43.786 1.128 37.912 8.435 37.905 8.416 15.122 31.483 15.103 31.518 55.077 37.106 55.073" stroke-miterlimit="10" stroke-width="2" fill="#eee"/>
  <rect id="rect19" height="3.658" width="2.483" y="39.026" x=".001" fill="#fffecb"/>
  <rect id="rect21" height="3.521" width="3.071" y="39.052" x="112.09" fill="#fffecb"/>
</svg>
