<?xml version="1.0" encoding="UTF-8" standalone="no"?>
<svg xmlns="http://www.w3.org/2000/svg" xmlns:xlink="http://www.w3.org/1999/xlink" id="Слой_1" xml:space="preserve" height="182.58px" viewBox="0 0 191.521 182.581" width="191.52px" version="1.1" y="0px" x="0px" enable-background="new 0 0 191.521 182.581">
<switch>
  <g>
    <path display="none" d="m195.61 43.375c0-22.748-44.455-47.195-99.604-47.195-55.143-0.001-100.1 24.446-100.1 47.195 0 0.611 0.039 1.219 0.103 1.825h-0.103v96.183c0 22.749 44.706 41.188 99.854 41.188s99.854-18.439 99.854-41.188v-96.181h-0.103c0.07-0.606 0.1-1.213 0.1-1.824z"/>
    <ellipse cy="143.08" cx="95.76" rx="95.76" ry="39.5"/>
    <linearGradient id="SVGID_1_" gradientUnits="userSpaceOnUse" x2="191.52" y2="139.25" y1="139.25">
      <stop stop-color="#009460" offset="0"/>
      <stop stop-color="#00AC69" offset=".0693"/>
      <stop stop-color="#00BF71" offset=".1471"/>
      <stop stop-color="#00CA76" offset=".2269"/>
      <stop stop-color="#00CE77" offset=".3112"/>
      <stop stop-color="#00B469" offset=".5009"/>
      <stop stop-color="#007245" offset="1"/>
    </linearGradient>
    <ellipse cy="139.25" cx="95.76" rx="95.76" ry="39.5" fill="url(#SVGID_1_)"/>
    <linearGradient id="SVGID_2_" gradientUnits="userSpaceOnUse" x2="191.52" y2="93.13" y1="93.13">
      <stop stop-color="#009460" offset="0"/>
      <stop stop-color="#00AC69" offset=".0693"/>
      <stop stop-color="#00BF71" offset=".1471"/>
      <stop stop-color="#00CA76" offset=".2269"/>
      <stop stop-color="#00CE77" offset=".3112"/>
      <stop stop-color="#00B469" offset=".5009"/>
      <stop stop-color="#007245" offset="1"/>
    </linearGradient>
    <rect y="47.01" width="191.52" fill="url(#SVGID_2_)" height="92.24"/>
    <linearGradient id="SVGID_3_" gradientUnits="userSpaceOnUse" x2="191.52" y2="57.37" y1="57.37">
      <stop stop-color="#2B2B2B" offset="0"/>
      <stop stop-color="#3B3B3B" offset=".0015"/>
      <stop stop-color="#5F5F5F" offset=".0054"/>
      <stop stop-color="#808080" offset=".0098"/>
      <stop stop-color="#9B9B9B" offset=".0146"/>
      <stop stop-color="#B1B1B1" offset=".0201"/>
      <stop stop-color="#C2C2C2" offset=".0266"/>
      <stop stop-color="#CECECE" offset=".0345"/>
      <stop stop-color="#D4D4D4" offset=".0456"/>
      <stop stop-color="#D6D6D6" offset=".0765"/>
      <stop stop-color="#D1D1D1" offset=".1754"/>
      <stop stop-color="#C2C2C2" offset=".2976"/>
      <stop stop-color="#A9A9A9" offset=".432"/>
      <stop stop-color="#858585" offset=".5754"/>
      <stop stop-color="#585858" offset=".7259"/>
      <stop stop-color="#222" offset=".8799"/>
      <stop stop-color="#0F0F0F" offset=".9286"/>
    </linearGradient>
    <path d="m191.52 60.25c0 21.815-42.873 39.5-95.761 39.5-52.886 0-95.759-17.684-95.759-39.5s43.113-45.26 96-45.26c52.89 0 95.52 23.445 95.52 45.26z" fill="url(#SVGID_3_)"/>
    <linearGradient id="SVGID_4_" gradientUnits="userSpaceOnUse" x2="191.52" y2="52.19" y1="52.19">
      <stop stop-color="#2B2B2B" offset="0"/>
      <stop stop-color="#3B3B3B" offset=".0015"/>
      <stop stop-color="#5F5F5F" offset=".0054"/>
      <stop stop-color="#808080" offset=".0098"/>
      <stop stop-color="#9B9B9B" offset=".0146"/>
      <stop stop-color="#B1B1B1" offset=".0201"/>
      <stop stop-color="#C2C2C2" offset=".0266"/>
      <stop stop-color="#CECECE" offset=".0345"/>
      <stop stop-color="#D4D4D4" offset=".0456"/>
      <stop stop-color="#D6D6D6" offset=".0765"/>
      <stop stop-color="#D1D1D1" offset=".1754"/>
      <stop stop-color="#C2C2C2" offset=".2976"/>
      <stop stop-color="#A9A9A9" offset=".432"/>
      <stop stop-color="#858585" offset=".5754"/>
      <stop stop-color="#585858" offset=".7259"/>
      <stop stop-color="#222" offset=".8799"/>
      <stop stop-color="#0F0F0F" offset=".9286"/>
    </linearGradient>
    <rect y="44.13" width="191.52" fill="url(#SVGID_4_)" height="16.121"/>
    <linearGradient id="SVGID_5_" y2="-.1135" gradientUnits="userSpaceOnUse" y1="90.264" x2="161.46" x1="28.101">
      <stop stop-color="#009460" offset="2e-8"/>
      <stop stop-color="#018F5C" offset=".0983"/>
      <stop stop-color="#067548" offset=".6599"/>
      <stop stop-color="#086B41" offset=".9949"/>
    </linearGradient>
    <path d="m191.52 45.26c0 21.815-42.873 39.5-95.761 39.5-52.886 0-95.759-17.684-95.759-39.5s43.113-45.26 96-45.26c52.89 0 95.52 23.445 95.52 45.26z" fill="url(#SVGID_5_)"/>
    <path d="m92.667 8.75s-74.333 14.334-74.333 54.333 0 83.333 0 83.333 24.667 16.333 73 16.333c48.333 0 64.001-9.333 64.001-9.333v-86c-0.01-0.003-0.01-35.67-62.673-58.67z" fill="none"/>
      <defs>
        <path id="SVGID_6_" d="m92.667 8.75s-74.333 14.334-74.333 54.333 0 91.5 0 91.5 24.667 16.333 73 16.333c48.333 0 64.001-9.333 64.001-9.333v-94.163c-0.01 0-0.01-35.667-62.673-58.667z"/>
      </defs>
      <clipPath id="SVGID_7_">
        <use overflow="visible" xlink:href="#SVGID_6_"/>
      </clipPath>
      <linearGradient id="SVGID_8_" y2="89.834" gradientUnits="userSpaceOnUse" y1="89.834" x2="155.33" x1="18.333">
        <stop stop-color="#39A1DF" offset=".0051"/>
        <stop stop-color="#3EABE5" offset=".2935"/>
        <stop stop-color="#4CC5F6" offset=".7771"/>
        <stop stop-color="#54D3FF" offset="1"/>
      </linearGradient>
      <path clip-path="url(#SVGID_7_)" d="m92.667 8.75s-74.333 14.334-74.333 54.333 0 91.5 0 91.5 24.667 16.333 73 16.333c48.333 0 64.001-9.333 64.001-9.333v-94.163c-0.01 0-0.01-35.667-62.673-58.667z" fill="url(#SVGID_8_)"/>
      <ellipse clip-path="url(#SVGID_7_)" rx="95.76" ry="39.5" cy="134" cx="95.76" fill="#E9AB00"/>
      <linearGradient id="SVGID_9_" y2="66.93" gradientUnits="userSpaceOnUse" y1="154.26" x2="113.49" x1="50.965">
        <stop stop-color="#FFEEA9" offset=".0765"/>
        <stop stop-color="#FFEDA6" offset=".3568"/>
        <stop stop-color="#FFE99C" offset=".5675"/>
        <stop stop-color="#FFE38C" offset=".7555"/>
        <stop stop-color="#FFDA76" offset=".9292"/>
        <stop stop-color="#FFD66A" offset="1"/>
      </linearGradient>
      <ellipse clip-path="url(#SVGID_7_)" rx="95.76" ry="39.501" cy="91.689" cx="95.76" fill="url(#SVGID_9_)"/>
    <circle cy="139.83" cx="28.555" r="4.75" fill="#fff"/>
    <circle cy="155.67" cx="61.009" r="4.75" fill="#fff"/>
    <circle cy="142.58" cx="87.526" r="4.75" fill="#fff"/>
    <circle cy="155.67" cx="110.8" r="4.75" fill="#fff"/>
    <circle cy="139.83" cx="130.68" r="4.75" fill="#fff"/>
    <circle cy="138.33" cx="54.759" r="4.75" fill="#fff"/>
    <circle cy="155.67" cx="148.1" r="4.75" fill="#fff"/>
    <path stroke="#D49500" stroke-miterlimit="10" d="m92.667 8.75s-74.333 14.334-74.333 54.333 0 91.5 0 91.5 24.667 16.333 73 16.333c48.333 0 64.001-9.333 64.001-9.333v-94.163c-0.01 0-0.01-35.667-62.673-58.667z" fill="none"/>
    <path d="m84.482 89.668s-16.467-26.825-7.666-52.026l-9.652-5.042 26.404-17.887v31.231l-7.637-3.975s-5.365 22.43 10.79 47.699h-12.239z" fill="#003B94"/>
  </g>
</switch>
</svg>
