<?xml version="1.0" encoding="UTF-8" standalone="no"?>
<svg xmlns:rdf="http://www.w3.org/1999/02/22-rdf-syntax-ns#" xmlns="http://www.w3.org/2000/svg" xmlns:i="&#38;ns_ai;" xmlns:cc="http://creativecommons.org/ns#" xmlns:xlink="http://www.w3.org/1999/xlink" xmlns:dc="http://purl.org/dc/elements/1.1/" id="Слой_1" version="1.1" xml:space="preserve" height="217.74px" viewBox="0 0 217.735 217.735" width="217.74px" enable-background="new 0 0 217.735 217.735" y="0px" x="0px">
  <path id="path25" d="m163.5 144.11c-0.76 0.371-1.494 0.788-2.189 1.24-0.693 0.453-1.35 0.943-1.953 1.464-3.205 2.765-4.889 6.795-4.691 11.23 0.156 3.469 1.096 5.691 3.412 8.1 2.615 2.716 4.959 4.045 12.418 7.045 4.666 1.875 7.391 3.287 8.559 4.43 0.977 0.953 1.26 1.604 1.25 2.874-0.006 0.854-0.054 1.113-0.318 1.623-0.545 1.058-1.447 1.703-3.287 2.363-1.49 0.535-2.773 0.645-4.527 0.645-21.646 0.003-154.42 0.013-172.17 0v10.86c18.549 0.026 155.76-0.023 169.89-0.008 1.24 0.003 5.54-0.04 6.705-0.22 3.416-0.532 6.336-1.628 8.912-3.356 2.498-1.675 4.412-3.986 5.591-6.599 0.802-1.8 1.35-4.092 1.353-6.255-0.002-0.721-0.055-1.445-0.166-2.167-0.229-1.525-0.573-2.588-1.271-3.951-2.043-3.994-6.086-6.678-14.418-9.578-6.375-2.216-8.854-3.704-9.898-5.937-0.897-1.933 0.636-3.718 2.723-4.511 6.331-2.408 39.632-15.016 48.313-18.309v-11.609c-9.519 3.593-42.653 16.12-52.151 19.743-0.796 0.305-1.331 0.509-2.091 0.883z" fill="#fff"/>
  <path id="path29" d="m109.48 94.759c13.528-0.17662 40.523-6.2053 42.927-18.24 0-9.804-19.159-20.341-42.927-20.341s-43.142 10.538-43.142 20.342c2.568 14.636 29.614 18.416 43.142 18.239z" fill="#fff"/>
  <path id="path33" d="m109.48 100.39c-15.471 0.01-42.951-5.967-43.14-17.134v37.226c0 9.803 19.267 17.752 43.034 17.752s43.035-7.949 43.035-17.752v-37.226c-0.29017 10.957-27.521 17.118-42.927 17.131z" fill="#fff"/>
</svg>
