<svg xmlns="http://www.w3.org/2000/svg" height="100" viewBox="0 0 100 99.999997" width="100">
    <path d="M40.088 19.604c.313-.77.518-1.56.518-2.42 0-3.757-3.09-6.79-7.077-6.79H16.173c-4.267 0-7.716 3.033-7.716 6.79v63.435h83.217V19.603z" stroke="#1d1d1b" stroke-miterlimit="10" stroke-width="3" fill="#fff"/>
    <path transform="matrix(1.064 0 0 1.066 -6.25 0)" stroke="#1d1d1b" stroke-miterlimit="10" stroke-width="4.694" fill="none" d="M81.597 6.98h-28.95v19.046"/>
    <path fill="#1d1d1b" d="M78.403 0l12.865 7.442-12.865 7.443"/>
    <path transform="matrix(1.064 0 0 1.066 -6.25 0)" stroke="#1d1d1b" stroke-miterlimit="10" stroke-width="4.694" fill="none" d="M81.572 86.82h-28.95V67.776"/>
    <path fill="#1d1d1b" d="M78.377 85.117L91.24 92.56 78.378 100"/>
    <g stroke="#1d1d1b" stroke-miterlimit="10">
        <path transform="matrix(1.064 0 0 1.066 -6.25 0)" stroke-width="4.694" fill="#fff" d="M73.51 26.026V67.75H31.797V26.027h20.85z"/>
        <path stroke-width="3" fill="none" d="M27.583 27.746L71.97 72.228M71.97 27.746L27.584 72.228"/>
    </g>
    <path d="M17.115 49.988H0" stroke="#1d1d1b" stroke-miterlimit="0" stroke-width="5" fill="none"/>
    <path fill="#1d1d1b" d="M25.805 49.988L12.942 57.43V42.547"/>
</svg>
