<svg xmlns="http://www.w3.org/2000/svg" width="882.69" height="882.69" viewBox="0 0 882.69 882.69" >
    <path d="M882.688 20.625c-79.516 30.01-145.31 54.853-224.657 85.125-6.624 2.528-11.086 4.23-17.436 7.344-6.35 3.113-12.483 6.594-18.282 10.375-5.798 3.78-11.273 7.87-16.312 12.218-26.777 23.097-40.842 56.77-39.188 93.812 1.295 28.975 9.144 47.553 28.5 67.656 21.835 22.677 41.415 33.793 103.72 58.844 38.972 15.67 61.734 27.457 71.5 37 8.154 7.97 10.51 13.397 10.437 24-.05 7.137-.462 9.31-2.658 13.563-4.56 8.834-12.093 14.23-27.468 19.75-12.437 4.464-23.165 5.373-37.813 5.375-180.804.023-564.786.116-713.03 0v90.718c154.948.213 575.97-.2 694.03-.062 10.354.012 46.27-.333 56-1.844 28.537-4.43 52.932-13.602 74.44-28.03 20.867-14.003 36.863-33.295 46.717-55.126 6.685-15.02 11.257-34.184 11.282-52.25-.013-6.02-.46-12.06-1.376-18.094-1.933-12.743-4.794-21.613-10.625-33-17.08-33.355-50.838-55.785-120.44-80-53.245-18.525-73.96-30.948-82.686-49.594-7.493-16.142 5.313-31.057 22.75-37.687 52.88-20.108 120.068-45.61 192.593-73.126v-96.97z" color="#000" fill="#fff"/>
</svg>
