<?xml version="1.0" encoding="UTF-8" standalone="no"?>
<svg xmlns:rdf="http://www.w3.org/1999/02/22-rdf-syntax-ns#" xmlns="http://www.w3.org/2000/svg" xmlns:cc="http://creativecommons.org/ns#" xmlns:dc="http://purl.org/dc/elements/1.1/" id="Слой_1" enable-background="new 0 0 91.974 93.801" xml:space="preserve" height="100" viewBox="0 0 100 99.999997" width="100" version="1.1" y="0px" x="0px">
  <g id="text5049">
    <path id="path5054" d="m49.762 78c-1.1458-0.000001-2.1419-0.41016-2.9883-1.2305-0.83335-0.83333-1.25-1.7839-1.25-2.8516-0.000013-1.0937 0.41014-2.0443 1.2305-2.8516 0.83332-0.82031 1.8359-1.2305 3.0078-1.2305 1.0807 0.000007 2.0312 0.41016 2.8516 1.2305 0.82029 0.82032 1.2304 1.7708 1.2305 2.8516-0.000021 1.0547-0.41669 1.9987-1.25 2.832-0.83335 0.83333-1.7774 1.25-2.832 1.25m-3.6133-19.199v-10.645c-0.000014-1.1328 0.28644-1.9466 0.85938-2.4414 0.58592-0.50778 1.6406-0.94398 3.1641-1.3086 1.5234-0.37757 2.5325-0.65101 3.0273-0.82031 1.5364-0.37757 2.8776-1.1914 4.0234-2.4414 1.1588-1.25 1.7383-3.0208 1.7383-5.3125-0.000026-2.7734-0.84638-5.013-2.5391-6.7188-1.6927-1.7057-3.9714-2.5585-6.8359-2.5586-2.2266 0.000051-4.0951 0.5339-5.6055 1.6016-1.5104 1.0547-2.5195 2.4675-3.0273 4.2383-0.70313 2.2657-1.8229 3.4375-3.3594 3.5156-1.3021-0.42965-2.207-0.87235-2.7148-1.3281-0.50782-0.45569-0.80078-1.2955-0.87891-2.5195 0.10416-0.41662 0.15625-0.94396 0.15625-1.582 0.63802-2.8125 2.4349-5.2604 5.3906-7.3438 2.9557-2.0963 6.4648-3.1445 10.527-3.1445 2.6432 0.06516 5.1888 0.63157 7.6367 1.6992 2.4479 1.0678 4.5052 2.6563 6.1719 4.7656 1.6797 2.1094 2.6497 4.6485 2.9102 7.6172-0.000035 4.4401-1.1719 8.0469-3.5156 10.82-2.3308 2.7735-5.6901 4.6354-10.078 5.5859v8.3203c-0.000021 1.0417-0.35809 1.8815-1.0742 2.5195-0.70314 0.63804-1.5495 0.99611-2.5391 1.0742-0.9245-0.07811-1.7318-0.44269-2.4219-1.0938-0.6771-0.65103-1.0156-1.4844-1.0156-2.5"/>
  </g>
</svg>
