<svg xmlns="http://www.w3.org/2000/svg" height="100" viewBox="0 0 100 99.999997" width="100">
    <path d="M49.762 78c-1.146 0-2.142-.41-2.988-1.23-.834-.834-1.25-1.784-1.25-2.852 0-1.094.41-2.044 1.23-2.852.834-.82 1.836-1.23 3.008-1.23 1.08 0 2.03.41 2.852 1.23.82.82 1.23 1.77 1.23 2.852 0 1.055-.417 2-1.25 2.832-.833.833-1.777 1.25-2.832 1.25M46.15 58.8V48.157c0-1.133.285-1.947.858-2.442.586-.507 1.64-.943 3.164-1.308 1.524-.378 2.533-.65 3.028-.82 1.536-.378 2.877-1.192 4.023-2.442 1.16-1.25 1.738-3.02 1.738-5.312 0-2.774-.845-5.013-2.538-6.72-1.693-1.705-3.97-2.558-6.836-2.558-2.226 0-4.095.534-5.605 1.602-1.51 1.055-2.52 2.467-3.027 4.238-.703 2.266-1.822 3.438-3.36 3.516-1.3-.43-2.206-.873-2.714-1.328-.51-.456-.802-1.296-.88-2.52.105-.416.157-.944.157-1.582.638-2.812 2.435-5.26 5.39-7.344 2.956-2.096 6.465-3.144 10.527-3.144 2.643.065 5.19.63 7.637 1.7 2.45 1.067 4.506 2.655 6.173 4.765 1.68 2.11 2.65 4.648 2.91 7.617 0 4.44-1.172 8.047-3.516 10.82-2.33 2.773-5.69 4.635-10.078 5.586v8.32c0 1.042-.36 1.882-1.075 2.52-.703.638-1.55.996-2.54 1.074-.923-.078-1.73-.443-2.42-1.094-.678-.65-1.016-1.484-1.016-2.5"/>
</svg>
