<?xml version="1.0" encoding="UTF-8" standalone="no"?>
<svg xmlns:rdf="http://www.w3.org/1999/02/22-rdf-syntax-ns#" xmlns="http://www.w3.org/2000/svg" xmlns:i="&#38;ns_ai;" xmlns:cc="http://creativecommons.org/ns#" xmlns:xlink="http://www.w3.org/1999/xlink" xmlns:dc="http://purl.org/dc/elements/1.1/" id="Слой_1" version="1.1" xml:space="preserve" height="213.14px" viewBox="0 0 166.774 213.144" width="166.77px" enable-background="new 0 0 166.774 213.144" y="0px" x="0px">
  <rect id="rect11" height="142.44" width="162.71" y="39.313" x="4.063" fill="none"/>
  <rect id="rect13" height="138.36" width="105.79" stroke="#000" stroke-miterlimit="10" y="41.461" x="32.097" stroke-width="5" fill="#fff"/>
  <path id="path15" d="m140.45 190.52c7.216-22.184 11.429-48.928 11.429-77.717 0-30.377-4.694-58.473-12.653-81.34h-108.47c-7.959 22.867-12.653 50.963-12.653 81.34 0 28.789 4.213 55.533 11.429 77.717h110.92z" stroke="#000" stroke-miterlimit="10" stroke-width="6" fill="#fff"/>
  <g id="g17">
    <defs id="defs19">
      <path id="SVGID_1_" d="m85.418 111s39.506 0.12 59.011-91.523c16.004-75.195 20.001 91.644 20.001 91.644s-17.746 110.85-19.142 101.46c-14.062-94.514-59.87-101.59-59.87-101.59z"/>
    </defs>
    <clipPath id="SVGID_2_">
      <use id="use23" xlink:href="#SVGID_1_" height="213.144" width="166.774" y="0" x="0" overflow="visible"/>
    </clipPath>
    <path id="path25" d="m133.94 190.52c7.216-22.184 11.429-48.928 11.429-77.717 0-30.377-4.694-58.473-12.653-81.34h-108.47c-7.959 22.867-12.653 50.963-12.653 81.34 0 28.789 4.213 55.533 11.429 77.717h110.91z" clip-path="url(#SVGID_2_)" stroke="#000" stroke-miterlimit="10" stroke-width="4" fill="#fff"/>
    <path id="path27" d="m124.34 190.52c7.216-22.184 11.43-48.928 11.43-77.717 0-30.377-4.694-58.473-12.653-81.34h-108.47c-7.956 22.875-12.65 50.971-12.65 81.35 0 28.789 4.213 55.533 11.429 77.717h110.92z" clip-path="url(#SVGID_2_)" stroke="#000" stroke-miterlimit="10" stroke-width="4" fill="#fff"/>
    <path id="path29" d="m110.17 190.52c7.216-22.184 11.429-48.928 11.429-77.717 0-30.377-4.694-58.473-12.653-81.34h-92.234c-7.958 22.875-12.653 50.971-12.653 81.35 0 28.789 4.213 55.533 11.429 77.717h94.675z" clip-path="url(#SVGID_2_)" stroke="#000" stroke-miterlimit="10" stroke-width="3" fill="#fff"/>
    <path id="path31" d="m96.333 185.85c7.216-22.183 11.429-48.927 11.429-77.717 0-30.377-4.694-58.473-12.653-81.341h-78.392c-7.959 22.867-12.654 50.964-12.654 81.34 0 28.79 4.213 55.534 11.429 77.717h80.841z" clip-path="url(#SVGID_2_)" stroke="#000" stroke-miterlimit="10" stroke-width="3" fill="#fff"/>
  </g>
</svg>
