<?xml version="1.0" encoding="UTF-8" standalone="no"?>
<svg xmlns="http://www.w3.org/2000/svg" xmlns:xlink="http://www.w3.org/1999/xlink" id="Слой_1" xml:space="preserve" height="132.42px" viewBox="0 0 112.563 132.417" width="112.56px" version="1.1" y="0px" x="0px" enable-background="new 0 0 112.563 132.417">
<switch>
  <g>
        <polygon points="2.5 77.833 57 1.667 110.06 46.167 57 129.92" fill="#fff"/>
        <polygon points="68.414 77.151 2.5 77.151 45.585 46.167 111.5 46.167" fill="#fff"/>
        <polyline stroke-linejoin="round" stroke="#1D1D1B" points="57 2.5 110.06 46.167 57 129.92" stroke-miterlimit="10" stroke-width="5" fill="none"/>
        <polygon stroke-linejoin="round" stroke="#1D1D1B" points="68.414 77.151 57 2.5 2.5 77.151 57 129.92" stroke-miterlimit="10" stroke-width="5" fill="none"/>
          <g stroke-linejoin="round" stroke="#1D1D1B" stroke-width="3" fill="none">
            <line y2="125.95" x2="56.46" x1="57" y1="129.92"/>
              <line y2="52.125" x2="46.397" x1="55.916" stroke-dasharray="8.0552,4.0276" y1="121.96"/>
              <line y2="46.167" x2="45.585" x1="46.125" y1="50.13"/>
          </g>
          <polyline stroke-linejoin="round" stroke="#1D1D1B" points="57 2.5 45.585 46.167 109.33 46.167" stroke-miterlimit="10" stroke-dasharray="8,4" stroke-width="3" fill="none"/>
          <polyline stroke-linejoin="round" stroke-linecap="round" stroke="#1D1D1B" points="2.5 77.151 68.414 77.151 110.06 46.167" stroke-miterlimit="10" stroke-width="5" fill="none"/>
          <line stroke-linejoin="round" y2="77.151" fill="none" y1="46.167" stroke="#1D1D1B" stroke-dasharray="8,4" x2="3.5" stroke-miterlimit="10" x1="45.585" stroke-width="3"/>
          <path stroke-linejoin="round" d="m57 1.667" stroke="#1D1D1B" stroke-miterlimit="10" stroke-dasharray="0,4" stroke-width="3" fill="#fff"/>
      <path stroke="#1D1D1B" stroke-width="3" stroke-miterlimit="10" d="m68.414 77.151" fill="none"/>
  </g>
</switch>
</svg>
