<?xml version="1.0" encoding="UTF-8" standalone="no"?>
<svg xmlns:rdf="http://www.w3.org/1999/02/22-rdf-syntax-ns#" xmlns="http://www.w3.org/2000/svg" xmlns:i="&#38;ns_ai;" xmlns:cc="http://creativecommons.org/ns#" xmlns:xlink="http://www.w3.org/1999/xlink" xmlns:dc="http://purl.org/dc/elements/1.1/" id="Слой_1" version="1.1" xml:space="preserve" height="123.07px" viewBox="0 0 136.096 123.07" width="136.1px" enable-background="new 0 0 136.096 123.07" y="0px" x="0px">
  <path id="path11" stroke-linejoin="round" d="m61.525 9.269c32.599 0 59.025 26.427 59.025 59.025h-118.05c0-32.599 26.428-59.025 59.025-59.025z" stroke="#1d1d1b" stroke-miterlimit="10" stroke-width="5" fill="#fff"/>
  <g id="g13">
    <path id="path15" fill="none" d="m19.271 30.018"/>
  </g>
  <g id="g17">
    <path id="path19" fill="none" d="m61.525 68.295"/>
  </g>
  <g id="g21">
    <defs id="defs23">
      <path id="SVGID_1_" d="m35.938 0s80 34.147 19.411 68.295h80.746v-68.295h-100.16z"/>
    </defs>
    <clipPath id="SVGID_2_">
      <use id="use27" xlink:href="#SVGID_1_" height="123.07" width="136.09599" y="0" x="0" overflow="visible"/>
    </clipPath>
    <circle id="circle29" r="53.275" d="M 114.8,68.293999 C 114.8,97.71697 90.947972,121.569 61.525002,121.569 32.102031,121.569 8.25,97.71697 8.25,68.293999 8.25,38.871028 32.102031,15.018997 61.525002,15.018997 90.947972,15.018997 114.8,38.871028 114.8,68.293999 z" clip-path="url(#SVGID_2_)" stroke="#1d1d1b" cy="68.294" cx="61.525" stroke-miterlimit="10" stroke-width="3" fill="#fff"/>
    <circle id="circle31" r="46.678" d="M 108.203,68.293999 C 108.203,94.073547 87.30455,114.972 61.525002,114.972 35.745453,114.972 14.847,94.073547 14.847,68.293999 c 0,-25.779549 20.898453,-46.678002 46.678002,-46.678002 25.779548,0 46.677998,20.898453 46.677998,46.678002 z" clip-path="url(#SVGID_2_)" stroke="#1d1d1b" cy="68.294" cx="61.525" stroke-miterlimit="10" stroke-width="3" fill="#fff"/>
    <circle id="circle33" r="38.046" d="M 99.571003,68.293999 C 99.571003,89.306225 82.537228,106.34 61.525002,106.34 40.512775,106.34 23.479,89.306225 23.479,68.293999 c 0,-21.012227 17.033775,-38.046002 38.046002,-38.046002 21.012226,0 38.046001,17.033775 38.046001,38.046002 z" clip-path="url(#SVGID_2_)" stroke="#1d1d1b" cy="68.294" cx="61.525" stroke-miterlimit="10" stroke-width="3" fill="#fff"/>
    <circle id="circle35" r="25.908" d="m 87.433002,68.293999 c 0,14.308594 -11.599407,25.908001 -25.908,25.908001 -14.308594,0 -25.908001,-11.599407 -25.908001,-25.908001 0,-14.308594 11.599407,-25.908001 25.908001,-25.908001 14.308593,0 25.908,11.599407 25.908,25.908001 z" clip-path="url(#SVGID_2_)" stroke="#1d1d1b" cy="68.294" cx="61.525" stroke-miterlimit="10" stroke-width="3" fill="#fff"/>
    <circle id="circle37" r="11.728" d="m 73.253001,68.293999 c 0,6.477195 -5.250804,11.727999 -11.727999,11.727999 -6.477196,0 -11.728,-5.250804 -11.728,-11.727999 0,-6.477196 5.250804,-11.728 11.728,-11.728 6.477195,0 11.727999,5.250804 11.727999,11.728 z" clip-path="url(#SVGID_2_)" stroke="#1d1d1b" cy="68.294" cx="61.525" stroke-miterlimit="10" stroke-width="3" fill="#fff"/>
  </g>
  <line id="line39" y2="67.879" stroke-width="4.3953" x2="2.5" stroke="#1d1d1b" stroke-miterlimit="10" y1="67.879" x1="120.55" fill="#fff"/>
</svg>
