<?xml version="1.0" encoding="UTF-8" standalone="no"?>
<svg xmlns:rdf="http://www.w3.org/1999/02/22-rdf-syntax-ns#" xmlns="http://www.w3.org/2000/svg" xmlns:i="&#38;ns_ai;" xmlns:cc="http://creativecommons.org/ns#" xmlns:xlink="http://www.w3.org/1999/xlink" xmlns:dc="http://purl.org/dc/elements/1.1/" id="Слой_1" version="1.1" xml:space="preserve" height="217.74px" viewBox="0 0 217.735 217.735" width="217.74px" enable-background="new 0 0 217.735 217.735" y="0px" x="0px">
  <path id="path25" d="m163.5 144.11c-0.76 0.371-1.494 0.788-2.189 1.24-0.694 0.453-1.35 0.943-1.953 1.464-3.205 2.765-4.89 6.795-4.691 11.23 0.155 3.469 1.095 5.691 3.412 8.1 2.614 2.716 4.958 4.045 12.417 7.045 4.666 1.875 7.391 3.287 8.56 4.43 0.977 0.953 1.259 1.604 1.25 2.874-0.006 0.854-0.054 1.113-0.318 1.623-0.545 1.058-1.447 1.703-3.288 2.363-1.489 0.535-2.773 0.645-4.527 0.645-21.646 0.003-154.42 0.013-172.17 0v10.86c18.549 0.026 155.76-0.023 169.89-0.008 1.24 0.003 5.54-0.04 6.705-0.22 3.417-0.532 6.336-1.628 8.913-3.356 2.498-1.675 4.412-3.986 5.591-6.599 0.802-1.8 1.35-4.092 1.353-6.255-0.002-0.721-0.055-1.445-0.166-2.167-0.229-1.525-0.573-2.588-1.271-3.951-2.043-3.994-6.086-6.678-14.418-9.578-6.375-2.216-8.854-3.704-9.898-5.937-0.897-1.933 0.636-3.718 2.723-4.511 6.331-2.408 39.632-14.974 48.313-18.267v-11.609c-9.519 3.593-42.653 16.078-52.151 19.701-0.796 0.305-1.331 0.509-2.091 0.883z" fill="#fff"/>
  <path id="path27" fill="#fff" d="m66.868 33.492v16.338h6.194v1.708h-6.194v4.912h6.194v2.136h-6.194v4.697h6.194v1.709h-6.194v4.912h6.194v2.137h-6.194v4.057h6.194v1.71h-6.194v4.912h6.194v2.135h-6.194v4.7h6.194v1.708h-6.194v4.912h6.194v2.134h-6.194v4.699h6.194v1.709h-6.194v4.912h6.194v2.135h-6.194v4.699h6.194v1.708h-6.194v4.912h6.194v2.136h-6.194v6.939h98.667l-98.672-98.668zm13.935 33.797 50.293 50.294h-50.297v-50.291z"/>
</svg>
