<?xml version="1.0" encoding="UTF-8" standalone="no"?>
<svg xmlns:rdf="http://www.w3.org/1999/02/22-rdf-syntax-ns#" xmlns="http://www.w3.org/2000/svg" xmlns:i="&#38;ns_ai;" xmlns:cc="http://creativecommons.org/ns#" xmlns:xlink="http://www.w3.org/1999/xlink" xmlns:dc="http://purl.org/dc/elements/1.1/" id="Слой_1" version="1.1" xml:space="preserve" height="102.33px" viewBox="0 0 112.563 102.331" width="112.56px" enable-background="new 0 0 112.563 102.331" y="0px" x="0px">
  <polygon id="polygon11" points="2.5 100.51 39.594 12.416 54.159 2.5 74.055 2.5 110.06 68.847 68.414 99.831" fill="#fff"/>
  <polygon id="polygon13" points="45.585 68.847 111.5 68.847 68.414 99.831 2.5 99.831" fill="#fff"/>
  <polyline id="polyline15" stroke-linejoin="round" stroke="#1d1d1b" points="60.16 12.5 74.055 2.5 110.06 68.847" stroke-miterlimit="10" stroke-width="5" fill="none"/>
  <polygon id="polygon17" stroke-linejoin="round" stroke="#1d1d1b" points="39.516 12.385 2.5 99.831 68.414 99.831 60.16 12.5" stroke-miterlimit="10" stroke-width="5" fill="none"/>
  <g id="g19">
    <path id="path21" fill="none" d="m45.585 68.847"/>
  </g>
  <polyline id="polyline23" stroke-linejoin="round" stroke="#1d1d1b" points="54.159 2.5 45.585 68.847 109.33 68.847" stroke-dasharray="8, 4" stroke-miterlimit="10" stroke-width="3" fill="none"/>
  <polyline id="polyline25" stroke-linejoin="round" fill="none" stroke="#1d1d1b" stroke-linecap="round" stroke-miterlimit="10" stroke-width="5" points="2.5 99.831 68.414 99.831 110.06 68.847"/>
  <line id="line27" stroke-linejoin="round" y2="99.831" x2="3.5" stroke="#1d1d1b" stroke-miterlimit="10" stroke-width="3" y1="68.847" stroke-dasharray="8, 4" x1="45.585" fill="none"/>
  <path id="path29" stroke-linejoin="round" d="m57 24.347" stroke="#1d1d1b" stroke-dasharray="0, 4" stroke-miterlimit="10" stroke-width="3" fill="#fff"/>
  <path id="path33" d="m68.414 99.831" stroke="#1d1d1b" stroke-miterlimit="10" stroke-width="3" fill="none"/>
  <path id="path35" stroke-linejoin="round" d="m89.238 84.339" stroke="#1d1d1b" stroke-linecap="round" stroke-miterlimit="10" stroke-width="3" fill="none"/>
  <polyline id="polyline39" stroke-linejoin="round" stroke="#1d1d1b" points="39.516 12.385 53.331 2.5 74.055 2.5" stroke-miterlimit="10" stroke-width="5" fill="none"/>
</svg>
