<?xml version="1.0" encoding="UTF-8" standalone="no"?>
<svg xmlns="http://www.w3.org/2000/svg" xmlns:xlink="http://www.w3.org/1999/xlink" id="Слой_1" xml:space="preserve" height="136.18px" viewBox="0 0 136.096 136.179" width="136.1px" version="1.1" y="0px" x="0px" enable-background="new 0 0 136.096 136.179">
<switch>
  <g>
        <polygon stroke-linejoin="round" stroke="#fff" points="66.154 110.55 7.129 84.553 125.18 84.553" stroke-miterlimit="10" stroke-width="4" fill="#fff"/>
          <path d="m23.9 46.275" fill="none"/>
          <path d="m66.154 84.553" fill="none"/>
        <path stroke-linejoin="round" d="m98.91 35.449h-65.511c-15.836 10.586-26.27 28.624-26.27 49.103h118.05c0-20.479-10.43-38.517-26.27-49.103z" stroke="#1D1D1B" stroke-miterlimit="10" stroke-width="4" fill="#fff"/>
          <defs>
            <path id="SVGID_1_" d="m96.539 3.149s24.028 47.256-36.561 81.403h80.746l-6.181-45.737-38.001-35.666z"/>
          </defs>
          <clipPath id="SVGID_2_">
            <use overflow="visible" xlink:href="#SVGID_1_"/>
          </clipPath>
            <circle stroke-width="3" clip-path="url(#SVGID_2_)" stroke="#1D1D1B" cy="84.552" cx="66.154" stroke-miterlimit="10" r="53.275" fill="#fff"/>
            <circle stroke-width="3" clip-path="url(#SVGID_2_)" stroke="#1D1D1B" cy="84.552" cx="66.154" stroke-miterlimit="10" r="46.678" fill="#fff"/>
            <circle stroke-width="3" clip-path="url(#SVGID_2_)" stroke="#1D1D1B" cy="84.552" cx="66.154" stroke-miterlimit="10" r="38.046" fill="#fff"/>
            <circle stroke-width="3" clip-path="url(#SVGID_2_)" stroke="#1D1D1B" cy="84.552" cx="66.154" stroke-miterlimit="10" r="25.908" fill="#fff"/>
            <circle stroke-width="3" clip-path="url(#SVGID_2_)" stroke="#1D1D1B" cy="84.552" cx="66.154" stroke-miterlimit="10" r="11.728" fill="#fff"/>
          <line stroke-width="4" y2="84.552" y1="84.552" stroke="#1D1D1B" stroke-miterlimit="10" x2="125.18" x1="7.129" fill="#fff"/>
          <polyline stroke-linejoin="round" stroke="#1D1D1B" points="7.129 84.553 66.154 110.55 125.18 84.553" stroke-miterlimit="10" stroke-dasharray="8,4" stroke-width="4" fill="none"/>
        <path stroke-linejoin="round" d="m98.91 35.449h-65.511c-15.836 10.586-26.27 28.624-26.27 49.103h118.05c0-20.479-10.43-38.517-26.27-49.103z" stroke="#1D1D1B" stroke-miterlimit="10" stroke-width="5" fill="none"/>
        <path d="m23.606 46.275" fill="none"/>
        <path d="m65.86 84.553" fill="none"/>
  </g>
</switch>
</svg>
