<?xml version="1.0" encoding="UTF-8"?>
<!DOCTYPE svg PUBLIC "-//W3C//DTD SVG 1.1 Tiny//EN" "http://www.w3.org/Graphics/SVG/1.1/DTD/svg11-tiny.dtd">
<svg version="1.1" baseProfile="tiny" xmlns="http://www.w3.org/2000/svg" xmlns:xlink="http://www.w3.org/1999/xlink" width="593.25" height="169.989" viewBox="-20 -20 593.25 169.989" >
  <defs>
    <path id="arrow" stroke-width="0" d="M 0 0 L 0 12 L 16 6 Z" />
  </defs>
  <rect fill="#ffffff" stroke="none" x="-20" y="-20" width="593.25" height="169.989" />
  <a xlink:href="91.html" id="a0">
    <path id="a0" fill="none" stroke="blue" stroke-width="2" d="M 0 20 L 137.75 20 " />
    <use xlink:href="#arrow" transform="translate(121.75 14)" />
    <text text-anchor="middle" fill="black" font-size="15" x="68.875" y="35">S01</text>
  </a>
  <a xlink:href="93.html" id="a1">
    <path id="a1" fill="none" stroke="blue" stroke-width="2" d="M 0 45 L 111.75 45 L 111.75 60 L 137.75 60 " />
    <use xlink:href="#arrow" transform="translate(121.75 54)" />
    <text text-anchor="middle" fill="black" font-size="15" x="68.875" y="60">S02</text>
  </a>
  <a xlink:href="97.html" id="a2">
    <path id="a2" fill="none" stroke="blue" stroke-width="2" d="M 0 105 L 329.5 105 L 329.5 89.9928 L 355.5 89.9928 " />
    <use xlink:href="#arrow" transform="translate(339.5 83.9928)" />
    <text text-anchor="middle" fill="black" font-size="15" x="68.875" y="120">S06</text>
  </a>
  <a xlink:href="95.html" id="a3">
    <path id="a3" fill="none" stroke="blue" stroke-width="2" d="M 217.75 40 L 355.5 40 " />
    <use xlink:href="#arrow" transform="translate(339.5 34)" />
    <text text-anchor="middle" fill="black" font-size="15" x="286.625" y="55">S05</text>
  </a>
  <a xlink:href="99.html" id="a4">
    <path id="a4" fill="none" stroke="blue" stroke-width="2" d="M 415.5 40 L 553.25 40 " />
    <use xlink:href="#arrow" transform="translate(537.25 34)" />
    <text text-anchor="middle" fill="black" font-size="15" x="484.375" y="55">S07</text>
  </a>
  <a xlink:href="103.html" id="a5">
    <path id="a5" fill="none" stroke="blue" stroke-width="2" d="M 415.5 89.9928 L 441.5 89.9928 L 441.5 65 L 553.25 65 " />
    <use xlink:href="#arrow" transform="translate(537.25 59)" />
    <text text-anchor="middle" fill="black" font-size="15" x="484.375" y="80">S08</text>
  </a>
  <a xlink:href="46.html" id="a6">
    <rect id="a6" stroke="black" stroke-width="0.5" fill="none" x="137.75" y="0" width="80" height="80" />
    <image x="137.75" y="0" width="80" height="80" xlink:href="FlowSheet.svg" />
    <text text-anchor="middle" fill="black" font-size="15" x="177.75" y="95">OC</text>
  </a>
  <a xlink:href="72.html" id="a7">
    <rect id="a7" stroke="black" stroke-width="0.5" fill="none" x="355.5" y="15.0036" width="60" height="99.9857" />
    <image x="355.5" y="15.0036" width="60" height="99.9857" xlink:href="Separator.svg" />
    <text text-anchor="middle" fill="black" font-size="15" x="385.5" y="129.989">SC</text>
  </a>
</svg>
