<?xml version="1.0" encoding="UTF-8" standalone="no"?>
<!-- Created with Inkscape (http://www.inkscape.org/) -->

<svg
   xmlns:svg="http://www.w3.org/2000/svg"
   xmlns="http://www.w3.org/2000/svg"
   xmlns:xlink="http://www.w3.org/1999/xlink"
   version="1.1"
   width="217.735"
   height="217.735"
   viewBox="0 0 217.735 217.735"
   xml:space="preserve">
<defs
     id="defs33">
<defs
       id="defs17"><path
         d="m 217.735,163.447 c 0,29.982 -24.306,54.288 -54.288,54.288 H 54.288 C 24.306,217.735 0,193.43 0,163.447 V 54.288 C 0,24.306 24.306,0 54.288,0 h 109.159 c 29.982,0 54.288,24.306 54.288,54.288 v 109.159 z"
         id="SVGID_1_" /></defs><clipPath
       id="SVGID_2_"><use
         id="use21"
         style="overflow:visible"
         x="0"
         y="0"
         width="217.735"
         height="217.735"
         xlink:href="#SVGID_1_" /></clipPath></defs><path
     d="m 163.496,144.107 c -0.76,0.371 -1.494,0.788 -2.189,1.24 -0.693,0.453 -1.35,0.943 -1.953,1.464 -3.205,2.765 -4.889,6.795 -4.691,11.23 0.156,3.469 1.096,5.691 3.412,8.1 2.615,2.716 4.959,4.045 12.418,7.045 4.666,1.875 7.391,3.287 8.559,4.43 0.977,0.953 1.26,1.604 1.25,2.874 -0.006,0.854 -0.054,1.113 -0.318,1.623 -0.545,1.058 -1.447,1.703 -3.287,2.363 -1.49,0.535 -2.773,0.645 -4.527,0.645 -21.646,0.003 -154.423,0.013 -172.17,0 l 0,10.86 c 18.549,0.026 155.761,-0.023 169.894,-0.008 1.24,0.003 5.54,-0.04 6.705,-0.22 3.416,-0.532 6.336,-1.628 8.912,-3.356 2.498,-1.675 4.412,-3.986 5.591,-6.599 0.802,-1.8 1.35,-4.092 1.353,-6.255 -0.002,-0.721 -0.055,-1.445 -0.166,-2.167 -0.229,-1.525 -0.573,-2.588 -1.271,-3.951 -2.043,-3.994 -6.086,-6.678 -14.418,-9.578 -6.375,-2.216 -8.854,-3.704 -9.898,-5.937 -0.897,-1.933 0.636,-3.718 2.723,-4.511 6.331,-2.408 39.632,-14.917 48.313,-18.21 l 0,-11.609 c -9.519,3.593 -42.653,16.021 -52.151,19.645 -0.796,0.304 -1.331,0.508 -2.091,0.882 z"
     id="path25"
     style="fill:#ffffff" /><path
     d="m 112.508,143.745 c 6.6,-0.145 13.927,-3.367 15.848,-4.358 14.668,-7.561 17.036,-21.601 9.904,-35.312 -1.777,-3.276 -4.314,-6.5 -6.533,-9.836 -0.369,-0.556 -0.728,-1.115 -1.075,-1.677 -2.687,-5.506 -4.276,-11.371 -2.432,-17.404 0.292,-0.529 0.644,-1.042 1.056,-1.542 0.41,-0.501 0.885,-0.991 1.426,-1.471 0.531,-0.472 1.105,-0.926 1.715,-1.369 0.608,-0.444 1.249,-0.88 1.911,-1.314 -0.716,0.196 -1.456,0.411 -2.204,0.648 -0.75,0.238 -1.51,0.498 -2.263,0.787 -0.753,0.314 -1.491,0.657 -2.2,1.026 -10.006,5.204 -8.48,14.353 -8.406,14.556 -0.382,-0.489 -10.046,-9.455 -8.262,-24.05 2.238,-18.288 12.499,-28.37 12.996,-29.456 -1.326,0.543 -2.673,1.067 -4.009,1.602 -0.669,0.268 -1.332,0.537 -1.991,0.811 -19.449,6.711 -26.279,27.643 -22.733,43.253 1.562,6.876 1.922,7.612 5.058,14.007 3.988,8.129 10.47,11.712 15.314,16.722 1.301,1.345 3.658,5.224 3.883,5.798 1.479,3.005 -0.271,6.563 -2.991,9.428 -0.686,-3.183 -2.114,-5.431 -4.319,-7.911 -0.44,-0.496 -0.912,-1.002 -1.414,-1.526 -2.702,-2.687 -5.087,-4.639 -8.28,-6.012 -0.551,-0.303 -1.116,-0.604 -1.704,-0.91 -0.588,-0.306 -1.2,-0.622 -1.836,-0.945 -3.962,-2.018 -8.932,-6.007 -9.025,-10.107 -0.063,-2.823 0.647,-7.517 3.033,-8.169 -1.59,-0.652 -8.799,4.29 -7.725,12.545 1.238,9.521 20.573,17.417 10.151,24.609 -4.938,3.595 -11.521,-0.676 -13.989,-4.496 -2.742,-4.719 -1.648,-10.787 1.097,-14.383 -5.005,4.191 -8.143,8.689 -6.446,16.305 1.117,5.04 8.399,20.773 36.445,20.151 z"
     id="path29"
     style="fill:#ffffff" /></svg>
